{"glyphs":{"0":{"ha":689,"x_min":39,"x_max":652,"o":"m 346 1015 q 392 1004 363 1015 l 419 1004 q 476 952 447 1004 q 509 939 476 945 q 522 909 519 923 l 514 895 l 522 887 l 538 890 q 560 836 545 886 l 563 833 l 566 833 q 582 846 574 846 q 593 838 593 842 l 593 827 q 571 814 585 814 l 571 811 q 625 800 583 800 q 636 776 636 784 l 633 773 l 617 773 q 598 784 605 784 l 595 781 l 595 776 q 623 768 595 768 q 647 722 635 758 l 647 703 q 623 681 634 681 q 612 648 623 663 l 612 635 q 644 621 612 629 l 652 610 l 652 608 q 625 591 652 602 q 609 548 609 577 q 631 537 631 543 l 623 499 q 633 491 623 491 l 633 483 l 625 483 l 639 456 q 609 423 639 439 q 541 298 591 344 q 481 252 517 286 q 463 239 475 252 q 419 209 419 239 l 427 187 l 419 176 l 387 176 l 378 182 q 346 174 364 174 q 311 190 330 174 l 286 187 q 243 203 272 199 l 197 239 l 197 260 q 159 288 180 260 q 102 345 102 298 l 102 350 l 99 350 q 75 369 85 350 q 113 477 75 454 l 121 486 l 118 488 q 123 502 123 488 l 132 510 l 132 515 q 61 526 132 522 l 53 537 l 75 597 l 72 600 q 45 613 54 600 l 45 618 l 50 627 l 50 640 l 53 686 l 39 700 l 39 703 l 45 719 l 42 735 q 66 789 66 767 q 58 814 66 804 q 83 827 64 827 q 110 849 83 835 q 123 876 110 871 l 126 876 q 134 863 134 876 l 137 863 q 167 925 151 863 l 172 930 l 172 936 l 151 928 l 145 928 l 137 933 q 153 960 137 951 l 164 960 l 180 944 l 186 944 q 191 958 191 944 q 248 990 224 971 l 256 990 l 267 982 q 346 1015 306 1015 m 338 979 l 338 977 l 351 966 l 354 968 l 354 971 l 338 979 m 294 960 l 292 958 l 292 955 l 319 949 q 327 955 319 955 l 327 958 l 294 960 m 140 643 l 140 575 q 180 423 140 511 q 365 301 252 301 q 579 483 519 301 q 598 613 598 544 q 547 822 598 733 q 373 930 482 930 q 156 749 216 930 q 140 643 140 695 m 365 920 l 376 920 q 500 857 467 920 l 498 854 l 452 854 l 438 871 l 441 873 q 395 909 416 909 q 376 914 395 913 l 365 914 q 294 868 315 914 l 281 854 l 235 854 l 232 857 l 229 857 q 365 920 275 920 m 368 906 q 454 779 438 906 q 463 646 463 725 l 463 581 q 406 339 463 392 l 370 326 l 365 326 q 319 350 325 338 q 273 594 273 401 q 335 895 273 871 q 368 906 346 906 m 346 879 l 349 876 l 351 879 l 368 879 l 368 882 l 362 887 l 354 887 l 346 879 m 387 876 l 387 871 l 392 865 l 395 865 l 395 868 l 392 876 l 387 876 m 227 846 l 281 846 l 286 841 l 286 838 l 273 814 l 210 814 l 202 822 l 202 825 q 227 846 202 846 m 457 846 l 503 846 q 533 827 519 846 l 533 825 l 522 814 l 465 814 l 452 838 l 452 841 l 457 846 m 218 811 q 278 798 277 806 q 248 781 268 781 l 186 784 l 183 787 l 183 795 q 218 811 183 806 m 406 806 l 406 803 l 419 792 l 425 800 l 408 806 l 406 806 m 465 808 l 528 808 q 547 798 543 808 l 547 789 q 528 781 547 783 l 468 784 l 460 798 l 460 803 l 465 808 m 406 784 l 406 743 l 397 635 l 403 621 l 395 608 l 397 594 l 392 589 q 411 583 392 583 l 416 578 l 425 586 l 422 597 l 425 600 l 427 600 l 444 597 l 446 597 l 446 600 q 433 610 438 600 l 449 627 q 433 667 449 667 q 419 673 419 667 l 419 681 q 446 708 446 702 q 438 735 446 724 l 438 741 l 441 743 l 438 754 l 414 751 l 408 760 q 427 770 413 770 l 435 770 l 435 773 q 406 784 435 779 m 205 770 l 267 768 l 270 765 l 270 749 l 264 743 l 167 743 l 167 746 q 205 770 167 770 m 536 770 q 563 757 551 770 l 563 751 q 547 743 560 743 l 473 743 l 468 749 l 468 762 q 476 768 468 768 l 536 770 m 186 730 l 248 727 l 254 727 l 259 722 l 259 708 l 254 703 l 164 703 l 159 708 q 186 730 159 730 m 473 727 l 563 727 l 571 719 l 571 713 q 514 700 571 703 q 468 719 468 703 l 468 722 l 473 727 m 210 684 q 256 675 231 684 l 256 670 l 164 670 l 164 675 q 210 684 184 684 m 530 684 q 574 675 554 684 l 574 670 l 481 670 l 481 675 q 530 684 507 684 m 156 640 l 161 640 l 161 637 l 194 640 l 235 640 l 254 637 l 254 632 l 243 632 l 180 629 q 156 637 156 632 l 156 640 m 511 640 l 547 640 l 574 637 l 574 632 l 484 632 l 484 637 l 511 640 m 444 586 l 444 581 l 449 581 l 449 586 l 444 586 m 392 567 l 395 564 l 403 567 l 403 572 l 397 572 l 392 567 m 430 572 q 414 551 424 551 l 381 553 l 373 551 l 373 548 q 381 543 373 543 l 384 545 l 395 543 q 441 567 425 543 l 433 572 l 430 572 m 378 456 l 378 453 l 387 453 l 392 458 l 392 464 l 389 464 l 378 456 m 335 426 l 311 399 l 316 393 l 351 401 l 351 407 q 338 426 345 407 l 335 426 m 365 404 l 370 399 l 378 407 l 373 407 l 365 404 m 397 274 l 397 266 l 400 266 l 400 274 l 397 274 z "},"1":{"ha":550,"x_min":21,"x_max":683,"o":"m 623 1118 l 640 1118 q 683 1069 683 1103 l 683 1044 q 623 987 683 999 l 618 982 l 615 982 l 599 996 l 599 1001 q 642 1017 599 1015 q 659 1058 659 1033 q 631 1101 659 1090 l 612 1101 q 545 1047 564 1082 q 406 779 463 952 l 420 765 l 420 757 q 404 749 420 749 l 409 727 l 409 719 l 414 719 q 498 920 422 797 q 572 963 534 963 l 577 963 q 631 884 631 944 q 583 792 631 823 l 561 787 l 553 787 l 545 795 l 591 830 q 604 879 604 855 l 604 884 q 572 939 598 939 q 447 746 508 939 l 441 741 l 444 738 l 444 735 q 417 551 417 654 l 420 412 l 404 396 l 404 393 l 406 391 l 406 388 l 409 391 l 450 391 l 479 388 l 493 393 q 553 326 553 336 l 561 290 l 493 222 l 479 225 l 463 225 q 452 198 457 225 l 455 179 l 447 174 q 420 182 420 176 q 385 174 407 174 l 368 184 l 347 176 l 338 182 l 325 179 q 279 190 279 185 l 271 203 l 257 201 l 238 201 q 189 182 215 182 l 165 193 l 149 179 q 21 293 125 182 l 21 296 q 75 345 34 318 l 105 374 q 111 363 111 374 q 135 342 135 359 q 159 382 159 342 q 146 418 146 382 l 154 431 l 132 456 l 135 475 l 130 480 l 140 499 l 140 529 q 127 553 140 539 l 127 559 l 143 572 q 157 597 143 589 l 154 610 l 154 621 l 162 629 l 173 621 l 178 629 l 178 637 l 159 692 l 154 692 q 143 673 148 673 l 135 673 q 124 689 124 678 q 135 703 130 701 l 138 703 l 149 700 l 159 703 l 159 708 l 154 716 l 154 719 l 159 746 l 154 762 l 154 768 l 159 776 q 86 749 86 766 l 83 746 l 73 746 l 62 757 l 62 773 q 45 789 45 773 l 51 800 q 43 806 43 800 l 43 808 q 62 819 43 814 l 62 836 l 56 857 q 73 882 60 882 l 83 879 l 235 928 q 344 968 332 968 l 349 963 l 385 979 l 387 979 q 401 960 401 975 l 401 958 l 398 852 l 401 844 l 404 844 q 528 1058 448 949 q 558 1085 534 1058 q 623 1118 602 1118 m 344 922 l 349 917 l 355 917 q 363 936 359 917 l 360 936 l 344 922 m 97 846 l 97 822 l 184 822 q 238 792 232 822 l 241 789 l 241 369 q 197 328 229 328 l 168 326 l 116 326 l 116 301 l 482 301 l 482 326 l 409 326 q 355 361 355 326 l 352 363 l 352 903 l 330 903 q 97 846 222 846 m 338 887 l 347 860 q 338 841 338 859 l 208 841 l 208 846 l 338 887 m 192 876 l 192 873 l 197 873 l 197 876 l 192 876 m 173 873 l 178 868 l 181 868 l 181 873 l 173 873 m 154 871 l 154 865 l 162 865 l 162 871 l 154 871 m 138 868 l 138 863 l 140 863 l 140 868 l 138 868 m 322 833 q 347 822 343 833 l 336 800 l 249 800 l 214 830 l 216 833 l 322 833 m 197 789 l 200 787 l 205 787 l 205 795 l 203 795 l 197 789 m 303 798 q 347 781 343 794 l 347 779 q 292 768 347 769 l 284 768 q 246 781 246 770 l 246 784 q 303 798 246 792 m 192 784 l 192 776 l 186 754 l 186 749 q 200 781 193 749 l 197 784 l 192 784 m 170 773 l 173 773 q 184 781 184 777 l 178 781 l 170 773 m 219 776 l 219 770 l 222 770 l 222 776 l 219 776 m 257 754 l 333 754 l 338 749 l 338 730 l 257 730 l 252 735 l 252 749 l 257 754 m 257 713 l 333 713 l 338 708 l 338 694 l 333 689 l 257 689 l 252 694 l 252 708 l 257 713 m 311 670 q 336 659 336 666 l 336 656 l 268 656 q 252 665 254 656 l 254 667 l 287 667 l 311 670 m 257 627 l 260 624 l 292 627 l 322 627 l 336 624 l 336 618 l 314 618 l 279 616 q 254 624 254 618 l 257 627 m 162 382 l 189 374 l 192 377 l 178 415 q 162 382 168 415 m 398 385 l 395 366 l 398 366 l 404 372 l 404 385 l 398 385 m 300 288 l 300 282 q 382 233 322 251 l 398 233 q 406 247 404 233 l 336 269 q 314 288 314 281 l 300 288 m 439 269 l 439 266 l 444 266 l 444 269 l 439 269 z "},"2":{"ha":593,"x_min":17,"x_max":771,"o":"m 380 1011 q 410 987 400 1011 q 462 954 421 987 q 511 922 486 954 l 505 916 l 497 916 l 494 919 l 492 919 l 492 913 q 562 851 509 892 q 584 810 584 826 l 587 810 l 589 813 l 592 813 l 584 835 l 584 840 l 587 843 l 587 846 l 581 851 l 581 854 l 589 862 l 595 862 q 622 808 607 862 l 622 802 q 608 797 622 797 q 592 775 592 788 q 603 748 603 772 q 573 637 585 637 l 565 637 l 557 642 q 505 626 534 642 l 505 623 l 511 615 l 527 626 l 530 626 q 546 596 538 626 l 538 585 l 535 583 l 527 583 l 511 588 l 505 580 l 505 569 l 508 569 l 516 574 l 519 574 l 519 561 q 492 545 508 545 l 478 545 q 454 498 459 519 q 435 485 443 485 l 459 460 q 481 501 481 476 l 519 501 l 527 507 l 530 507 l 546 493 l 543 479 q 551 463 545 463 l 557 469 l 559 469 l 554 460 q 568 455 568 460 l 568 441 q 538 393 568 417 l 532 328 l 535 300 l 532 298 l 532 295 l 535 284 q 527 273 528 284 l 500 273 l 492 265 q 503 257 503 264 l 503 254 l 494 243 l 494 241 q 543 222 532 231 l 546 222 l 546 224 l 543 233 l 546 235 q 600 195 551 235 q 695 173 637 173 l 709 173 l 709 168 l 668 162 l 619 170 q 714 127 650 142 l 714 124 l 717 127 l 722 127 l 722 121 l 682 116 l 649 121 q 733 62 649 102 l 733 56 q 668 78 701 56 q 698 26 677 37 q 771 -28 724 20 l 771 -31 q 733 -12 755 -31 l 682 24 l 687 -31 l 684 -39 q 744 -98 744 -79 l 741 -101 l 739 -101 q 684 -52 706 -61 q 606 -163 663 -127 q 486 -204 539 -204 q 424 -169 424 -199 l 424 -166 q 475 -123 424 -134 q 516 -150 516 -127 l 511 -150 q 484 -139 495 -139 q 448 -155 461 -139 l 448 -166 q 481 -177 448 -177 l 492 -177 q 603 -134 545 -177 q 660 -39 660 -82 q 668 2 665 -39 q 630 113 668 73 l 633 124 q 475 238 576 207 l 427 252 l 416 238 l 446 224 q 524 132 508 186 l 532 97 l 530 94 l 527 94 l 530 92 l 530 81 q 394 -9 498 -2 l 391 -9 q 283 35 313 -9 l 277 54 l 277 70 q 304 89 287 89 l 310 89 q 342 48 340 89 l 340 45 l 337 45 q 315 73 326 66 l 304 73 q 299 64 299 73 q 389 16 311 16 q 511 113 511 31 q 432 208 511 165 q 372 227 398 227 q 353 233 372 232 l 291 233 l 256 235 q 196 227 196 231 l 182 230 l 134 227 q 68 241 68 231 l 68 243 l 77 252 l 101 249 l 104 249 q 71 271 104 260 l 63 279 l 66 298 l 66 325 l 71 333 l 71 338 q 60 360 60 350 q 87 385 74 366 l 79 395 l 79 398 l 85 398 l 98 395 l 104 412 l 98 420 l 98 422 l 104 428 l 117 425 l 117 455 q 169 490 134 490 l 220 553 l 220 558 l 201 558 q 139 607 139 580 q 112 656 112 629 l 101 675 l 66 675 q 20 702 20 689 l 17 724 q 55 824 17 753 l 55 829 q 44 857 44 844 q 82 903 44 868 q 161 957 116 941 q 188 989 172 979 l 207 989 l 242 1006 l 245 1006 q 275 995 257 1006 l 277 995 l 286 1000 l 342 1000 l 380 1011 m 104 737 q 155 645 104 670 l 172 642 l 193 642 q 250 694 250 660 l 250 713 q 163 764 250 745 l 147 789 l 147 794 q 191 851 159 833 q 269 873 228 873 q 370 816 345 873 q 383 767 380 795 l 386 764 l 386 734 l 372 672 q 269 520 356 618 q 82 311 82 333 l 82 290 l 508 290 q 513 314 513 290 l 516 314 l 513 317 l 516 333 l 524 485 l 522 488 l 497 488 q 481 433 492 488 q 424 385 463 397 l 169 385 l 163 390 q 332 517 249 472 q 437 593 401 574 q 516 751 516 665 q 383 895 516 853 l 313 903 q 112 786 162 903 q 104 737 106 775 m 315 895 q 456 846 391 895 l 465 835 q 443 827 453 827 l 375 829 q 315 878 359 863 l 280 886 l 258 884 l 258 889 l 315 895 m 210 832 l 212 832 l 256 851 l 256 857 l 250 857 q 212 838 212 845 l 210 835 l 210 832 m 237 816 l 245 813 l 296 838 l 296 840 l 272 848 l 237 816 m 307 829 q 283 794 307 816 l 283 791 q 323 819 319 811 l 310 829 l 307 829 m 215 797 l 210 802 l 210 810 l 212 813 l 212 816 l 199 816 l 185 797 l 185 791 l 196 791 q 253 756 210 791 l 256 756 l 275 778 l 272 778 l 264 770 l 250 770 l 245 775 l 245 786 q 272 819 251 802 l 269 819 q 215 797 231 797 m 391 819 l 478 819 q 497 786 497 800 l 397 786 q 386 813 389 786 l 391 819 m 131 810 l 139 810 l 139 791 l 134 786 l 131 789 l 131 810 m 310 775 l 310 772 l 313 772 l 342 786 l 337 802 l 334 802 l 310 775 m 456 783 q 505 764 505 778 q 459 753 505 755 q 394 764 394 753 l 394 770 q 456 783 394 779 m 307 729 l 310 721 l 307 713 l 310 713 l 356 751 l 356 753 l 351 762 l 353 764 l 353 767 q 348 778 348 767 l 307 729 m 125 778 l 136 778 q 155 759 153 769 l 147 753 l 120 753 l 115 759 l 115 767 l 125 778 m 177 743 q 234 718 217 743 l 234 715 l 120 715 l 115 721 l 115 734 q 123 740 115 740 l 177 743 m 435 743 q 505 729 505 743 q 467 713 492 713 q 394 724 394 717 l 394 729 q 435 743 406 743 m 310 675 q 359 710 353 701 l 359 724 l 356 724 q 313 683 323 686 l 310 680 l 310 675 m 169 702 l 231 696 l 231 688 q 191 672 222 672 q 123 683 157 672 l 123 688 q 169 702 123 699 m 418 702 l 481 699 l 497 699 l 497 696 l 486 675 l 394 675 l 386 683 q 418 702 394 702 m 348 669 l 299 618 l 299 615 q 342 645 313 629 q 353 667 346 667 l 353 669 l 348 669 m 283 640 l 286 640 l 307 664 l 304 664 q 283 640 283 646 m 421 656 q 470 648 444 656 l 470 642 l 375 642 l 375 648 q 421 656 399 656 m 432 612 l 432 604 l 361 604 l 356 610 l 359 612 l 432 612 m 258 577 l 256 577 l 242 580 l 229 561 l 231 558 l 248 558 q 269 583 248 565 l 267 583 l 258 577 m 288 404 l 408 404 l 408 425 l 413 433 l 413 452 l 416 466 l 413 466 q 321 420 366 424 q 291 412 313 412 l 288 409 l 288 404 m 456 458 l 454 444 l 454 428 q 465 452 465 431 l 456 458 m 226 406 l 226 404 l 245 404 l 250 409 l 250 431 l 226 406 m 144 249 l 147 249 l 239 254 l 239 260 q 193 273 204 265 l 182 273 q 174 257 182 257 l 172 257 l 172 260 l 177 273 l 174 273 l 172 276 l 169 276 q 144 249 154 276 m 435 260 l 459 254 l 465 268 l 465 273 l 451 273 l 435 260 m 370 252 l 370 249 l 378 246 l 399 254 l 399 257 l 380 260 l 378 260 l 370 252 m 701 -90 q 728 -142 728 -119 l 728 -144 l 725 -144 l 695 -93 l 698 -90 l 701 -90 m 684 -153 l 690 -158 l 687 -158 q 701 -204 701 -190 q 687 -231 701 -222 l 682 -231 l 690 -204 l 690 -201 l 679 -155 l 682 -153 l 684 -153 z "},"3":{"ha":665,"x_min":-108,"x_max":983,"o":"m 785 1217 l 787 1217 l 793 1212 q 638 1041 679 1122 q 581 886 621 1012 l 562 854 q 581 794 576 829 l 584 794 q 711 835 632 819 l 717 835 q 739 821 732 835 l 733 794 l 736 794 q 953 884 818 884 l 980 886 l 983 884 l 983 881 q 937 867 977 873 q 795 767 861 827 l 725 699 q 649 631 660 631 q 633 653 633 631 q 641 702 635 702 l 641 710 l 638 710 q 578 634 607 681 q 541 572 567 629 q 595 450 595 524 l 595 439 q 535 317 595 372 q 508 290 532 290 l 486 290 q 478 281 486 281 q 337 214 478 248 q 275 130 307 214 q 267 86 267 112 l 267 78 q 326 -41 267 -23 l 367 -50 q 427 -6 427 -36 q 386 35 427 13 l 383 37 l 383 45 l 391 54 l 397 54 q 443 21 421 54 l 446 10 q 408 -47 446 -13 l 364 -58 q 242 45 271 -58 l 239 73 q 288 211 239 146 q 220 235 266 211 l 220 243 l 250 238 l 256 238 l 299 254 l 299 260 l 250 265 q 128 192 167 242 l 85 121 l 87 119 q 74 67 74 103 q 93 48 74 52 q 123 64 113 48 l 120 73 l 128 83 l 139 73 l 139 70 q 96 32 139 38 l 79 32 q 47 67 56 32 q 106 205 54 132 q 229 271 178 261 l 229 276 l 226 273 l 223 273 l 204 284 l 193 271 l 188 271 q 163 295 163 274 l 163 298 l 169 309 q 158 322 163 321 l 134 322 q 87 352 103 322 l 85 352 q 6 325 6 342 q -21 290 -12 325 l -21 287 q -7 257 -17 257 l 1 257 l 1 268 l -10 290 l -7 292 l -2 292 q 12 260 9 292 q 1 243 6 243 q -37 290 -37 255 q 33 355 -16 355 l 63 366 l 87 366 q 93 374 87 374 l 98 374 l 123 360 l 128 360 l 128 366 q 90 390 127 372 l 87 409 l 87 444 q 144 523 96 523 l 161 515 l 169 520 l 142 566 l 144 569 l 144 572 q 136 602 136 572 l 136 629 l 134 629 q -94 813 -3 629 q -108 895 -108 864 l -108 897 q -13 1122 -108 1029 q 36 1155 23 1155 l 50 1155 q 96 1095 96 1139 q 52 1019 92 1019 q 33 1038 33 1019 l 41 1044 l 55 1041 q 77 1074 68 1041 q 44 1136 77 1126 q -67 995 1 1136 q -83 895 -83 946 q 52 675 -83 777 q 96 659 83 659 l 96 661 l 87 683 l 87 705 q 79 729 79 717 l 82 819 q 90 838 87 819 l 98 843 l 101 843 q 106 829 106 843 l 109 827 l 112 827 q 182 941 163 941 l 182 943 l 180 943 l 142 930 l 139 930 l 134 935 l 134 943 q 174 973 157 973 l 180 973 l 193 957 l 204 954 q 237 979 218 971 l 248 979 q 307 992 273 979 q 329 984 317 992 l 326 970 q 383 930 326 954 l 386 941 q 351 960 368 941 q 367 987 358 987 q 389 962 385 987 l 391 962 q 486 1114 404 1022 l 489 1117 l 503 1117 q 511 1103 509 1117 l 505 1044 l 505 1008 q 513 987 505 989 q 725 1190 596 1133 l 774 1215 l 785 1217 m 508 960 q 478 1030 478 987 l 481 1074 l 424 984 l 424 981 l 437 965 l 437 960 q 424 954 437 954 l 421 951 l 421 946 l 429 938 l 432 938 q 437 949 437 938 q 462 965 448 965 q 551 886 510 941 q 578 957 559 898 l 581 957 l 578 960 l 578 962 q 600 1025 587 975 q 703 1168 629 1086 l 698 1168 q 522 962 585 1112 l 519 960 l 508 960 m 459 935 l 456 932 l 456 930 l 465 922 q 454 911 462 911 q 492 892 454 906 q 557 819 552 843 l 559 819 l 559 824 q 481 924 559 850 l 459 935 m 421 922 l 421 919 l 427 913 l 429 916 l 429 922 l 421 922 m 166 770 q 223 707 166 727 l 237 707 q 296 764 296 721 q 275 797 289 791 q 245 821 275 805 l 239 838 l 239 840 q 299 878 247 878 l 318 881 q 432 751 432 881 q 394 645 432 675 q 337 626 382 633 l 334 623 l 323 623 l 315 629 l 272 629 q 256 610 256 621 q 275 591 256 601 q 315 599 309 593 l 351 599 q 421 555 399 585 q 446 469 446 515 l 446 431 q 397 328 446 369 q 326 306 382 313 l 323 303 l 315 303 q 258 314 311 308 q 212 357 212 338 l 212 374 q 272 417 212 378 l 277 447 q 215 501 277 492 q 139 422 149 501 q 177 341 153 341 q 348 279 222 279 q 573 406 533 283 l 576 436 l 576 466 q 408 612 576 571 l 402 612 l 402 615 q 427 626 402 619 l 446 648 q 418 653 418 648 l 424 659 l 448 659 l 462 656 q 549 740 536 696 l 551 740 q 535 759 551 746 l 535 762 l 505 759 l 446 762 l 443 764 l 443 781 l 446 783 l 446 786 l 451 786 l 451 783 l 492 786 l 519 786 q 543 778 533 786 l 551 778 l 549 781 l 549 786 l 551 789 l 551 791 l 530 832 q 348 908 473 908 q 166 791 201 908 l 166 770 m 361 900 q 505 843 439 900 l 505 840 q 486 832 505 834 l 424 835 q 359 886 391 886 q 334 892 359 890 l 315 889 l 315 895 l 361 900 m 269 843 l 299 810 q 313 791 299 795 l 323 791 q 348 854 323 808 l 334 865 l 307 865 q 269 843 286 865 m 229 865 l 234 865 l 234 859 q 226 835 226 850 l 223 832 l 204 832 q 229 865 204 865 m 736 770 l 728 770 l 717 781 l 722 816 l 720 816 q 584 767 681 809 q 522 659 573 711 l 470 626 q 516 588 483 606 q 549 642 524 591 l 581 683 q 657 751 631 732 l 660 751 l 671 740 l 671 729 q 657 672 666 723 l 660 672 q 847 835 824 835 q 882 857 871 857 l 882 862 l 880 862 q 768 797 819 840 q 736 770 759 783 m 353 857 l 353 851 q 370 819 370 830 l 375 824 l 367 840 l 372 851 l 353 857 m 497 827 q 532 802 532 827 l 532 797 l 527 791 l 446 791 l 432 810 l 432 819 l 437 824 l 470 824 l 497 827 m 199 824 l 234 824 l 258 797 l 258 791 l 185 791 l 180 797 l 180 813 q 199 824 184 824 m 559 816 l 559 810 l 562 810 l 562 816 l 559 816 m 234 789 q 283 772 279 785 l 283 770 q 229 759 283 760 l 212 759 q 172 775 172 762 q 234 789 172 783 m 508 748 q 538 737 538 745 l 538 734 l 524 721 l 467 721 l 456 724 l 446 721 l 443 724 l 443 740 q 451 745 443 745 l 508 748 m 196 745 l 269 745 l 275 740 q 234 721 275 729 l 223 721 q 196 737 207 721 l 196 745 m 467 707 q 513 696 513 705 q 494 680 513 692 l 437 680 l 432 686 l 432 688 q 467 707 443 707 m 454 621 l 459 615 l 459 621 l 454 621 m 280 618 l 283 615 l 315 618 l 345 618 l 359 615 l 359 610 l 351 610 l 302 607 q 280 615 280 610 l 280 618 m 321 580 l 321 574 l 356 574 l 351 580 l 321 580 m 372 550 l 372 547 l 380 547 l 380 550 l 372 550 m 264 371 l 267 371 l 280 374 l 280 376 l 275 382 l 264 371 m 286 376 l 286 374 l 291 374 l 291 376 l 286 376 m 394 260 l 394 252 l 399 246 q 429 265 399 251 l 429 271 l 394 260 m 334 252 l 334 246 l 337 246 l 337 252 l 334 252 z "},"4":{"ha":651,"x_min":12,"x_max":880,"o":"m 692 1632 l 698 1632 q 833 1526 785 1632 q 880 1325 880 1440 q 861 1146 876 1165 l 863 1143 l 863 1138 q 842 1048 858 1133 l 804 959 q 557 696 726 787 q 576 642 572 661 q 554 593 576 622 l 554 590 q 573 571 561 590 l 584 566 l 589 571 l 589 576 l 573 593 l 573 601 q 589 609 576 609 q 614 576 614 600 l 614 566 q 589 541 610 541 l 578 541 q 559 549 570 541 l 549 538 l 549 530 q 576 517 549 526 l 578 519 l 587 519 l 587 498 q 622 479 587 492 l 625 465 l 625 463 l 581 419 l 578 419 q 549 452 564 441 l 541 452 l 541 449 l 576 411 l 573 411 q 530 430 547 429 l 527 427 l 527 422 q 557 406 549 422 l 554 403 l 554 400 q 608 332 608 355 l 611 308 q 557 245 559 262 q 505 216 533 216 q 473 254 477 216 l 470 254 l 454 243 q 467 199 461 243 q 429 148 463 148 l 418 148 q 359 61 418 85 l 337 58 q 277 123 298 58 l 277 129 l 280 132 l 280 134 l 275 140 l 275 186 l 280 191 l 275 199 l 253 191 q 136 305 245 191 l 136 308 l 139 311 l 136 324 l 136 330 l 139 340 l 136 349 l 174 387 l 174 389 l 139 403 l 136 403 q 117 376 128 376 l 106 381 l 98 378 l 20 463 l 14 479 l 14 492 l 22 506 l 12 522 q 31 576 31 558 l 31 593 q 50 620 43 603 q 79 639 76 628 q 93 658 83 639 l 90 671 l 71 652 l 68 652 l 60 661 l 60 663 q 109 709 60 698 q 79 766 79 741 q 139 861 79 840 l 147 861 q 180 853 170 861 l 177 869 q 218 921 185 921 l 229 921 q 272 886 260 921 q 313 840 277 840 l 342 850 l 342 853 l 337 859 l 334 859 l 323 850 l 313 850 q 296 869 308 850 l 296 878 l 304 886 l 307 886 l 318 878 l 326 878 l 326 886 l 321 891 l 310 888 q 318 905 312 905 l 315 918 q 351 956 319 956 l 353 956 q 386 943 371 956 q 370 1029 375 1027 l 370 1040 l 375 1046 l 386 1046 q 440 986 396 1046 q 467 1051 458 1051 q 497 986 486 1051 l 565 1059 l 570 1059 l 578 1051 l 578 1048 q 546 970 546 981 l 541 959 l 543 956 q 538 940 538 956 l 532 924 l 530 921 l 500 921 l 503 907 q 492 886 503 898 l 492 867 l 500 867 l 500 829 l 503 815 l 513 829 l 513 837 q 505 859 505 848 l 513 864 l 524 864 l 532 856 l 532 845 q 516 802 532 816 l 516 777 l 492 750 l 492 745 q 711 1089 711 838 l 711 1092 l 717 1097 l 714 1100 l 714 1157 l 717 1160 l 717 1162 q 701 1219 713 1162 q 671 1244 684 1244 q 616 1168 640 1244 l 616 1152 q 654 1103 625 1103 l 657 1103 l 671 1105 l 671 1116 q 654 1124 671 1122 l 654 1127 l 641 1122 l 638 1124 l 638 1135 q 660 1149 645 1149 l 663 1149 q 692 1116 682 1149 q 663 1084 692 1101 l 654 1084 q 608 1122 608 1099 q 603 1143 603 1122 l 597 1149 l 597 1171 q 663 1255 626 1255 l 679 1255 q 730 1119 723 1255 l 730 1103 q 543 750 730 855 l 492 723 l 492 693 q 530 715 507 715 l 532 712 l 535 712 q 804 1008 715 806 l 801 1010 q 847 1165 819 1038 q 863 1271 858 1266 l 863 1298 l 858 1306 l 858 1358 q 809 1542 858 1440 q 725 1607 757 1607 l 720 1613 l 665 1613 q 573 1556 623 1600 l 551 1526 q 654 1428 654 1510 q 611 1385 654 1385 q 522 1480 536 1385 l 522 1499 l 513 1488 l 511 1485 l 508 1485 l 503 1491 l 503 1493 q 527 1518 503 1510 q 611 1607 527 1557 q 692 1632 655 1632 m 543 1493 l 543 1472 l 541 1469 l 541 1466 l 559 1423 q 614 1398 593 1398 q 641 1426 641 1404 l 641 1434 q 565 1510 619 1510 l 551 1510 q 543 1493 543 1507 m 467 989 l 459 948 l 486 948 l 486 951 l 481 959 l 484 962 q 470 989 479 962 l 467 989 m 408 983 l 408 978 q 435 948 408 948 l 435 951 l 408 983 m 508 964 l 508 956 l 513 951 l 516 951 l 522 983 l 508 964 m 348 932 q 337 907 337 916 q 348 888 343 907 l 351 888 q 375 916 357 889 q 348 932 361 932 m 405 921 l 391 924 l 391 899 l 413 924 l 413 926 l 405 921 m 435 924 l 112 522 l 109 511 l 109 468 l 353 468 l 359 463 l 359 387 q 321 343 359 350 l 288 340 l 258 340 l 258 324 l 256 321 l 256 319 l 258 316 l 543 316 l 549 321 l 549 340 l 541 340 q 473 384 473 340 l 473 463 l 478 468 l 568 468 l 573 473 l 573 500 l 478 500 l 473 506 l 473 669 q 462 674 462 669 q 473 690 473 677 l 473 715 l 470 726 l 473 745 l 473 921 l 462 921 l 462 864 q 421 856 462 856 l 408 859 q 456 918 435 918 l 456 921 l 435 924 m 204 872 q 234 826 212 826 l 237 826 q 258 864 258 836 q 220 897 258 892 q 204 872 208 897 m 405 848 l 456 848 l 462 842 l 462 821 l 456 815 l 378 815 l 372 821 q 405 848 372 845 m 123 826 l 125 812 q 112 766 115 812 l 112 761 q 128 728 112 739 l 142 728 q 185 772 163 728 l 188 780 l 182 785 l 188 807 l 188 812 q 144 837 176 837 l 123 826 m 391 810 l 456 810 l 462 804 l 462 791 q 454 785 462 785 l 394 783 q 364 799 373 783 q 391 810 364 806 m 212 804 l 226 791 l 231 799 l 231 802 l 212 804 m 215 783 l 215 780 l 220 780 l 220 783 l 215 783 m 359 780 l 359 506 l 353 500 l 134 500 l 134 506 l 353 780 l 359 780 m 378 769 l 456 769 l 462 764 l 462 750 l 456 745 l 378 745 l 372 750 l 372 764 l 378 769 m 204 755 q 180 720 204 746 l 180 715 q 207 753 203 715 l 207 755 l 204 755 m 378 728 l 456 728 l 462 723 l 462 709 l 456 704 l 378 704 l 372 709 l 372 723 l 378 728 m 519 680 q 543 604 525 604 q 562 644 560 604 q 530 688 562 665 l 519 680 m 435 685 q 456 674 456 681 l 456 671 l 383 671 l 375 680 l 378 682 l 410 682 l 435 685 m 261 582 l 267 582 q 315 650 307 582 q 261 582 291 630 m 378 642 l 383 642 l 383 639 l 402 642 l 437 642 l 456 639 l 456 633 l 440 633 l 399 631 q 378 639 378 633 l 378 642 m 492 625 l 492 614 q 511 598 498 603 l 513 598 l 513 601 q 503 623 503 601 l 500 625 l 492 625 m 242 614 l 231 595 l 231 593 l 234 593 l 245 614 l 242 614 m 527 587 l 532 582 l 538 582 l 543 587 l 527 587 m 342 585 q 315 530 342 553 l 310 530 l 299 538 l 286 530 l 272 541 l 272 549 q 286 576 272 558 l 283 576 q 264 566 264 570 l 269 517 l 272 519 l 326 519 l 337 517 l 345 519 l 345 585 l 342 585 m 505 579 q 532 555 519 555 l 541 566 q 535 576 535 566 l 532 579 l 505 579 m 492 576 l 492 557 l 500 557 l 497 576 l 492 576 m 513 555 l 516 552 l 516 547 l 500 544 l 500 541 q 519 525 511 525 l 527 528 l 527 538 l 522 547 l 524 549 l 524 552 l 513 555 m 188 549 l 185 533 l 191 533 l 193 549 l 188 549 m 535 547 l 535 536 l 541 530 l 543 533 l 543 538 l 535 547 m 530 528 l 530 525 l 535 525 l 535 528 l 530 528 m 508 522 l 508 517 l 519 517 l 513 522 l 508 522 m 231 446 l 231 444 l 234 444 l 239 454 l 237 454 q 231 446 231 454 m 245 454 l 239 441 l 253 422 l 253 416 l 245 403 l 291 397 l 291 400 q 253 441 274 435 l 248 454 l 245 454 m 264 449 l 264 446 l 304 406 l 307 406 l 299 438 l 286 435 q 272 454 276 454 l 269 454 l 264 449 m 313 395 l 313 389 l 310 387 l 313 384 q 334 370 327 370 l 334 373 l 321 387 q 315 395 321 395 l 313 395 m 299 294 l 304 289 l 326 289 l 348 294 l 348 297 l 342 302 l 307 302 l 299 294 m 416 297 l 416 292 l 467 262 l 475 259 l 475 262 l 505 297 l 497 302 l 492 302 l 492 297 l 465 297 l 456 302 l 421 302 l 416 297 m 527 281 l 541 267 l 543 270 l 543 275 l 538 281 l 527 281 m 522 275 q 500 256 512 261 l 503 254 l 503 251 l 500 248 l 500 245 l 508 240 l 522 240 l 522 245 l 508 245 l 508 251 l 511 251 l 543 256 l 522 275 m 405 243 l 410 216 l 405 216 l 405 213 q 421 172 416 172 q 446 197 446 176 q 427 240 446 223 l 410 237 l 405 243 m 375 202 q 367 189 375 194 l 353 191 l 340 189 l 332 197 q 302 180 302 186 l 302 153 q 337 85 302 85 l 345 85 q 402 145 386 85 l 402 153 q 378 202 378 170 l 375 202 m 532 153 l 541 153 l 549 145 l 549 142 q 508 102 549 119 l 497 102 l 489 110 l 489 137 l 497 145 l 503 140 l 503 137 l 500 123 l 503 123 q 532 153 507 123 z "},"5":{"ha":651,"x_min":-39,"x_max":775,"o":"m 593 1367 q 604 1301 601 1367 l 604 1277 q 564 1206 604 1206 l 558 1196 q 580 1185 559 1185 l 607 1185 q 618 1158 614 1185 q 604 1120 615 1135 l 631 1103 l 629 1117 q 664 1163 629 1136 l 691 1234 q 702 1198 700 1234 l 702 1196 q 661 1141 702 1158 l 659 1139 l 659 1136 q 675 1106 675 1118 l 675 1098 q 729 1041 729 1079 q 677 998 729 1013 q 642 957 677 982 l 642 935 q 583 876 642 906 q 547 770 562 829 l 550 767 l 574 770 l 561 789 l 561 791 l 572 805 l 574 805 q 585 783 577 783 l 593 783 q 642 813 611 783 l 629 859 q 645 884 629 873 l 667 884 q 677 859 677 880 q 661 813 669 813 l 667 800 q 642 764 667 791 l 645 762 l 772 745 l 775 743 l 775 740 l 764 729 l 751 729 l 724 726 q 656 737 659 732 l 637 737 l 542 748 l 539 748 l 539 745 q 553 734 547 745 l 547 718 l 553 718 l 607 715 l 732 721 l 753 718 l 753 713 q 650 696 724 702 l 515 702 l 512 702 l 512 699 l 531 691 l 539 699 l 542 699 q 555 675 547 699 q 615 599 615 675 q 634 501 634 544 l 634 488 q 593 352 634 403 l 599 347 l 599 338 q 534 271 599 314 q 488 235 517 235 l 474 235 q 455 243 465 235 l 414 214 q 376 157 414 183 q 360 75 368 75 l 363 73 l 363 64 l 355 37 l 357 13 l 357 -14 l 363 -22 l 363 -71 q 344 -153 351 -88 l 341 -153 q 336 -134 336 -153 l 330 -128 l 330 -112 l 336 -104 l 338 75 l 344 151 q 292 184 292 165 l 287 184 l 279 178 l 254 178 q 230 186 242 186 l 235 67 l 235 7 l 233 -134 q 243 -153 243 -138 l 243 -204 l 246 -207 l 246 -210 q 233 -261 241 -210 l 222 -275 l 216 -275 l 214 -272 l 211 -272 l 208 -182 l 211 54 l 208 154 l 205 162 l 208 176 l 208 192 q 135 230 208 208 l 135 219 q 146 -82 146 60 l 143 -85 l 135 -85 q 116 -28 123 -85 l 119 78 l 113 151 l 116 192 l 111 257 q 51 336 64 297 q 26 368 44 336 q -39 425 -39 376 l -39 436 q 56 536 -30 536 l 75 536 l 86 566 l 78 566 q 21 640 33 566 q 75 699 21 699 l 116 691 l 113 694 l 113 696 l 116 753 l 121 759 l 121 764 l 113 772 l 116 791 l 116 813 l 140 838 l 140 840 q 108 919 108 872 q 138 987 108 959 l 132 1000 q 200 1079 132 1060 q 252 1117 200 1095 l 287 1117 q 347 1071 319 1105 l 371 1087 l 390 1087 q 433 1044 414 1078 l 431 1041 l 431 1022 l 425 1022 l 420 1027 l 422 1041 q 382 1079 414 1079 q 349 1063 361 1079 l 352 1049 l 352 1046 l 344 1038 q 336 1055 336 1041 l 338 1057 l 338 1060 q 271 1106 311 1106 q 200 1065 231 1106 q 146 1017 161 1065 l 143 1000 l 146 992 l 159 1000 l 162 1000 l 170 992 q 140 979 170 981 q 119 916 119 948 q 154 846 119 885 l 192 878 l 189 881 q 200 946 195 946 q 338 930 297 930 q 347 935 338 935 l 338 968 l 338 984 q 390 1008 353 1008 l 395 1008 q 515 984 456 984 q 591 1000 591 989 l 591 1017 q 561 1052 591 1031 q 621 1079 570 1060 l 623 1087 q 593 1114 620 1099 l 585 1109 l 572 1109 l 564 1117 q 596 1133 564 1124 q 607 1158 607 1146 l 604 1177 l 561 1177 q 545 1206 552 1177 q 515 1201 515 1205 q 501 1177 515 1177 q 482 1166 487 1177 l 482 1155 q 517 1087 482 1135 l 531 1049 q 504 1033 531 1035 l 471 1041 l 471 1046 l 474 1046 l 512 1038 q 523 1046 523 1042 l 523 1052 q 479 1128 523 1065 l 471 1158 l 471 1160 q 501 1185 471 1179 q 515 1212 501 1205 l 547 1212 q 591 1299 580 1251 l 588 1364 l 591 1367 l 593 1367 m 588 1258 l 564 1215 l 569 1215 q 593 1258 583 1215 l 588 1258 m 688 1198 q 677 1168 688 1185 l 683 1168 l 691 1193 l 691 1198 l 688 1198 m 642 1125 l 642 1103 q 637 1076 637 1099 q 583 1046 637 1065 q 607 1003 607 1019 q 555 962 607 976 q 574 924 574 954 l 561 905 l 561 903 l 574 908 l 585 905 q 618 943 618 922 l 604 979 l 604 984 l 610 989 l 623 989 l 631 984 l 637 984 q 659 998 650 984 l 650 1014 l 650 1017 l 661 1027 q 691 1014 679 1014 q 718 1044 718 1025 q 664 1095 717 1057 q 648 1125 664 1118 l 642 1125 m 441 1049 l 444 1049 l 444 1044 l 436 1044 l 441 1049 m 460 1049 l 466 1049 l 466 1044 l 460 1044 l 460 1049 m 360 970 l 360 968 l 376 935 q 398 946 388 946 l 412 946 l 458 930 q 504 946 504 937 l 504 949 l 501 951 l 501 954 l 485 943 l 482 946 l 460 941 l 441 941 l 431 951 q 447 962 435 962 l 447 968 l 385 984 q 360 970 360 978 m 441 957 q 450 951 441 951 l 482 960 l 482 962 l 474 962 l 441 957 m 398 930 l 398 927 l 409 927 l 409 930 l 398 930 m 211 927 l 208 924 l 208 922 q 181 637 195 637 l 165 610 l 165 599 l 176 585 l 197 585 q 214 629 206 585 l 216 631 l 211 637 q 290 669 236 661 q 325 675 302 675 q 431 599 399 675 q 441 520 441 572 l 441 507 q 325 330 441 330 l 309 330 q 211 376 211 338 l 211 385 q 276 431 216 397 q 287 460 283 438 q 224 515 287 509 l 216 515 q 146 458 165 515 l 146 436 q 281 306 146 340 l 336 300 q 569 439 506 300 q 580 515 580 477 q 526 642 580 589 q 450 691 500 669 l 393 705 l 390 707 l 330 707 l 262 691 l 224 675 l 219 675 q 233 816 224 780 q 338 808 289 808 l 352 808 q 531 922 500 808 l 531 927 l 528 927 q 414 911 479 911 l 393 911 l 376 908 l 211 927 m 222 919 q 382 897 300 897 l 431 897 l 512 908 l 515 905 q 474 854 515 884 l 330 857 l 222 854 l 219 857 l 219 913 l 222 916 l 222 919 m 504 821 l 507 819 l 526 819 q 555 859 555 842 l 555 865 l 504 821 m 336 848 q 452 840 392 848 l 452 835 q 374 824 404 824 l 371 824 l 363 819 l 300 819 l 292 824 l 287 824 q 214 835 262 824 l 214 840 q 336 848 285 848 m 168 832 l 168 829 l 181 827 l 184 827 l 189 838 l 189 840 l 181 840 l 168 832 m 138 770 q 143 762 143 770 l 149 762 l 159 791 q 170 808 159 808 l 170 819 l 159 821 q 146 791 148 821 q 138 770 142 791 m 214 808 l 219 800 l 219 789 l 214 783 l 208 783 l 208 802 l 214 808 m 425 770 q 501 794 501 781 l 504 797 l 504 800 l 501 800 q 425 770 425 774 m 268 786 l 271 783 l 273 783 l 279 791 l 273 791 l 268 786 m 512 772 l 512 770 l 531 770 l 539 789 l 539 791 l 536 791 q 512 772 517 772 m 602 770 l 602 764 l 615 767 l 615 772 l 602 770 m 349 751 l 349 748 q 376 726 357 734 l 390 745 l 387 745 l 371 743 q 363 751 363 743 l 349 751 m 404 748 l 404 745 l 409 745 l 409 748 l 404 748 m 523 729 q 515 724 523 724 l 515 721 l 517 721 l 531 726 l 531 729 l 523 729 m 281 724 l 279 721 l 279 713 q 292 721 292 716 l 281 724 m 425 718 l 425 715 l 441 713 q 433 718 441 718 l 425 718 m 235 702 l 235 699 l 241 699 l 241 702 l 235 702 m 149 688 l 149 683 l 151 683 l 151 688 l 149 688 m 121 686 l 121 680 l 127 680 l 127 686 l 121 686 m 382 680 l 452 680 l 458 675 l 452 669 l 382 669 l 376 675 l 382 680 m 135 675 l 132 664 l 135 661 l 138 661 q 146 667 138 667 l 146 669 l 140 675 l 135 675 m 48 645 l 48 640 q 59 604 50 604 l 62 604 l 62 610 q 78 659 67 659 l 81 659 l 94 656 l 100 669 l 81 672 l 70 672 q 48 645 48 672 m 113 664 l 113 661 l 119 661 l 119 664 l 113 664 m 431 640 l 433 637 l 460 640 l 490 640 l 509 637 l 509 631 l 498 631 l 450 629 q 428 637 428 631 l 431 640 m 78 615 l 78 607 l 81 593 l 83 593 l 83 615 l 78 615 m -14 436 q 21 395 -14 395 l 21 393 q 51 428 33 393 l 45 463 l 54 512 q -14 436 -5 512 m 230 376 l 230 374 l 243 363 l 249 363 l 254 368 l 235 376 l 230 376 m 479 257 l 479 254 l 498 252 q 523 279 517 258 l 580 330 l 580 333 l 523 290 q 479 257 503 257 m 341 268 l 341 262 l 349 262 l 349 268 l 341 268 m 368 203 l 368 195 l 371 195 l 371 203 l 376 203 l 376 189 l 379 189 q 395 216 395 197 l 395 222 l 390 222 l 387 230 q 368 203 375 230 m 363 157 q 355 151 363 151 l 357 111 l 357 108 l 363 108 l 368 154 l 366 157 l 363 157 m 341 -58 l 341 -74 l 344 -74 l 344 -58 l 341 -58 m 233 -185 l 233 -207 l 235 -207 l 235 -185 l 233 -185 z "},"6":{"ha":753,"x_min":-59,"x_max":785,"o":"m 394 1621 l 397 1621 q 424 1545 424 1596 l 424 1510 q 410 1463 424 1480 l 413 1461 l 413 1458 q 353 1407 391 1407 l 275 1379 q 231 1358 268 1371 q 185 1306 199 1340 q 139 1095 139 1184 l 139 1059 q 163 975 139 994 l 166 975 l 166 989 q 201 1124 166 1034 l 199 1127 l 199 1130 q 261 1246 240 1246 l 267 1233 l 264 1236 l 261 1236 l 261 1230 l 267 1225 l 267 1233 q 307 1152 307 1168 q 486 1246 385 1246 l 492 1246 q 600 1152 570 1246 q 654 1127 600 1135 q 717 1016 717 1079 q 673 954 717 971 l 668 954 l 668 951 q 730 902 688 951 q 774 848 768 902 q 785 831 779 848 q 749 699 771 739 q 711 655 740 655 l 698 655 l 695 658 l 673 650 l 660 650 l 630 652 l 622 650 l 622 647 q 646 633 622 642 l 649 631 l 649 628 l 663 631 l 668 631 q 687 595 676 629 q 703 568 691 595 l 722 536 l 725 536 l 739 538 q 747 511 747 529 q 722 479 743 497 q 709 381 722 422 l 709 378 l 711 378 l 725 381 l 728 378 l 728 362 l 717 351 l 706 351 q 701 359 701 351 l 698 362 l 692 362 l 690 346 q 701 302 701 319 q 687 278 694 278 l 682 278 l 676 283 l 679 316 l 671 316 l 663 308 l 665 281 q 595 232 665 259 q 568 254 579 234 q 524 243 562 245 q 500 232 524 239 q 489 218 494 220 l 481 218 q 470 232 470 224 l 459 232 q 443 218 445 232 q 418 180 432 218 l 421 107 q 408 58 421 75 l 408 -26 l 413 -34 l 413 -88 l 402 -102 l 397 -102 q 386 -20 386 -102 l 386 80 q 375 167 379 80 l 334 159 l 326 161 q 299 91 319 117 q 226 15 252 53 l 201 4 l 185 4 q 131 77 131 33 q 120 132 127 77 l 115 132 l 71 107 l 68 110 l 68 113 l 71 115 q 39 83 65 115 l 20 80 q -5 104 -5 83 l -5 123 q 12 137 3 137 l 12 140 l 9 142 l 9 145 q 14 153 14 145 l 6 224 l 6 245 q 17 270 6 256 q -5 286 17 275 l -10 319 l -10 324 q 87 400 -10 382 l 101 400 q 17 560 17 501 l 17 576 q 82 726 17 642 q 55 747 82 737 q -59 899 -39 823 l -59 907 l -54 913 q 41 837 1 848 q 87 764 76 804 l 106 750 l 134 758 l 134 764 q 79 926 79 829 l 79 932 l 85 1016 l 85 1021 l 96 1032 l 98 1032 l 134 1008 l 125 1089 q 147 1236 125 1157 l 150 1236 l 147 1238 l 147 1244 l 161 1276 l 155 1282 l 155 1312 q 253 1477 155 1434 l 361 1539 q 402 1586 391 1586 l 405 1586 q 389 1615 405 1594 l 394 1621 m 166 1303 l 166 1295 l 169 1295 q 204 1401 169 1339 q 291 1458 250 1436 q 359 1499 291 1468 q 399 1567 399 1539 l 399 1569 q 302 1491 353 1507 l 212 1436 q 166 1303 166 1381 m 410 1569 l 413 1542 l 413 1512 l 402 1480 q 283 1415 342 1415 l 231 1393 l 231 1390 l 239 1390 l 267 1396 l 272 1388 q 378 1423 296 1401 q 405 1477 405 1442 q 418 1520 418 1490 l 418 1542 l 416 1569 l 410 1569 m 402 1553 q 378 1504 402 1529 l 399 1501 l 405 1545 l 405 1553 l 402 1553 m 269 1434 l 269 1428 l 272 1428 q 364 1455 285 1436 q 397 1496 397 1485 l 394 1499 l 391 1499 q 332 1463 368 1499 l 269 1434 m 234 1412 l 234 1409 l 239 1409 l 239 1412 l 234 1412 m 210 1388 q 188 1341 197 1375 l 188 1339 l 191 1339 q 231 1377 192 1355 l 231 1382 l 210 1388 m 459 1230 l 459 1225 l 508 1225 l 508 1230 l 486 1233 l 459 1230 m 448 1227 l 448 1222 l 454 1222 l 448 1227 m 253 1219 l 253 1214 l 264 1179 l 269 1179 l 256 1219 l 253 1219 m 315 1127 q 481 1195 395 1195 q 559 1152 528 1195 l 559 1149 l 565 1149 q 505 1206 565 1206 l 484 1208 l 470 1206 l 456 1208 q 351 1173 412 1208 q 315 1127 315 1143 m 242 1195 q 182 997 182 1044 l 182 981 l 180 978 l 180 975 l 185 975 q 248 1157 215 1042 l 250 1160 l 253 1160 l 256 1157 l 258 1157 l 258 1160 q 242 1195 247 1195 m 275 1192 l 275 1187 l 277 1187 l 277 1192 l 275 1192 m 318 1116 l 321 1070 l 321 1054 q 280 937 321 976 l 280 932 q 359 1010 305 951 q 413 1038 402 1038 l 416 1035 l 416 1032 l 367 994 l 337 967 l 337 962 q 364 970 357 964 l 383 970 l 432 956 l 465 926 q 489 916 479 926 l 505 916 q 532 986 517 986 q 606 954 559 986 l 611 954 q 630 972 611 962 l 627 986 q 684 1043 627 1011 l 690 1043 q 641 991 643 1000 l 641 981 l 657 964 l 671 964 q 709 1021 709 983 q 608 1127 692 1127 l 603 1127 l 603 1111 q 530 1024 603 1055 q 511 1019 530 1019 q 448 1070 448 1019 l 443 1105 q 470 1138 454 1133 l 473 1138 l 481 1130 l 513 1143 l 546 1143 l 549 1141 l 551 1141 l 551 1143 q 478 1184 524 1184 q 318 1116 395 1184 m 267 1171 l 272 1171 l 272 1176 l 267 1171 m 258 1154 q 264 1095 264 1131 l 264 1092 q 220 926 264 1020 l 204 902 l 210 897 l 207 894 l 207 891 l 210 891 q 277 991 262 935 l 283 1024 l 283 1070 q 261 1154 283 1103 l 258 1154 m 250 1135 q 212 978 212 1022 l 199 959 l 196 959 l 196 975 l 199 986 l 199 989 l 196 989 l 185 959 l 185 956 q 199 929 185 944 q 250 1089 250 1040 l 250 1092 l 253 1095 l 250 1097 l 253 1116 l 253 1135 l 250 1135 m 451 1086 l 451 1084 q 511 1067 451 1067 q 565 1119 565 1076 l 562 1130 q 459 1089 459 1130 l 451 1086 m 584 1127 l 584 1119 l 576 1078 q 589 1111 589 1092 l 589 1127 l 584 1127 m 481 1046 l 481 1043 l 519 1035 l 532 1038 l 532 1040 l 484 1046 l 481 1046 m 104 1010 q 96 926 99 997 q 115 834 101 869 l 120 834 l 120 840 q 109 943 112 840 q 131 983 109 983 q 188 804 152 960 l 191 804 l 193 831 l 193 837 q 182 842 182 837 l 182 848 l 193 878 l 193 886 q 104 1010 193 944 m 134 943 q 166 769 144 769 l 172 785 q 147 899 153 899 l 150 902 l 150 905 q 136 943 144 905 l 134 943 m 248 555 q 302 359 248 437 l 313 354 l 310 351 l 310 349 q 356 311 341 311 q 421 278 356 298 l 484 270 q 698 414 648 270 q 703 425 698 425 l 701 427 l 701 433 l 706 441 l 706 468 l 709 479 l 706 490 l 706 514 l 701 522 l 703 525 l 703 528 l 682 576 q 584 642 642 625 q 551 650 559 643 l 513 650 l 465 633 q 389 579 425 618 l 386 582 l 386 590 q 478 867 386 827 l 508 875 l 527 875 q 573 845 573 875 l 573 842 l 554 796 l 551 785 q 600 731 551 752 l 627 731 q 682 799 682 753 q 524 899 654 899 q 351 829 421 899 q 288 750 336 821 q 248 555 248 663 m 465 888 l 500 888 l 505 883 l 503 880 l 500 880 l 489 883 q 432 842 460 883 q 408 823 422 823 l 383 826 l 372 823 l 370 826 l 370 829 q 456 878 378 850 q 465 888 458 888 m 546 886 l 568 886 q 657 834 607 882 l 657 831 l 644 823 l 592 826 l 589 826 l 584 831 l 584 848 l 587 850 l 587 853 q 559 880 569 878 l 546 880 l 546 886 m 223 867 l 210 848 l 212 845 l 215 845 q 226 867 215 853 l 223 867 m -26 864 l -26 861 q -5 840 -19 861 l -2 837 l 3 837 l 3 840 q -2 850 -2 840 l -24 864 l -26 864 m 234 853 l 237 853 l 245 861 l 245 864 l 234 853 m 516 853 l 516 845 l 532 842 l 522 853 l 516 853 m 516 840 l 513 837 l 513 834 l 516 826 l 513 826 q 508 812 509 826 l 516 796 l 522 796 l 522 799 l 516 812 l 519 815 l 524 815 l 522 812 l 524 802 l 530 802 l 530 807 l 532 834 l 516 840 m 220 834 l 212 818 l 212 815 l 215 815 q 223 831 220 815 l 223 834 l 220 834 m 25 831 l 25 826 l 31 826 l 25 831 m 456 831 l 446 815 l 446 812 q 459 831 450 812 l 456 831 m 383 818 l 410 815 l 410 812 q 394 783 399 783 l 334 783 l 329 788 q 383 818 329 815 m 603 818 q 671 804 671 816 l 660 783 l 573 783 l 568 788 l 568 793 q 603 818 568 818 m 47 812 q 58 799 52 800 q 47 812 52 811 m 440 810 l 440 807 l 446 807 l 446 810 l 440 810 m 351 777 l 389 777 l 394 772 l 394 755 l 389 750 l 307 750 l 307 761 q 351 777 315 777 m 635 777 q 657 769 656 777 l 657 766 q 630 750 648 750 l 576 753 l 568 774 l 570 777 l 635 777 m 475 747 l 475 745 l 484 701 l 481 699 l 473 699 q 456 718 456 709 l 451 718 l 435 682 q 465 655 465 664 l 532 666 q 568 661 568 664 q 587 671 587 667 q 505 712 525 698 q 481 753 481 729 l 475 747 m 139 736 l 139 731 l 150 731 l 150 734 l 147 736 l 147 739 l 139 736 m 323 739 q 386 726 386 739 q 364 712 376 712 l 315 712 l 304 715 l 294 712 q 288 720 288 712 q 323 739 288 736 m 41 566 q 50 536 41 536 q 125 623 125 604 q 134 639 125 639 l 131 652 l 131 671 l 125 671 q 74 609 125 660 l 71 606 l 68 606 q 55 620 61 606 q 117 690 62 639 q 144 715 123 690 l 150 715 l 150 723 l 125 723 q 50 620 96 723 l 41 566 m 307 699 l 356 696 l 372 696 l 378 690 l 378 677 l 372 671 l 280 671 l 275 677 l 275 682 q 307 699 283 699 m 340 652 l 372 644 l 372 639 l 286 639 q 269 647 271 639 l 272 650 l 304 650 l 340 652 m 215 606 l 215 601 l 218 601 l 218 606 l 215 606 m 294 609 l 342 609 l 361 606 l 361 601 l 275 601 l 275 606 l 294 609 m 465 609 q 568 552 546 609 q 578 484 578 517 l 578 468 l 581 457 l 578 446 l 578 430 q 519 302 578 332 q 494 294 507 302 l 473 294 q 413 335 423 311 q 386 444 386 381 l 386 465 q 465 609 386 567 m 549 609 l 551 606 l 584 609 l 614 609 l 627 606 l 627 601 l 614 601 l 573 598 q 549 606 549 601 l 549 609 m 52 517 l 74 484 l 172 582 l 172 585 q 147 598 172 593 l 144 598 q 79 538 130 598 q 52 517 73 538 m 489 590 l 489 585 l 492 585 l 492 590 l 489 590 m 475 585 l 465 560 l 470 560 l 481 582 l 478 585 l 475 585 m 456 571 l 462 571 l 462 576 l 456 571 m 505 576 l 505 568 l 508 568 l 508 576 l 505 576 m 169 568 q 85 460 155 529 l 98 446 l 101 446 l 180 522 l 169 547 l 172 566 l 172 568 l 169 568 m 448 560 l 437 536 l 437 533 l 440 533 q 454 557 454 541 l 451 560 l 448 560 m 489 547 l 478 509 l 481 509 l 489 514 l 486 517 l 492 544 l 492 547 l 489 547 m 497 528 l 503 522 l 508 522 l 508 528 l 497 528 m 443 506 l 443 503 l 446 492 l 448 492 l 448 503 l 446 506 l 443 506 m 109 427 l 125 397 q 191 460 172 434 l 191 490 l 185 500 l 182 500 q 128 446 142 446 l 109 427 m 473 495 q 448 441 460 441 l 437 463 q 446 487 444 471 l 443 487 l 413 479 l 399 463 l 435 457 l 435 454 q 413 446 435 448 q 405 441 413 441 l 402 438 l 402 427 l 424 427 l 427 411 q 459 400 459 411 q 446 392 446 398 l 446 389 q 475 373 459 389 l 481 373 l 481 378 l 465 397 l 465 400 l 516 400 l 562 403 l 562 408 l 492 422 l 492 427 l 494 430 q 508 435 494 435 l 511 438 l 511 446 l 489 446 l 489 452 l 492 454 l 489 457 l 489 463 l 492 465 l 492 468 l 475 479 l 475 487 l 481 487 l 481 495 l 473 495 m 22 300 l 20 300 l 14 305 q 82 362 82 357 q 112 384 94 362 l 112 387 l 101 389 q 33 362 73 387 q 3 302 12 342 l 31 270 q 17 227 20 256 l 25 170 l 25 167 l 28 167 q 47 186 47 176 q 90 224 56 186 q 237 357 112 238 l 207 406 l 147 338 q 31 235 104 290 l 28 235 l 28 243 q 201 419 201 413 l 196 441 q 79 332 97 332 q 22 300 37 300 m 242 349 q 158 254 227 319 q 28 153 41 153 q 9 118 28 134 l 9 113 q 25 91 9 98 q 101 140 76 140 l 234 281 q 269 321 254 298 l 242 349 m 277 305 q 163 172 248 257 q 125 145 141 163 l 125 142 q 142 85 136 142 l 158 50 q 248 118 165 50 q 277 134 267 134 q 163 47 198 54 l 163 42 q 201 20 178 20 q 242 61 220 20 q 286 102 284 92 q 204 45 218 45 l 201 47 l 201 53 l 207 58 l 210 58 l 210 53 l 212 53 q 294 115 285 115 q 313 167 313 129 q 302 186 302 172 l 302 189 l 307 210 l 307 213 l 299 227 q 332 270 299 233 l 332 273 l 315 264 l 304 264 q 280 305 280 275 l 277 305 m 304 259 l 307 256 l 307 254 q 153 102 210 146 l 150 102 l 150 104 q 218 183 150 117 q 304 259 292 259 m 326 194 l 329 186 l 337 186 l 329 194 l 326 194 z "},"7":{"ha":665,"x_min":-45,"x_max":718,"o":"m 305 1058 l 305 1053 q 229 982 280 1014 q 191 939 201 960 q 232 917 193 917 l 270 917 q 302 939 294 939 l 302 941 l 262 979 l 262 990 l 267 996 l 278 996 l 324 960 q 449 1042 424 1036 l 454 1042 l 460 1036 l 452 1025 l 506 979 q 642 1047 506 984 l 661 1047 l 669 1039 l 669 1036 l 528 963 l 528 960 l 547 944 l 563 947 q 576 933 570 947 l 574 920 l 576 917 l 582 917 l 595 928 q 633 901 615 901 l 647 920 q 620 955 620 941 l 620 958 q 631 966 620 964 l 663 939 q 699 979 669 957 l 712 979 l 718 974 l 718 968 l 682 925 l 682 922 l 701 898 l 701 895 l 690 895 l 663 901 q 650 882 654 882 l 652 873 q 639 838 648 838 l 633 838 l 625 846 l 625 865 l 628 868 l 628 871 q 623 879 623 871 l 620 882 l 612 882 l 609 868 l 609 860 l 623 830 l 623 827 q 604 787 623 819 l 604 784 l 652 808 l 663 808 l 682 798 l 682 792 l 680 789 l 680 787 l 666 789 l 609 754 q 699 686 650 708 l 709 673 l 709 670 l 693 670 q 587 738 656 670 l 544 694 q 563 648 544 677 l 566 648 q 620 684 603 684 l 628 684 l 639 673 l 639 662 l 633 662 l 631 665 l 628 665 q 585 629 591 642 q 633 583 632 600 l 631 581 l 625 581 q 566 613 604 581 l 509 562 l 528 524 l 536 524 q 606 556 578 556 l 612 556 l 623 545 q 568 518 619 537 l 552 502 l 601 445 l 601 439 l 598 439 q 530 486 573 439 l 490 456 l 492 401 l 492 393 l 495 380 l 500 380 q 571 431 538 421 q 593 415 593 420 l 593 410 l 585 401 l 576 407 q 517 358 543 395 l 576 296 l 576 293 q 500 336 539 293 q 473 293 484 319 q 449 244 470 293 q 406 217 437 241 l 416 212 l 419 212 q 490 266 473 266 l 492 266 l 498 260 q 438 195 498 246 l 438 193 q 503 152 496 165 l 503 149 l 484 146 l 479 146 q 419 174 467 146 q 359 92 376 125 l 349 87 l 338 95 q 400 190 338 119 l 384 209 l 376 214 l 349 209 l 338 212 q 311 187 311 192 l 311 184 l 343 152 l 335 149 q 294 163 313 149 l 292 163 q 248 100 258 124 l 245 98 l 235 98 l 227 106 l 227 109 q 270 176 227 122 q 218 220 218 199 q 170 277 192 241 q 118 233 133 233 l 113 247 q 159 301 113 253 q 140 331 140 320 l 151 339 l 167 331 l 170 331 l 172 345 l 170 382 l 170 391 l 180 404 l 178 407 l 175 407 l 180 429 q 104 347 153 405 q 85 336 92 336 l 83 339 l 83 347 q 164 450 83 366 q 118 505 118 484 l 118 507 l 123 513 l 132 513 l 180 469 l 183 469 q 240 529 240 523 l 240 556 l 245 589 q 205 608 232 589 q 132 534 144 534 l 129 534 l 137 524 l 137 521 l 134 521 q 20 627 92 540 l 20 629 l 91 564 l 123 537 q 156 589 123 562 l 178 618 l 151 624 l 137 618 l 102 656 l 75 654 q 53 686 63 654 q -20 727 39 686 l -45 751 l -45 757 l -42 757 q 50 711 -25 739 l 47 724 l 47 743 q 26 781 47 774 q -39 846 -39 831 l -39 854 l -34 860 l -28 860 l 45 800 l 42 860 l 42 903 l 15 952 l 12 963 l 15 963 l 45 933 q 69 1012 47 968 l 75 1012 l 75 1009 l 69 985 l 69 898 l 77 890 q 83 906 77 906 q 121 857 97 901 l 123 854 l 126 854 l 161 917 l 161 920 l 156 925 l 151 920 l 148 920 q 142 928 142 920 l 148 947 q 126 979 126 964 q 140 998 126 990 q 167 963 155 971 q 305 1058 250 1037 m 346 941 q 384 920 355 941 l 387 920 q 395 939 395 920 l 414 944 q 449 917 426 942 l 484 917 l 484 925 l 490 925 l 490 922 l 487 920 l 487 917 l 490 917 l 525 920 l 538 917 q 500 949 531 928 q 468 939 482 939 l 457 939 l 452 944 q 479 966 463 966 l 479 971 l 435 1006 l 433 1006 q 346 941 385 977 m 324 928 q 316 922 324 922 l 313 920 l 313 917 l 338 917 l 324 928 m 183 906 q 161 792 174 906 l 164 784 q 151 727 159 784 l 148 724 l 148 708 l 151 705 l 151 703 q 180 719 180 703 q 251 803 197 803 l 262 808 l 511 808 l 517 803 l 517 800 q 338 496 338 519 l 324 475 l 327 472 q 289 361 306 439 l 289 339 q 351 285 289 293 q 425 358 425 285 q 476 648 449 579 l 525 762 l 585 871 l 585 895 l 574 895 l 552 901 l 408 901 l 416 887 l 465 887 l 560 884 l 560 882 l 563 884 l 566 884 l 571 879 q 533 841 568 841 l 517 836 l 514 833 l 359 841 l 180 838 l 178 841 l 178 857 q 189 892 189 874 l 186 901 l 189 903 l 216 887 l 384 887 l 368 901 l 251 901 l 183 909 l 183 906 m 66 879 l 69 833 l 69 800 l 72 781 l 77 781 q 107 833 107 825 q 66 879 95 855 m 148 849 l 140 825 l 142 822 l 145 822 l 153 846 l 153 849 l 148 849 m 330 833 l 541 827 l 544 825 l 544 822 l 528 814 l 368 817 l 340 817 q 178 800 243 817 l 178 803 l 180 806 l 180 808 l 170 819 q 330 833 170 829 m 579 830 l 579 822 l 590 822 l 590 825 l 585 830 l 579 830 m 118 800 l 110 787 l 113 787 l 121 798 l 126 798 l 126 800 l 118 800 m 175 792 l 189 792 l 194 787 l 194 776 q 172 765 194 769 l 170 768 l 170 787 l 175 792 m 126 770 q 118 762 126 762 q 102 735 118 745 l 96 735 q 75 751 75 739 l 72 751 l 72 743 q 83 722 72 722 q 132 757 111 722 l 132 770 l 126 770 m 389 765 l 389 760 l 397 762 l 397 765 l 389 765 m 522 719 l 525 711 l 571 760 l 568 762 l 563 762 q 522 719 550 755 m 167 751 l 172 751 l 175 749 l 178 749 q 167 730 172 730 l 161 730 l 161 746 l 167 751 m 500 751 l 503 751 l 503 746 q 495 730 495 737 l 490 730 l 490 738 l 500 751 m 278 716 l 278 711 l 281 711 l 286 716 l 286 719 l 278 716 m 259 711 l 259 705 l 262 705 l 273 711 l 273 713 l 270 713 l 259 711 m 305 692 l 302 692 l 300 694 l 297 694 l 224 624 l 270 605 l 273 608 l 273 610 l 270 629 q 357 678 287 658 q 376 703 376 678 l 368 708 q 324 675 341 675 l 321 678 l 321 689 l 332 708 l 327 708 l 305 692 m 479 711 l 484 705 q 476 686 481 686 l 471 686 l 463 694 q 479 711 465 704 m 487 621 q 506 610 506 615 l 492 567 l 492 564 l 495 564 q 544 629 495 583 l 544 635 q 525 670 525 657 q 487 621 497 670 m 446 665 l 460 665 l 465 659 l 460 654 l 446 654 l 441 659 l 446 665 m 449 624 l 449 616 l 425 616 l 419 621 l 422 624 l 449 624 m 509 507 l 509 502 l 511 502 l 511 507 l 509 507 m 308 260 l 308 258 l 313 252 l 316 255 l 316 260 l 308 260 z "},"8":{"ha":637,"x_min":-30,"x_max":624,"o":"m 347 1036 l 358 1036 l 366 1027 l 366 1000 l 372 1000 l 380 1006 q 437 992 409 995 l 439 989 l 439 984 l 434 965 l 437 943 l 442 943 q 461 973 442 958 l 467 973 l 472 968 l 472 954 l 477 954 q 486 962 477 962 q 499 943 499 958 l 499 938 l 491 927 l 491 922 q 505 913 505 920 l 505 905 l 496 873 l 505 873 q 521 886 505 886 l 526 878 q 510 862 526 862 l 510 859 l 515 854 l 532 859 l 534 859 l 545 840 l 545 832 l 543 829 l 543 827 l 548 821 l 548 816 l 537 805 l 529 808 l 529 797 l 545 794 l 545 786 l 537 786 l 529 791 l 521 753 l 521 745 q 510 740 510 745 l 510 737 l 518 737 l 529 745 l 532 745 l 545 732 q 524 686 533 695 l 491 686 l 461 688 l 423 669 q 450 653 424 664 q 461 669 450 665 l 469 669 l 475 664 l 475 656 l 467 645 q 562 493 562 596 l 562 471 q 616 376 593 449 q 624 298 624 349 q 613 281 624 281 q 532 290 532 285 l 534 303 l 529 309 l 526 309 l 513 298 l 488 298 l 483 292 l 494 281 q 477 257 477 264 l 480 257 l 483 254 l 486 254 l 505 260 l 515 241 l 518 241 q 529 273 524 241 l 532 276 l 618 276 l 618 273 q 510 113 618 197 q 486 70 494 73 l 461 86 l 458 86 l 453 75 l 453 59 l 458 37 l 458 35 l 450 35 l 450 48 q 437 78 442 56 q 418 94 422 78 l 415 94 l 407 92 l 407 94 q 391 113 407 105 l 399 124 l 396 127 l 396 140 l 399 143 l 399 146 q 393 154 393 146 q 374 146 385 154 l 366 146 l 342 157 l 342 178 q 320 214 331 214 l 312 214 l 309 211 l 307 211 q 290 243 294 224 l 301 276 l 298 279 l 296 279 l 250 271 l 231 290 l 228 290 l 228 284 l 252 257 l 255 260 l 263 260 l 263 257 l 255 197 l 266 159 l 263 159 q 239 227 239 178 l 239 241 q 201 252 239 246 l 198 233 l 198 230 q 222 214 213 214 l 220 216 l 220 219 l 225 235 l 231 235 q 222 197 231 197 l 225 195 l 225 178 l 220 173 l 217 173 q 190 214 208 214 l 187 214 l 146 211 q 92 233 127 211 q -30 333 -30 268 l -30 355 q 8 412 -30 399 l 27 417 l 22 458 q 33 504 22 474 l 30 526 q 57 572 46 571 l 65 588 l 62 588 q 38 653 38 588 q 79 724 38 704 q 95 745 86 745 l 95 762 l 87 762 q 27 789 27 777 l 27 791 q 68 846 27 806 l 68 851 l 54 867 l 54 878 l 87 919 q 109 957 109 924 q 125 968 109 968 q 171 987 125 985 q 206 1014 206 1006 l 217 1025 q 233 1011 222 1025 q 266 1003 250 1011 l 282 1008 l 290 1008 l 296 1003 l 296 998 l 290 989 q 301 981 290 985 l 358 1006 q 336 1022 348 1006 l 347 1036 m 445 927 l 456 916 l 461 916 l 461 922 l 456 927 l 445 927 m 114 762 l 114 745 q 255 602 114 652 l 255 596 q 87 450 87 555 l 87 447 q 244 300 87 334 l 309 295 q 537 428 480 295 q 545 463 539 457 l 545 517 q 510 588 525 582 q 382 661 450 646 l 382 664 q 445 699 393 675 q 510 805 510 739 l 510 808 q 391 916 510 876 l 317 924 q 125 816 184 924 q 114 762 114 785 m 353 913 l 366 913 q 469 862 412 913 l 472 859 l 472 848 l 469 848 q 412 881 412 848 q 342 908 412 892 l 334 905 l 334 911 l 353 913 m 298 900 l 320 900 q 437 794 437 888 l 437 778 q 363 669 437 715 l 358 669 q 198 781 198 721 l 193 786 l 193 819 q 298 900 223 900 m 212 886 l 214 886 l 214 884 q 174 848 214 852 l 171 857 q 212 886 171 869 m 380 846 l 382 838 l 388 838 l 393 848 l 393 857 l 391 857 l 380 846 m 320 832 l 317 835 l 304 816 q 309 808 309 816 l 304 797 l 309 797 q 350 838 334 810 l 350 843 l 320 832 m 152 840 l 182 840 l 187 835 q 176 808 184 808 l 144 808 l 138 813 q 152 840 138 825 m 380 813 l 382 813 q 407 832 404 825 l 407 838 q 380 813 385 838 m 486 840 l 499 827 l 499 813 l 494 808 l 453 808 q 439 838 445 808 l 442 840 l 486 840 m 214 821 l 214 816 l 217 816 l 217 821 l 214 821 m 222 819 l 222 813 l 269 805 l 271 805 l 271 808 l 233 821 l 222 819 m 350 789 l 350 783 l 353 783 l 363 805 l 366 816 q 350 789 361 816 m 377 805 l 377 800 l 380 800 l 380 805 l 377 805 m 149 802 l 165 802 q 187 789 180 802 l 187 783 q 160 775 187 775 q 122 786 122 777 l 122 789 q 149 802 128 802 m 461 802 l 494 802 l 499 797 l 499 781 l 494 775 q 442 786 442 775 l 442 791 q 461 802 447 802 m 288 797 l 274 772 l 277 772 l 296 786 l 296 791 l 290 797 l 288 797 m 372 797 l 334 745 l 336 743 q 374 794 359 757 l 374 797 l 372 797 m 401 794 l 401 791 l 415 791 l 415 794 l 401 794 m 396 781 l 393 762 l 407 762 l 415 756 l 418 759 l 418 764 l 415 778 l 418 781 l 415 783 l 412 781 l 396 781 m 138 764 q 203 740 203 764 l 201 737 l 127 737 l 122 743 l 122 756 q 138 764 125 764 m 477 764 l 480 762 l 480 748 q 461 737 476 737 l 448 737 l 442 743 l 442 748 q 477 764 450 764 m 391 753 q 382 707 382 726 l 399 724 l 393 729 l 393 734 l 407 732 l 410 734 l 410 748 l 391 753 m 298 740 l 296 726 l 298 718 l 301 718 l 301 740 l 298 740 m 328 715 l 315 718 q 307 710 315 710 l 307 707 l 358 688 l 358 691 l 355 702 l 355 705 l 358 724 l 355 724 q 328 715 342 715 m 184 721 q 250 699 239 721 l 247 696 l 144 696 q 127 718 127 707 l 130 721 l 184 721 m 90 656 l 79 659 q 52 637 58 648 l 52 631 q 73 585 73 618 q 90 558 80 585 l 92 558 l 92 561 l 90 569 q 127 618 116 618 q 149 640 138 618 q 114 680 129 654 q 90 656 102 675 m 266 677 l 304 675 q 315 669 304 669 l 315 664 l 309 664 l 298 667 l 279 664 l 193 664 l 160 669 l 160 675 l 206 675 l 266 677 m 293 634 l 358 634 l 404 631 l 404 626 l 247 626 l 247 631 l 293 634 m 174 623 q 157 618 174 618 q 198 599 159 612 l 198 604 q 174 623 195 612 m 277 591 q 453 501 399 557 q 472 439 472 473 q 372 325 472 359 q 347 319 353 325 l 293 319 l 247 333 q 179 447 179 371 l 179 463 q 277 591 179 556 m 100 547 l 106 547 l 106 545 l 122 553 l 122 561 l 117 561 l 100 547 m 231 463 q 239 458 239 463 l 239 455 l 233 455 l 236 441 l 236 439 l 214 422 l 206 409 l 206 406 l 209 406 q 233 420 217 420 l 252 404 q 279 387 279 404 l 293 387 q 298 401 293 401 l 307 401 l 317 393 l 320 393 q 331 412 320 412 l 331 414 l 328 447 l 342 469 l 342 471 q 323 485 340 479 q 334 531 334 515 l 334 539 l 328 545 l 326 545 l 328 531 l 328 517 l 320 496 l 304 496 l 304 504 l 317 534 l 317 536 l 315 534 l 312 534 l 307 539 l 312 547 l 312 555 q 231 463 231 526 m 315 512 l 312 504 l 317 504 l 317 512 l 315 512 m 347 474 l 350 460 l 345 452 l 345 450 l 361 431 l 361 436 l 358 439 l 358 441 q 369 447 369 441 l 366 450 l 372 455 l 366 463 l 366 469 l 377 485 l 374 488 l 372 488 l 347 474 m 388 447 l 388 444 l 396 444 l 396 447 l 388 447 m 372 444 l 372 433 l 412 422 l 412 431 q 385 444 385 432 l 372 444 m -22 349 q 95 243 -22 273 q 111 298 95 271 l 109 300 l 106 300 l 103 298 l 100 298 q 76 336 76 298 q 62 355 62 342 l 60 355 q 38 347 48 347 q 0 366 17 347 q 19 374 0 374 q 5 398 5 388 q -22 349 -22 382 m 14 398 l 14 395 l 24 385 l 30 385 l 30 390 l 22 398 l 14 398 m 214 387 l 214 382 l 222 382 l 228 387 l 214 387 m 38 385 l 38 374 l 46 371 l 46 374 l 41 385 l 38 385 m 19 360 l 35 357 l 46 360 l 46 363 l 30 368 l 19 360 m 182 298 l 176 284 l 198 273 q 212 284 210 279 q 182 300 212 290 l 182 298 m 122 287 l 119 284 l 119 281 l 125 281 l 146 284 l 146 287 l 122 290 l 122 287 m 133 268 l 141 262 l 152 262 q 163 281 158 262 l 160 281 q 136 273 151 273 l 133 271 l 133 268 m 171 279 q 155 257 168 257 l 155 252 l 187 235 l 190 254 l 190 260 q 174 279 178 279 l 171 279 m 111 273 q 106 265 111 265 l 109 262 l 109 249 l 106 246 l 106 243 l 109 243 q 144 252 144 245 l 114 273 l 111 273 m 366 273 q 358 257 366 266 l 358 246 q 410 184 366 184 l 418 178 q 448 205 443 178 l 445 216 l 448 216 q 385 271 448 252 l 366 273 m 288 265 q 279 241 286 250 q 307 192 300 192 l 315 192 q 320 200 315 200 q 331 176 331 188 q 323 159 328 159 q 271 260 271 172 l 288 265 m 326 243 l 326 233 l 336 233 l 345 241 l 345 246 l 331 249 l 326 243 m 583 243 q 553 176 553 195 l 553 170 l 556 170 l 586 241 l 586 243 l 583 243 m 133 233 l 119 233 l 119 227 l 160 222 l 179 224 l 182 222 l 187 222 l 187 224 l 160 238 l 141 238 l 133 233 m 412 241 l 418 235 l 418 230 l 412 222 l 412 219 q 426 208 420 219 l 420 203 l 412 208 l 407 203 l 399 208 l 391 203 l 385 203 l 385 216 l 388 219 l 385 222 l 385 233 l 393 233 l 396 230 l 412 241 m 334 214 l 336 211 l 347 211 l 353 216 q 345 222 353 222 l 334 214 m 499 197 q 483 189 499 192 l 491 181 l 499 181 l 507 189 l 499 197 m 524 189 l 529 181 l 532 184 l 534 184 l 545 181 l 548 184 l 548 186 q 532 195 545 195 l 529 195 l 524 189 m 347 186 l 358 178 l 363 184 l 363 186 l 358 192 l 353 192 l 347 186 m 269 186 l 274 186 q 323 149 274 167 l 323 146 q 260 111 297 111 l 255 111 q 233 170 233 131 l 233 173 l 239 173 q 298 135 258 135 l 298 146 q 269 186 269 174 m 380 168 l 385 162 l 388 162 l 391 170 l 388 173 l 385 173 l 380 168 m 434 149 l 434 143 q 448 138 434 138 q 464 116 448 130 q 472 135 472 126 l 472 140 q 464 165 472 155 q 434 149 434 154 m 486 146 q 494 130 491 146 l 510 124 q 537 157 522 124 q 521 165 534 165 l 499 165 q 486 146 495 165 m 521 157 l 524 154 l 524 151 q 513 138 518 139 l 507 138 l 507 149 q 521 157 507 155 m 217 154 l 220 154 q 228 130 226 154 q 250 100 245 100 l 258 100 l 298 105 l 293 81 l 293 75 q 317 -3 293 11 q 326 -9 326 -3 l 323 -9 q 220 135 285 -9 l 217 154 m 334 151 l 342 140 l 342 132 q 317 73 326 132 q 358 29 317 54 q 377 16 358 25 q 388 -14 388 1 q 307 40 307 -2 l 304 70 l 304 81 l 331 146 l 328 149 l 331 151 l 334 151 m 350 132 l 369 130 l 372 130 l 385 132 l 385 130 l 355 102 l 353 94 l 374 81 l 374 78 q 353 67 374 71 l 350 75 l 353 89 l 350 92 l 345 92 l 336 75 l 336 73 q 374 43 340 60 q 396 26 382 43 l 404 26 l 418 29 q 439 18 419 18 l 439 16 q 404 -12 425 -12 l 401 -12 q 374 32 401 7 q 328 73 337 53 q 350 132 328 98 m 382 108 l 385 105 l 385 102 q 380 83 383 83 q 363 97 369 87 l 363 100 q 382 108 372 100 m 393 94 l 399 94 q 391 78 396 78 l 388 78 l 388 81 l 393 94 m 412 81 l 415 81 l 415 67 l 420 62 l 429 67 l 431 67 q 426 54 431 54 l 404 70 q 412 81 408 81 m 385 73 l 396 67 l 396 62 l 388 54 l 380 54 l 374 59 q 385 73 380 71 m 410 56 q 418 51 410 51 l 420 48 l 420 45 l 412 37 l 399 37 q 410 56 403 56 m 431 43 l 450 24 l 448 21 l 445 21 q 426 40 427 28 l 429 43 l 431 43 z "},"9":{"ha":796,"x_min":-92,"x_max":904,"o":"m 554 1126 l 557 1126 q 703 1042 643 1126 q 752 966 752 1009 l 752 961 q 682 825 735 884 l 695 785 l 698 785 q 711 814 702 814 q 722 801 722 809 l 728 801 q 760 833 740 833 l 763 833 l 766 831 l 768 831 q 804 866 774 866 q 866 923 804 884 l 885 969 l 885 1002 q 823 1050 861 1050 q 793 1010 797 1010 l 785 1018 l 785 1021 q 850 1069 785 1059 q 904 969 904 1069 l 904 953 q 774 774 904 899 q 717 695 717 707 l 722 671 q 850 782 803 782 l 852 785 l 869 785 q 901 749 901 770 l 901 728 q 844 695 895 695 q 828 703 828 699 l 828 717 l 839 728 l 842 725 l 842 720 l 836 711 l 836 706 l 861 706 q 893 728 878 706 l 893 741 q 863 774 888 774 l 858 774 q 720 641 793 774 l 720 633 q 747 616 720 625 l 749 619 l 763 619 l 771 611 l 771 603 l 766 595 l 766 573 l 758 570 l 760 568 l 760 541 q 741 500 760 532 l 744 484 l 744 478 q 711 424 734 469 q 701 408 707 424 q 684 391 696 391 q 663 375 663 391 q 641 348 657 361 q 633 234 633 281 q 665 112 637 112 l 668 109 l 673 109 q 695 174 690 109 q 671 283 695 225 l 668 283 q 663 267 668 267 l 657 275 q 665 296 657 295 l 671 296 q 703 188 692 296 l 703 147 q 671 98 703 108 q 625 199 631 98 l 625 223 l 619 231 l 619 253 l 625 261 l 625 302 l 622 302 q 597 283 605 283 q 576 74 581 269 l 581 17 l 584 17 l 587 20 l 600 41 l 603 39 q 578 3 603 7 q 565 82 565 28 q 581 277 565 159 l 578 277 q 530 117 556 277 l 527 60 l 527 22 q 570 -102 527 -38 l 573 -105 l 581 -105 l 595 -89 l 595 -78 l 592 -78 l 589 -81 q 576 -100 581 -100 l 573 -92 q 589 -67 573 -77 l 597 -67 l 606 -75 l 606 -83 q 581 -116 606 -116 q 516 20 534 -110 l 516 52 q 532 199 516 127 l 535 199 l 532 201 l 532 204 l 546 245 l 527 242 l 522 242 q 421 275 442 242 l 413 283 l 405 283 q 337 199 337 253 q 367 125 337 125 l 356 142 l 356 144 q 383 174 367 166 l 397 174 q 432 139 432 163 l 432 134 q 391 90 424 90 q 313 180 313 90 l 313 185 q 272 174 300 174 l 269 177 q 245 144 266 144 l 226 144 l 212 117 l 212 115 l 215 104 l 210 85 l 212 82 l 210 47 q 248 -29 224 -29 q 261 -37 248 -34 l 261 -35 l 256 -13 l 256 6 q 286 36 256 28 q 345 -10 345 30 q 299 -75 345 -56 l 275 -78 q 215 -26 215 -56 q 196 82 200 -12 l 199 104 l 199 106 l 196 136 q 220 161 199 161 q 286 253 220 188 l 286 256 l 275 258 q 201 223 251 241 q 177 196 201 212 l 169 196 q 158 210 158 201 l 153 210 q 123 147 140 147 l 120 147 l 104 153 q 74 125 94 125 l 66 128 q 50 66 50 98 l 50 44 l 66 9 l 74 9 q 90 20 74 20 q 136 -18 136 12 q 98 -59 121 -59 q 33 14 45 -59 q 28 52 28 14 l 31 55 l 28 68 l 28 96 q 71 180 53 180 l 93 218 l 90 220 l 79 220 q 20 39 20 163 q 9 14 16 14 q -7 58 3 14 l -5 60 l -16 123 l -5 153 q -16 161 -16 153 l -16 163 q 12 207 -16 178 q 1 218 1 210 q 22 239 1 228 q -62 321 -52 284 q -89 399 -89 353 l -89 424 q -43 535 -89 475 q -92 641 -92 583 l -92 654 q 17 804 -92 742 q 109 825 57 825 l 123 825 l 155 817 l 153 820 l 153 823 l 163 842 l 177 842 l 191 831 l 193 850 l 177 885 l 177 899 q 191 920 177 913 l 193 920 l 204 909 l 201 885 l 207 880 l 218 896 q 210 923 210 896 l 212 931 q 182 947 190 947 q 144 882 157 896 l 139 888 l 177 961 l 177 964 q 136 1034 142 1004 l 139 1037 l 142 1037 l 185 972 l 256 1067 l 283 1091 l 286 1088 q 193 958 193 968 q 223 939 213 939 q 313 1007 303 1007 l 315 1010 q 321 1018 315 1018 l 329 1018 l 345 1007 q 372 1042 345 1017 q 399 1069 372 1050 l 402 1069 l 408 1064 q 353 1002 353 1007 q 378 991 363 1002 l 389 999 l 399 999 q 446 964 425 964 l 473 961 l 454 975 l 446 972 l 446 975 l 448 977 l 448 980 q 432 988 432 983 l 437 994 l 451 991 l 454 991 l 486 1026 l 489 1026 l 494 1021 q 462 985 471 985 l 462 980 l 473 975 l 475 975 l 484 980 q 538 961 517 961 l 546 969 q 551 953 551 969 l 559 953 q 578 961 570 961 q 616 907 601 961 l 649 874 l 652 877 q 687 926 661 911 q 739 956 724 939 l 736 958 l 736 972 l 739 975 l 739 977 l 706 1023 l 695 1031 l 665 1031 q 638 1015 649 1031 l 641 1002 l 644 1002 q 649 1015 649 1002 l 654 1015 l 663 1007 l 663 1002 q 644 980 661 980 q 611 1021 611 985 q 657 1067 626 1067 l 660 1067 l 668 1064 q 562 1116 604 1116 q 508 1083 508 1105 q 524 1064 515 1083 l 524 1061 l 519 1056 l 516 1056 q 492 1099 492 1056 q 554 1126 501 1126 m 842 1059 l 842 1056 q 882 1031 863 1054 l 885 1031 q 850 1059 872 1059 l 842 1059 m 627 1010 l 627 1002 l 630 1002 l 630 1010 l 627 1010 m 188 739 q 307 578 188 618 l 323 576 l 342 573 l 342 578 l 348 578 l 348 570 l 353 570 q 505 633 433 570 l 511 627 l 511 606 q 486 440 511 534 q 408 351 454 368 q 386 342 397 351 l 353 342 q 318 372 318 353 l 318 378 l 340 435 q 288 486 329 486 l 267 486 q 210 429 210 472 l 210 413 q 261 348 222 370 q 367 318 311 318 q 633 546 558 318 q 646 665 644 597 q 535 915 646 838 q 413 947 482 947 q 256 896 319 947 q 188 739 188 836 m 391 937 l 421 937 q 559 877 513 937 l 554 871 l 508 871 q 440 931 466 931 l 421 931 q 321 885 349 931 q 310 871 315 873 l 256 871 l 250 877 q 364 934 300 925 l 391 937 m 416 923 q 511 825 484 923 l 513 782 l 513 768 q 424 614 513 642 l 394 614 q 321 679 345 614 q 313 739 313 699 l 313 787 q 375 915 313 884 q 416 923 385 921 m 245 863 l 310 863 l 315 858 l 315 855 l 302 831 l 231 831 l 226 836 l 226 844 q 245 863 226 863 m 348 861 l 348 855 l 356 855 l 351 861 l 348 861 m 519 863 l 573 863 q 592 836 580 862 l 592 831 l 524 831 q 513 855 513 834 l 513 858 l 519 863 m 361 855 l 361 852 q 370 847 370 852 l 359 839 l 380 823 l 370 820 l 372 817 l 372 804 q 340 793 372 795 l 329 779 q 364 768 329 772 l 364 763 q 326 747 326 758 l 326 741 l 340 739 l 351 739 l 351 736 l 348 728 q 367 717 361 725 q 380 711 380 717 l 370 701 q 397 684 376 684 l 402 692 l 402 701 q 391 725 402 711 l 394 728 q 432 720 427 725 l 456 720 l 467 717 l 481 725 l 484 725 l 492 720 l 492 730 l 489 730 q 424 747 424 739 q 443 758 429 758 l 443 763 l 424 766 l 424 782 q 416 787 424 787 l 408 790 l 405 798 l 413 806 l 413 809 l 397 809 q 424 833 424 829 l 421 836 l 418 836 l 416 833 l 413 833 l 413 847 l 410 847 l 402 842 l 391 842 q 364 855 382 842 l 361 855 m 345 831 l 345 828 l 356 825 l 361 825 l 361 828 l 348 831 l 345 831 m 234 825 l 256 825 q 307 817 299 825 q 275 798 307 801 l 212 801 l 210 804 l 210 809 q 234 825 219 825 m 527 825 l 587 825 q 608 814 607 822 l 608 809 q 581 798 608 800 l 524 801 l 522 804 l 522 820 l 527 825 m -81 665 l -81 622 l -75 614 l -78 611 l -78 608 l -59 568 q -32 543 -37 543 q 90 597 18 597 q 177 557 151 597 q 207 589 184 557 l 226 592 l 239 589 l 239 595 q 193 644 219 604 l 185 652 l 177 652 l 169 646 q 153 671 163 647 l 153 673 l 172 709 l 172 755 l 169 755 q 74 714 138 714 l 66 714 q 20 736 31 714 l 20 744 q 55 763 28 763 l 71 763 q 109 747 109 757 q 93 739 106 739 l 87 739 q 60 749 72 739 l 52 749 q 31 741 33 749 l 31 739 q 66 725 32 730 q 169 779 169 734 q 131 812 169 804 l 128 814 l 82 814 l 17 793 q -75 671 -75 734 l -81 665 m 166 812 l 166 809 l 177 798 l 177 814 l 174 814 l 166 812 m 267 787 q 296 779 296 785 l 296 768 q 280 760 294 760 l 207 760 l 201 766 l 201 779 q 210 785 201 785 l 267 787 m 527 785 l 611 785 q 616 771 616 785 q 625 766 625 771 l 625 760 l 527 760 l 522 766 l 522 779 l 527 785 m 207 744 l 288 744 l 296 736 l 296 728 q 269 717 296 720 l 231 720 l 207 720 l 201 725 l 201 739 l 207 744 m 527 744 l 619 744 l 633 725 l 627 720 l 527 720 l 522 725 l 522 739 l 527 744 m 253 701 q 302 692 276 701 l 302 687 l 207 687 l 207 692 q 253 701 231 701 m 592 701 l 627 692 l 627 687 l 538 687 q 516 695 518 687 l 519 698 l 557 698 l 592 701 m 231 657 l 234 654 l 261 657 l 296 657 l 310 654 l 310 649 l 294 649 l 253 646 q 229 654 229 649 l 231 657 m 527 657 l 535 654 l 568 657 l 600 657 l 627 654 l 627 649 l 608 649 l 554 646 q 527 654 527 649 l 527 657 m 673 614 l 673 611 l 679 611 l 679 614 l 673 614 m -24 538 l -24 535 q 74 505 39 505 l 125 503 l 136 503 l 136 508 l 96 508 q 52 530 71 508 l 52 535 q 66 543 52 541 q 104 530 104 538 q 96 524 104 524 q 66 532 81 532 q 112 516 66 525 l 117 516 q 153 524 123 522 q 169 543 153 532 q 90 587 159 581 q -24 538 29 587 m 462 581 l 462 576 l 467 576 l 473 581 l 473 584 l 462 581 m 462 565 l 462 559 l 465 559 l 465 565 l 462 565 m 418 546 l 432 535 l 443 554 l 443 557 l 418 546 m 448 546 q 424 475 430 510 l 424 473 l 427 473 l 454 538 l 454 546 l 448 546 m 394 535 q 383 527 394 527 l 383 524 l 370 527 l 353 527 l 378 503 l 380 503 l 397 527 l 397 535 l 394 535 m -35 530 q -75 443 -75 469 l -78 443 l -75 440 l -75 432 l -81 424 l -81 402 l -75 394 l -75 383 l -78 380 l -78 378 q -62 337 -73 378 q 39 248 -25 271 l 41 250 l 41 253 q 25 269 25 253 q 52 277 31 277 l 52 280 q -16 372 -16 319 l -16 378 q 47 446 -8 446 l 58 448 q 87 416 86 448 q 47 383 75 383 l 36 383 l 25 394 l 25 397 l 33 405 l 41 394 l 47 394 q 77 416 61 394 l 77 424 q 55 437 70 437 q -5 391 -5 422 l -5 372 q 85 277 -5 312 l 101 277 q 79 307 79 294 l 79 310 l 87 318 l 136 307 l 163 310 l 163 313 q 115 364 143 351 l 109 380 l 109 399 l 104 440 q 128 489 104 452 l 101 489 l 93 494 l 87 494 q -35 530 23 494 m 408 527 q 389 489 408 510 l 402 473 q 421 516 410 500 l 421 522 l 416 527 l 408 527 m 440 459 q 470 527 470 471 l 467 527 q 440 459 463 527 m 410 451 l 410 448 l 418 456 l 416 456 l 410 451 m 462 437 l 462 432 l 465 432 l 465 437 l 462 437 m 421 429 l 421 424 l 427 429 l 421 429 m 378 427 l 378 418 l 380 418 l 386 424 l 386 427 l 378 427 m 386 405 l 389 405 q 399 413 399 409 l 394 413 l 386 405 m 378 405 l 372 399 l 372 397 l 375 397 l 383 399 l 383 405 l 378 405 m 359 399 l 359 394 l 356 391 l 359 389 l 367 391 l 367 399 l 359 399 m 367 296 q 359 275 367 285 l 361 275 l 383 294 l 383 296 l 367 296 m 120 267 q 142 261 142 264 q 196 280 182 280 l 196 286 q 185 294 185 286 q 120 267 136 282 m 253 258 l 253 253 l 256 253 l 264 256 l 264 261 l 261 261 l 253 258 m 104 256 q 87 231 87 239 l 104 231 q 128 253 117 237 l 104 256 m 207 248 l 207 239 l 210 239 l 229 242 l 229 245 l 210 248 l 207 248 m 36 106 l 36 101 l 41 101 l 41 106 l 36 106 z "}," ":{"ha":386,"x_min":0,"x_max":0,"o":""},"!":{"ha":386,"x_min":0,"x_max":0,"o":""},"\"":{"ha":493,"x_min":0,"x_max":0,"o":""},"#":{"ha":772,"x_min":0,"x_max":0,"o":""},"$":{"ha":772,"x_min":0,"x_max":0,"o":""},"%":{"ha":1235,"x_min":0,"x_max":0,"o":""},"&":{"ha":926,"x_min":0,"x_max":0,"o":""},"'":{"ha":265,"x_min":0,"x_max":0,"o":""},"(":{"ha":463,"x_min":0,"x_max":0,"o":""},")":{"ha":463,"x_min":0,"x_max":0,"o":""},"*":{"ha":541,"x_min":0,"x_max":0,"o":""},"+":{"ha":811,"x_min":0,"x_max":0,"o":""},",":{"ha":386,"x_min":0,"x_max":0,"o":""},"-":{"ha":463,"x_min":0,"x_max":0,"o":""},".":{"ha":386,"x_min":0,"x_max":0,"o":""},"/":{"ha":386,"x_min":0,"x_max":0,"o":""},":":{"ha":386,"x_min":0,"x_max":0,"o":""},";":{"ha":386,"x_min":0,"x_max":0,"o":""},"<":{"ha":811,"x_min":0,"x_max":0,"o":""},"=":{"ha":811,"x_min":0,"x_max":0,"o":""},">":{"ha":811,"x_min":0,"x_max":0,"o":""},"?":{"ha":772,"x_min":0,"x_max":0,"o":""},"@":{"ha":752,"x_min":-26,"x_max":728,"o":"m 368 700 l 387 700 q 621 577 522 700 q 672 422 672 500 l 672 404 q 550 180 672 275 l 538 127 q 669 67 612 67 l 675 67 q 714 103 714 75 l 714 106 q 699 136 714 131 q 675 111 675 128 l 677 100 l 675 98 l 671 98 q 660 117 660 104 q 696 151 671 151 l 701 151 q 728 115 722 151 q 672 56 728 64 l 663 54 q 534 111 606 54 q 374 -35 479 -35 q 328 10 328 -30 q 352 56 332 56 l 355 56 q 378 28 370 56 l 378 27 l 374 24 l 371 24 q 359 40 369 24 l 357 42 l 354 42 q 344 10 345 39 q 376 -18 344 -18 q 521 121 471 -18 l 521 123 q 499 151 517 126 q 387 127 441 127 l 368 127 q 133 250 231 127 q 82 404 82 328 l 82 422 q 92 489 82 458 q -22 562 7 489 l -26 585 q 28 653 -26 633 l 38 655 l 46 655 q 61 644 57 655 q 36 607 60 625 l 18 602 l 11 602 q 5 610 6 602 l 36 622 q 50 642 46 631 l 48 644 l 36 644 q -3 616 20 644 l -11 600 l -11 585 q 58 507 -11 532 l 96 502 q 241 668 143 623 q 368 700 305 700 m 161 507 l 162 507 q 280 537 191 507 q 371 575 323 575 q 479 544 410 574 q 517 480 517 517 l 517 473 q 506 421 517 460 q 559 264 559 360 l 561 264 q 619 414 619 351 q 564 557 619 473 q 469 627 524 602 q 376 648 406 648 q 222 590 312 648 q 161 507 176 546 m 135 412 q 190 270 135 354 q 285 200 230 223 q 378 178 347 178 q 479 207 419 178 q 472 273 472 241 l 472 281 l 470 281 q 429 306 445 281 l 427 307 l 426 307 q 332 278 391 291 l 330 276 l 315 276 q 275 302 275 290 q 246 349 268 302 l 241 378 q 306 447 241 414 q 397 462 353 462 q 407 471 407 468 l 407 475 q 378 489 407 489 q 355 494 378 494 l 352 494 q 315 467 339 494 q 299 462 315 464 l 292 462 q 256 487 256 462 l 263 516 l 262 516 q 153 490 176 490 q 135 412 135 434 m 508 399 l 510 372 q 488 288 510 288 l 488 267 q 494 213 488 235 q 545 250 519 224 l 545 271 q 508 399 545 342 m 357 366 q 378 351 360 351 l 385 351 q 405 372 403 351 q 395 382 405 382 l 381 382 q 357 366 357 380 m 515 160 q 527 142 521 144 l 528 142 l 534 168 l 532 168 l 515 160 z "},"A":{"ha":825,"x_min":-73,"x_max":975,"o":"m 169 1127 q 201 1100 201 1127 q 158 1067 189 1067 l 155 1067 l 147 1076 q 177 1097 147 1084 l 180 1100 l 180 1105 l 169 1111 q 131 1097 169 1107 q 71 1032 91 1082 l 71 1021 q 231 916 71 933 l 283 916 l 337 918 q 345 929 338 929 l 361 924 q 372 940 372 926 q 258 1000 258 956 q 291 1038 267 1038 l 296 1038 q 315 997 310 1038 l 307 991 l 299 991 q 291 1019 291 991 q 283 1002 283 1016 q 399 962 283 981 q 443 956 399 956 l 443 959 l 440 978 l 443 981 l 446 981 q 459 959 452 981 l 473 967 l 481 967 l 484 964 l 486 964 l 484 954 q 557 791 489 895 l 606 696 q 649 620 637 621 q 687 609 664 609 q 709 636 705 609 l 692 666 l 679 663 l 676 663 q 663 690 668 663 l 663 696 q 676 707 668 707 q 725 636 725 674 q 682 593 720 593 l 663 593 q 616 609 652 593 l 616 604 q 635 582 625 604 q 739 530 689 530 q 758 563 755 530 l 741 582 l 741 590 l 749 598 q 777 566 774 598 l 777 563 q 725 511 777 511 q 671 525 699 514 l 671 511 l 663 503 l 654 506 l 654 495 q 709 471 654 484 q 730 438 730 454 q 720 430 730 430 l 695 449 l 690 449 l 690 435 q 728 419 690 427 l 730 416 l 733 416 q 809 446 772 446 q 896 408 867 435 q 958 283 958 351 l 958 270 q 866 159 958 190 l 831 156 q 654 232 750 156 l 627 237 l 627 235 q 795 66 710 98 q 871 45 806 56 l 880 47 l 882 45 q 966 94 966 53 l 966 110 q 937 159 966 136 l 942 159 q 975 115 960 149 l 975 88 q 877 39 961 39 l 871 39 q 606 240 730 39 l 603 240 l 581 229 q 538 205 581 222 l 527 205 l 527 208 q 554 229 553 222 l 554 232 l 486 227 l 486 221 q 497 213 497 220 l 462 210 l 462 216 l 489 243 l 489 245 l 478 245 l 486 256 l 478 259 q 462 245 467 256 l 462 243 l 475 243 l 459 224 l 413 270 l 413 289 l 410 305 l 435 335 l 432 357 l 386 324 q 402 305 402 313 q 361 243 390 261 l 291 172 q 207 237 227 196 q 174 254 174 244 l 169 259 l 153 259 q 128 205 144 250 q 106 186 117 186 q 31 210 82 186 l 22 210 q 17 202 17 210 l 14 199 l 12 199 q -73 281 -39 255 l -73 283 q -18 354 -73 309 q 31 392 12 392 l 31 395 l 25 411 q 31 427 31 411 q 77 498 67 454 l 79 500 l 79 503 l 77 528 q 96 544 77 544 l 104 544 q 134 579 104 557 q 153 617 134 606 l 155 617 q 161 604 161 617 l 169 604 q 193 699 182 629 l 196 701 l 196 707 l 193 707 l 172 685 l 166 685 l 158 693 l 158 701 q 172 726 163 726 l 182 726 l 196 718 l 204 720 l 204 723 l 201 739 q 234 810 234 780 l 248 821 l 250 821 l 264 812 q 332 859 296 812 l 329 861 l 329 864 l 332 867 l 332 869 l 326 869 q 286 829 293 829 q 264 850 279 829 q 272 867 266 867 l 277 867 l 291 864 l 296 872 l 296 878 l 291 883 l 283 878 l 277 878 l 280 891 l 248 891 q 63 964 125 891 q 47 1021 47 991 q 144 1124 47 1087 l 169 1127 m 465 948 l 470 943 l 470 948 l 465 948 m 446 937 q 475 878 450 937 l 484 869 l 486 869 l 454 943 l 451 943 l 446 937 m 410 924 l 410 921 q 432 913 432 921 q 451 867 432 892 l 451 861 l 446 856 l 372 856 l 370 859 l 367 859 l 391 910 l 391 916 l 389 916 q 307 753 376 916 l 215 557 l 144 406 q 22 300 103 300 l 22 281 l 28 275 l 283 275 l 283 300 l 280 300 q 172 370 172 300 l 172 381 q 215 487 172 397 l 494 487 q 562 343 517 465 l 562 324 q 484 300 555 300 l 465 300 l 465 281 l 470 275 l 790 275 l 790 300 l 779 300 q 701 349 720 300 l 606 560 q 473 845 533 707 l 429 929 l 410 924 m 315 894 l 315 891 l 321 891 l 321 894 l 315 894 m 345 894 l 345 886 l 351 891 l 351 894 l 345 894 m 380 850 l 410 850 l 418 845 l 454 845 q 470 815 462 845 l 467 812 l 454 815 l 397 812 l 359 812 l 351 821 l 351 826 q 378 848 351 848 l 380 850 m 451 810 q 486 796 486 804 l 486 793 q 413 780 486 780 q 367 804 375 780 l 370 807 l 389 807 l 451 810 m 348 807 l 353 799 l 342 783 l 340 783 q 334 791 334 783 q 348 807 338 802 m 359 788 l 486 517 l 484 514 l 234 514 l 231 517 l 229 517 l 359 788 m 386 769 l 391 769 l 391 766 l 451 769 l 478 769 q 503 755 503 764 l 503 753 q 470 742 503 744 l 397 745 l 383 764 l 386 766 l 386 769 m 557 747 l 557 745 q 565 734 561 734 l 568 734 l 559 747 l 557 747 m 473 728 q 519 715 519 726 q 494 704 515 704 l 446 704 q 408 715 408 707 l 408 718 q 473 728 408 728 m 310 726 l 313 723 l 313 715 l 304 707 l 299 707 l 299 712 l 310 726 m 584 693 l 584 688 q 597 669 593 669 l 597 671 l 587 693 l 584 693 m 505 682 l 532 677 l 532 671 q 473 661 532 662 q 424 677 424 663 l 427 680 l 429 680 l 505 682 m 497 642 l 546 636 l 546 631 l 454 631 l 454 636 l 497 642 m 467 601 l 473 601 l 473 598 l 513 601 l 543 601 l 570 598 l 570 593 l 551 593 l 497 590 l 467 595 l 467 601 m 627 560 l 627 557 q 641 533 635 533 l 644 533 l 649 544 q 630 560 640 544 l 627 560 m 413 457 l 413 452 l 421 452 l 421 457 l 413 457 m 443 438 l 446 427 l 451 427 l 454 435 l 451 438 l 443 438 m 736 406 q 752 378 743 406 l 798 378 l 798 376 l 763 340 q 752 376 759 368 l 749 373 l 741 373 l 733 378 l 722 378 l 720 354 q 744 321 730 328 l 760 338 l 763 338 q 787 327 763 327 l 809 311 l 809 283 l 812 281 l 809 278 l 809 259 q 785 229 789 259 l 795 218 l 793 218 l 777 221 l 777 224 l 782 232 l 752 259 l 720 259 l 720 256 q 747 232 747 237 l 747 229 l 744 229 q 668 259 730 229 l 663 259 l 660 256 l 660 254 q 720 229 680 229 q 755 221 720 225 l 749 229 l 752 229 l 771 227 l 771 221 l 760 221 l 760 218 q 787 208 787 214 q 779 194 784 194 l 749 194 q 828 170 783 170 l 836 170 q 947 262 921 170 l 950 278 q 880 411 950 347 q 812 435 844 435 l 801 435 q 736 406 755 435 m 302 411 l 304 411 l 313 419 l 313 425 q 302 411 307 423 m 283 419 l 283 408 l 286 408 l 286 419 l 283 419 m 484 416 l 484 411 l 486 411 l 486 416 l 484 416 m 258 406 l 256 392 l 267 400 l 261 406 l 258 406 m 272 381 l 275 378 l 275 373 q 267 368 275 368 l 267 365 l 275 365 l 304 370 l 332 362 l 345 362 l 307 400 q 272 381 296 389 m 435 400 l 432 387 l 432 384 l 435 384 l 437 397 l 437 400 l 435 400 m 706 381 l 717 368 l 717 381 l 711 387 l 706 381 m 226 368 l 256 368 l 250 373 l 231 373 l 226 368 m 353 362 l 353 359 l 370 343 l 378 368 l 353 362 m 397 357 l 397 354 l 408 362 l 402 362 l 397 357 m 508 321 l 513 316 q 543 330 543 320 l 538 330 q 508 321 508 330 m 839 297 l 842 297 l 842 292 l 839 292 l 839 297 m 497 259 l 497 254 l 500 254 l 500 259 l 497 259 m 565 232 l 570 227 l 570 232 l 565 232 m 497 213 l 503 213 l 503 208 l 497 213 m 885 153 l 888 153 l 880 145 l 880 148 l 885 153 m 877 142 l 877 137 l 874 129 l 869 129 l 869 132 l 877 142 z "},"B":{"ha":781,"x_min":-157,"x_max":819,"o":"m 526 961 q 543 947 538 958 l 543 945 l 537 937 l 537 934 l 543 928 l 548 928 q 597 958 555 928 l 616 958 q 637 950 636 958 l 637 945 q 608 934 637 934 l 600 926 l 616 920 l 624 920 q 651 931 639 931 q 700 904 665 931 q 738 847 717 896 l 738 842 q 722 823 729 823 l 724 801 l 716 739 l 741 706 l 741 701 q 705 676 741 676 q 632 641 682 676 l 632 638 q 686 619 632 631 l 732 595 q 817 443 787 557 l 814 413 l 814 389 q 787 332 802 350 q 819 291 790 291 q 770 234 819 275 l 770 147 l 762 139 l 754 139 l 749 144 l 749 223 l 746 223 l 724 201 l 724 -186 q 711 -195 724 -193 l 705 -186 l 705 196 l 703 196 q 681 191 694 191 l 681 39 q 667 20 671 20 l 648 20 q 640 36 640 22 l 640 174 l 621 174 l 583 166 l 537 166 l 518 163 q 499 182 507 180 l 496 182 q 437 172 496 176 q 382 158 423 158 l 350 169 l 328 155 l 274 174 l 274 172 q 239 144 274 144 l 250 128 l 250 117 q 201 85 229 85 q 160 112 178 85 q 168 134 168 123 l 165 136 l 149 131 l 138 131 q 111 188 111 152 q 30 229 30 212 q -11 277 -11 262 q -38 294 -37 288 l -38 299 q -8 334 -38 317 l -8 340 l -43 334 q -122 405 -98 334 l -122 416 q -95 443 -95 422 l -95 446 l -98 446 q -155 481 -155 446 l -157 503 q -52 654 -157 613 l -22 660 l -11 657 l 0 657 l -3 660 l -3 663 l 3 684 l 3 690 l 0 690 l -24 684 q -52 728 -36 684 l -52 760 q 35 828 -31 828 q 79 809 58 827 l 103 825 l 103 828 l 98 833 l 90 833 q 84 825 90 825 l 79 833 q 90 858 82 858 l 98 858 l 117 855 l 127 863 l 130 866 l 130 871 l 90 874 l 46 874 l 41 880 l 41 926 l 46 931 l 165 931 l 182 945 l 193 945 q 217 931 203 945 l 274 931 q 317 945 317 933 l 315 953 l 323 958 l 339 958 q 385 931 358 958 l 439 931 q 464 942 455 931 q 505 931 469 933 l 510 939 l 505 945 l 505 958 l 526 961 m 54 909 l 54 896 l 60 890 l 119 890 q 160 861 160 886 l 160 345 q 109 302 160 302 l 62 302 l 54 294 l 54 283 l 60 277 l 456 277 q 732 386 680 277 q 743 440 743 405 l 743 451 q 597 587 743 545 q 524 603 597 591 l 521 606 l 521 616 q 581 635 521 622 q 703 768 703 684 q 513 915 703 895 l 60 915 l 54 909 m 331 904 l 331 899 q 282 858 308 899 l 179 858 q 157 896 157 882 l 138 896 l 133 901 l 136 904 l 331 904 m 486 904 l 510 904 q 635 861 591 904 q 627 855 635 855 l 627 850 l 635 847 l 637 850 q 675 823 675 846 q 637 814 655 814 l 567 817 l 548 839 l 548 842 l 553 847 l 589 847 l 594 852 q 477 893 563 852 l 442 896 l 439 896 l 439 901 l 486 904 m 355 890 l 399 890 q 548 823 524 890 q 556 766 556 794 l 556 763 q 483 633 556 658 q 353 619 453 619 l 301 619 l 301 855 q 355 890 301 890 m 136 863 l 141 858 l 144 858 l 138 863 l 136 863 m 608 855 l 608 852 l 613 847 l 613 855 l 608 855 m 206 852 l 255 852 q 290 844 261 846 l 293 842 l 293 839 l 279 814 l 228 817 l 179 814 l 165 839 q 203 850 171 844 l 206 852 m 98 787 l 103 774 q 136 820 122 774 l 136 839 q 117 793 126 836 q 98 787 111 787 m 231 812 q 293 798 293 809 l 293 795 l 279 777 l 179 777 l 165 798 q 231 812 165 809 m 570 809 l 667 809 q 692 801 682 809 l 689 787 l 689 785 l 692 782 l 692 779 l 689 777 l 570 777 l 564 782 l 564 804 l 570 809 m 30 744 q 57 717 30 728 q 79 728 79 720 l 73 752 l 76 768 l 57 774 q 30 744 30 763 m 141 768 l 141 760 l 144 760 l 144 768 l 141 768 m 203 771 l 236 771 q 285 763 285 771 l 285 755 q 239 744 285 744 q 174 755 174 744 l 174 760 q 203 771 174 767 m 570 771 l 656 771 q 692 763 692 771 l 692 760 q 654 744 692 747 l 567 747 l 564 749 l 564 766 l 570 771 m -33 744 l -33 722 q -8 706 -32 715 q 22 733 22 711 q -5 760 18 760 l -8 760 q -33 744 -23 760 m -95 736 l -90 736 l -62 703 l -62 692 l -90 660 l -92 660 l -119 692 l -119 701 q -95 736 -95 728 m 225 730 q 285 720 285 730 l 285 717 q 260 706 281 706 l 209 706 q 174 714 174 706 l 174 720 q 225 730 174 730 m 610 730 q 675 722 675 730 q 640 703 675 709 l 637 701 l 627 701 l 616 706 q 564 714 564 706 l 564 717 q 610 730 564 730 m 24 711 l 24 695 l 27 695 l 41 706 l 35 717 l 30 717 l 24 711 m 62 687 l 60 690 l 54 690 l 62 663 l 65 663 l 71 668 l 65 673 l 65 682 q 73 663 73 680 l 81 671 q 73 692 73 673 l 68 692 l 62 687 m 46 687 l 46 679 l 41 679 l 41 684 l 35 679 l 38 663 l 38 660 l 33 660 q 24 682 33 682 l 24 671 l 19 671 l 16 682 l 14 682 l 14 665 q 22 649 16 649 l 30 654 l 35 649 l 46 649 l 46 654 l 49 654 l 46 657 l 46 668 l 49 665 l 54 665 q 46 687 53 687 m 220 684 l 231 684 q 285 673 285 683 q 252 663 285 666 l 198 665 l 179 665 l 174 671 q 220 684 174 682 m 575 684 l 632 682 l 635 679 l 635 676 q 610 665 635 670 l 553 665 l 548 671 q 575 684 555 684 m 76 652 l 73 638 l 73 633 l 84 622 l 84 625 l 81 649 l 81 652 l 76 652 m 250 644 q 279 635 279 641 l 279 633 l 195 633 l 182 635 l 182 641 l 209 641 l 250 644 m 537 641 l 543 635 l 540 633 l 521 633 l 515 638 l 518 641 l 537 641 m 179 603 l 187 600 l 220 603 l 252 603 l 279 600 l 279 595 l 269 595 l 209 592 q 179 600 179 594 l 179 603 m 301 595 l 442 595 q 545 559 503 590 q 591 470 591 512 l 594 467 l 594 421 l 575 364 q 420 302 536 302 l 342 302 q 301 337 301 307 l 301 595 m -127 522 q -81 475 -122 475 l -76 475 q -33 516 -33 483 l -33 524 q -68 568 -33 555 l -95 568 q -127 522 -127 548 m -14 497 q 38 448 -14 448 l 52 451 l 52 454 l 46 462 q 62 486 46 475 l 76 522 q 38 543 53 543 l 35 543 q -14 497 -14 534 m -54 437 l -52 435 l -35 440 l -33 440 q -27 432 -27 440 l -24 435 l -22 435 l -27 467 l -38 467 q -54 437 -54 450 m -90 418 l -95 397 l -95 394 l -92 391 l -92 389 l -98 389 l -98 378 l -95 364 l -90 364 l -84 370 l -84 383 q -92 389 -92 383 l -79 389 l -81 391 l -81 402 l -76 410 l -76 413 l -81 418 l -90 418 m -68 416 l -76 367 l -71 356 l -62 359 l -62 356 l -60 345 l -54 345 q -43 370 -46 345 l -60 372 l -60 367 l -65 367 l -60 408 l -62 416 l -68 416 m -46 410 l -57 378 l -43 375 l -41 375 l -41 410 l -46 410 m -30 410 l -35 386 l -35 372 l -24 372 l -24 410 l -30 410 m 30 410 l 30 397 l 33 383 l 35 383 l 46 391 l 62 391 l 62 394 l 60 397 l 33 410 l 30 410 m -11 408 l -14 394 l -14 378 l -5 370 l -3 372 l -3 402 l -8 408 l -11 408 m 3 394 q 11 370 3 382 l 11 367 l 3 367 l 3 359 l 8 353 q 22 378 22 368 l 22 380 q 11 405 22 401 q 3 394 4 405 m 52 359 l 62 351 l 106 351 l 114 345 l 117 345 l 111 367 l 114 378 q 106 391 111 391 l 71 391 q 52 359 52 373 m -35 367 l -35 348 l -30 342 l -27 342 l -24 361 l -24 367 l -35 367 m -14 367 l -14 345 l -11 345 l -3 353 l -3 367 l -14 367 m 735 332 l 730 323 l 732 321 l 735 321 l 741 329 l 738 332 l 735 332 m 195 191 q 220 163 198 163 l 222 163 q 250 182 237 163 l 250 191 l 217 218 q 195 191 195 208 m 130 174 q 155 150 130 162 l 160 150 q 184 172 173 156 l 184 185 q 160 204 176 204 l 155 204 q 130 174 130 204 m 190 158 l 190 139 l 203 144 l 203 147 q 195 163 203 161 l 190 158 m 231 139 l 225 134 l 222 136 l 220 136 l 217 134 l 225 109 l 225 106 l 222 109 q 209 131 214 131 l 198 125 l 201 112 l 195 112 l 193 128 l 190 125 l 187 125 l 190 112 l 190 106 q 184 120 184 106 l 182 123 l 179 123 l 174 117 l 179 96 l 182 96 l 193 98 l 209 90 l 209 104 l 206 106 l 206 109 l 209 112 l 212 112 q 217 101 217 112 l 220 98 l 225 98 l 225 106 l 228 104 l 233 104 q 241 112 233 112 l 244 115 l 244 123 l 231 139 m 228 125 l 231 125 l 236 120 l 236 115 l 233 115 l 228 120 l 228 125 z "},"C":{"ha":760,"x_min":-288,"x_max":957,"o":"m 439 1015 q 596 966 540 1015 l 599 964 l 599 958 l 523 977 l 455 985 l 436 977 l 447 969 l 469 975 l 482 975 q 599 931 517 975 l 621 912 l 645 945 l 683 945 l 694 934 l 694 915 l 691 912 l 691 909 q 707 882 707 899 l 707 877 l 696 844 l 696 828 q 734 741 696 774 l 734 725 l 732 725 l 705 747 l 702 747 l 707 722 l 702 722 l 702 720 l 726 698 q 751 725 731 719 l 767 703 l 767 698 l 764 698 l 745 711 l 743 711 l 743 709 l 745 695 l 743 692 l 740 692 l 734 698 q 705 652 727 678 q 729 638 729 652 l 718 608 l 718 600 q 816 489 723 600 l 827 478 q 810 416 816 460 l 764 329 q 724 294 733 329 l 702 269 l 702 267 l 775 229 l 789 223 l 789 215 l 753 196 l 886 117 q 827 98 886 111 l 827 96 q 957 17 827 92 l 951 17 l 729 71 l 729 74 q 791 125 746 83 q 672 172 781 125 l 669 174 l 669 177 q 707 210 707 205 q 659 223 707 217 q 585 174 631 187 l 583 174 l 640 44 l 637 41 l 583 44 l 583 41 l 659 -138 l 659 -143 l 656 -143 l 574 -116 q 650 -303 650 -292 q 460 -67 604 -252 l 460 -64 l 482 -64 l 564 -62 l 564 -56 l 482 82 l 479 85 l 479 87 q 488 93 479 93 l 550 96 l 550 98 l 509 147 l 485 147 q 425 161 481 153 l 425 158 q 433 134 425 146 l 433 120 l 431 120 l 390 134 l 390 128 l 414 -18 l 412 -18 q 360 14 393 -11 l 357 12 l 385 -138 l 379 -138 l 279 71 l 281 74 l 347 58 l 357 58 l 357 60 l 322 182 l 325 185 q 371 174 366 180 l 374 177 l 376 177 l 338 218 q 322 239 338 228 l 322 242 l 319 242 l 309 234 l 298 234 q 268 258 268 248 l 265 258 q 211 226 222 226 l 208 226 q 121 318 175 231 q 67 307 82 318 l 64 310 l 64 313 l 73 321 l 73 329 l 48 304 q 18 313 18 304 l 59 356 l 56 356 l 13 313 q -22 291 0 313 l -39 291 l -39 296 q 40 380 40 376 l 40 383 l 37 383 q 5 353 37 374 q -50 294 5 348 q -77 310 -63 294 l 24 410 l 24 413 l -82 313 q -93 332 -93 317 l -66 364 l -9 421 l 13 437 l 13 446 l 10 446 q -33 399 -24 416 q -47 389 -39 399 q -98 342 -59 372 l -101 345 q -25 448 -85 400 l -25 451 l -31 451 q -85 399 -75 399 l -123 389 l -125 391 l -125 394 l -20 500 l -20 503 l -22 503 l -134 397 q -144 416 -144 409 l -31 535 l -33 535 l -150 424 l -155 429 l -153 432 l -161 440 q -22 587 -86 524 l -22 589 l -117 497 l -163 456 l -174 470 l -174 475 l -20 635 l -20 638 l -87 576 l -115 549 l -131 562 l -131 565 q -28 668 -51 654 l -22 679 l -25 679 l -139 570 l -147 592 l -147 595 l -131 616 l -131 619 l -144 608 l -147 608 l -147 619 q -136 657 -147 642 l -139 660 l -142 660 q -79 725 -129 725 l -77 722 l -77 720 l -128 665 l -125 665 l -63 725 l -36 720 l -36 714 l -41 714 q -82 668 -41 703 q -106 638 -106 644 q -14 717 -30 717 l 2 728 q 37 785 2 743 q 64 831 37 806 l 67 831 q 73 823 73 831 l 70 814 l 73 812 l 75 812 q 146 915 109 850 q 159 926 154 915 l 154 926 l 119 912 l 113 918 l 113 928 q 159 956 131 956 q 173 939 163 945 l 181 939 q 227 972 200 966 q 292 999 247 972 l 303 999 q 319 991 319 998 l 317 980 l 336 966 l 347 966 l 349 969 l 352 969 l 349 980 q 417 1015 349 1015 l 439 1015 m -74 953 l -39 890 q 24 880 24 887 l -22 831 l -12 766 l -14 763 l -17 763 q -79 795 -72 795 q -136 768 -112 768 l -128 833 l -174 880 q -106 893 -174 885 l -74 953 m 108 749 l 111 747 l 111 744 q 78 646 100 744 l 75 600 l 75 587 q 276 286 75 386 q 417 258 374 258 q 596 313 508 258 q 686 437 686 394 q 699 486 699 456 l 677 486 l 653 424 q 558 318 631 367 q 463 294 523 302 l 460 291 l 431 291 l 366 304 q 276 389 313 330 q 235 603 235 475 q 252 749 235 678 q 246 760 246 749 q 235 741 240 760 l 127 741 l 127 752 q 151 768 136 768 l 154 768 l 249 766 q 355 888 279 836 l 412 907 l 458 907 l 517 888 q 618 795 548 888 q 653 690 653 724 l 669 690 l 686 684 l 675 928 l 656 928 q 615 861 648 924 l 539 907 q 414 928 477 928 q 108 749 220 928 m 395 920 l 406 918 l 428 918 l 428 912 l 406 912 q 290 855 359 912 l 235 855 l 235 858 q 395 920 302 920 m 659 920 l 667 920 l 667 915 l 659 899 l 664 893 l 664 888 l 661 885 l 661 882 q 669 858 668 882 l 667 855 l 631 855 l 626 861 l 650 899 q 659 920 650 919 m 230 850 l 279 850 l 284 844 q 262 812 271 812 l 176 814 l 176 823 q 227 847 191 847 l 230 850 m 664 844 l 669 839 l 669 820 l 661 812 l 623 812 l 596 842 l 599 844 l 664 844 m 382 809 l 382 806 q 412 777 404 806 l 409 777 l 385 793 l 382 793 l 382 695 l 414 695 q 441 823 421 699 l 439 825 l 431 825 q 382 809 398 825 m 534 823 l 534 820 l 539 814 l 539 817 l 534 823 m 441 695 l 450 695 q 469 682 469 695 l 466 673 q 531 785 500 718 q 485 812 501 812 l 460 812 q 447 717 454 812 q 441 695 444 717 m 192 809 q 262 801 250 806 q 224 779 254 779 q 149 790 149 781 q 192 809 149 804 m 664 806 l 669 801 l 669 787 l 664 782 l 648 782 q 626 804 626 782 l 629 806 l 664 806 m 336 777 l 338 749 l 338 682 l 341 682 l 360 695 l 360 787 q 336 777 351 787 m 493 663 q 515 649 500 663 q 572 695 537 659 l 572 728 q 550 771 572 758 q 515 703 543 771 q 493 663 493 672 m 661 768 l 669 760 l 669 747 q 661 741 669 741 q 645 766 651 741 l 648 768 l 661 768 m 325 758 q 303 665 303 734 l 300 611 q 330 741 326 616 l 328 758 l 325 758 m 189 728 q 230 720 230 726 l 230 714 q 211 703 226 703 l 132 703 l 130 706 l 127 703 l 111 703 l 111 725 l 113 725 l 189 728 m 664 725 q 675 706 671 725 l 672 703 l 664 703 l 659 709 l 659 720 l 664 725 m 715 725 l 721 725 q 729 709 729 722 l 724 709 l 710 717 l 710 720 l 715 725 m 615 711 q 623 630 621 699 l 634 641 l 634 644 l 629 652 l 629 671 l 640 684 q 626 720 640 701 l 615 711 m 528 630 l 536 603 l 596 641 l 596 684 l 593 684 q 528 630 549 640 m 157 682 l 168 682 q 227 671 227 680 q 181 660 227 663 l 168 663 l 100 663 l 94 668 q 157 682 94 682 m 653 663 l 659 641 l 645 608 l 648 600 l 645 592 q 677 657 661 597 l 664 665 l 659 665 l 656 663 l 653 663 m 357 657 l 363 657 l 363 663 l 357 657 m 254 660 l 252 649 l 254 646 l 260 646 l 260 660 l 254 660 m 485 641 q 512 557 512 598 l 517 557 l 517 565 l 515 584 l 517 587 q 504 625 514 587 l 488 641 l 485 641 m 157 641 l 216 635 l 216 630 l 92 630 l 92 635 l 157 641 m 325 546 l 328 513 q 344 500 344 511 l 336 497 q 355 470 337 486 l 357 467 l 366 465 l 366 467 l 376 519 l 338 557 q 395 573 395 566 q 417 611 412 611 q 450 565 437 565 l 479 559 l 479 562 q 431 627 479 591 l 398 638 q 328 568 328 625 l 325 546 m 593 619 q 539 587 593 609 l 539 559 l 542 559 q 555 581 548 559 l 572 589 q 591 570 583 585 q 621 600 621 570 l 621 603 l 618 600 l 612 600 q 599 619 608 600 l 593 619 m 138 600 l 170 600 l 211 597 l 211 592 l 97 592 l 97 597 l 138 600 m -123 546 l -120 543 l -120 541 l -174 486 q -180 494 -180 486 q -123 546 -180 536 m 479 543 l 455 516 l 455 511 l 460 503 l 460 497 l 458 494 l 458 492 l 460 489 l 466 489 l 488 527 q 479 543 484 543 m 555 532 l 569 530 l 585 543 l 577 543 q 555 532 557 540 m 528 516 l 520 494 l 534 500 l 534 503 l 531 516 l 528 516 m 371 462 l 404 454 q 444 475 444 459 l 441 475 l 414 486 q 371 462 387 478 m 328 416 l 328 410 q 385 370 357 375 q 349 391 374 381 q 330 416 349 403 l 328 416 m 599 408 l 599 399 l 604 405 l 604 408 l 599 408 m -210 402 q -177 351 -190 351 l -136 345 l -136 342 l -172 304 l -163 256 l -166 253 l -215 277 q -258 253 -245 256 l -261 256 l -253 307 l -288 342 q -234 359 -234 353 q -210 402 -216 402 m 580 359 l 580 356 l 612 389 l 610 391 l 607 391 q 580 359 587 391 m 431 361 l 431 359 l 466 356 q 479 364 479 359 l 479 375 l 431 361 m 534 332 l 534 329 l 539 329 l 539 332 l 534 332 m 124 248 q 170 163 139 230 l 268 147 l 271 144 l 271 142 l 200 74 l 216 -26 l 214 -26 l 124 20 l 35 -26 l 35 -24 l 48 74 l -20 142 q 78 161 -20 150 l 121 245 l 124 248 z "},"D":{"ha":818,"x_min":-233,"x_max":914,"o":"m 380 1451 l 393 1451 q 401 1435 401 1449 q 385 1421 397 1421 q 372 1432 373 1427 l 372 1443 l 380 1451 m 171 1348 q 198 1324 198 1345 q 176 1299 198 1299 l 174 1299 q 146 1321 146 1299 l 146 1332 q 171 1348 150 1341 m 480 1128 l 491 1128 q 507 1107 507 1118 q 486 1088 505 1097 l 483 1088 q 467 1109 467 1095 l 467 1115 l 480 1128 m -90 1107 q -68 1085 -68 1105 l -68 1082 q -95 1055 -73 1055 q -119 1082 -113 1055 l -119 1088 q -90 1107 -115 1107 m 361 1090 q 385 1063 385 1082 q 369 1042 385 1053 l 355 1042 q 334 1063 334 1044 q 361 1090 338 1090 m 168 1042 q 201 1006 197 1042 l 201 1004 q 174 971 201 984 l 163 971 q 136 1001 136 984 l 136 1012 q 168 1042 136 1034 m 361 1028 q 407 985 407 1020 l 410 974 l 399 939 l 434 941 l 472 939 l 475 941 l 475 944 q 467 960 467 947 l 475 966 l 491 966 l 499 960 l 507 966 l 513 966 l 521 958 q 505 952 521 952 l 496 939 l 496 936 l 507 933 l 553 966 l 564 968 l 578 968 l 589 958 q 564 947 589 947 l 562 944 l 562 941 l 567 930 l 572 930 l 600 949 q 686 901 686 922 l 689 884 q 749 819 740 884 l 751 822 l 760 822 q 779 811 774 822 l 779 803 l 770 770 l 770 768 q 784 716 770 749 l 806 716 q 817 662 811 716 q 838 648 823 651 l 838 646 q 827 637 838 637 q 849 610 827 632 l 852 597 l 833 556 q 822 480 831 480 l 825 477 l 825 475 l 819 467 l 819 461 q 849 423 849 442 l 849 415 q 808 380 849 381 l 784 382 q 743 336 784 374 q 662 263 720 291 q 651 247 656 263 l 648 247 q 662 220 648 234 q 692 258 662 258 l 697 258 q 730 225 730 255 q 692 193 730 195 q 665 206 682 193 l 621 187 l 605 193 q 578 174 605 180 q 583 144 583 163 l 583 138 l 581 136 l 581 133 q 613 100 613 128 q 589 79 604 79 l 559 95 q 526 84 541 84 l 524 84 q 458 149 458 88 l 458 160 l 453 165 l 437 165 q 407 125 437 136 l 385 125 q 353 163 363 137 l 353 165 l 358 182 l 350 182 q 296 157 296 165 q 220 84 296 101 q 182 41 220 62 l 163 41 q 127 81 127 57 l 127 95 q 149 130 127 109 q 122 165 149 143 l 122 184 q 152 203 136 203 l 155 206 l 155 209 q 119 252 144 216 q 100 269 100 252 l 84 269 q 68 231 78 269 q 60 206 62 231 l 46 195 l 41 195 l 3 231 l 0 231 q -43 201 -12 201 l -49 201 q -98 250 -98 208 l -98 255 q -57 301 -92 301 q -30 309 -57 307 q 41 382 -30 315 l 49 380 l 49 382 l 52 404 l 46 410 l 46 412 q 57 437 46 422 l 57 475 q 41 505 57 487 q 57 529 41 515 l 73 562 q 68 594 68 569 q -14 632 -14 610 q -52 703 -35 632 l -54 705 l -54 730 l -35 784 q 76 844 10 844 q 98 852 78 852 l 106 852 q 122 876 106 861 l 122 879 l 76 882 l 35 882 l 30 887 l 30 933 l 35 939 l 160 939 l 168 949 l 171 952 l 190 952 l 209 939 l 250 939 q 296 949 296 939 l 296 963 l 307 966 l 307 985 q 361 1028 307 1021 m -122 949 l -111 949 q -76 917 -92 949 l -76 901 q -109 871 -90 871 l -122 871 q -155 903 -155 875 l -155 917 q -122 949 -155 939 m 49 922 l 49 903 l 54 898 l 109 898 q 152 863 152 898 l 152 350 q 87 309 152 309 l 49 309 l 49 290 l 54 285 l 437 285 q 754 458 661 285 q 784 597 784 514 l 784 605 q 575 901 784 817 q 464 922 503 922 l 49 922 m 458 914 q 477 906 477 911 l 475 903 l 434 903 l 429 909 l 458 914 m 125 911 l 323 911 l 323 909 l 293 890 q 279 865 286 865 l 171 865 q 125 906 150 899 l 125 911 m 491 903 l 494 903 q 608 868 581 903 l 608 865 l 597 863 q 491 901 532 863 l 491 903 m 347 898 l 407 898 q 605 762 555 898 l 621 700 l 621 689 l 618 686 l 618 684 l 621 681 l 624 681 l 627 591 q 618 502 627 502 l 621 499 l 621 491 q 608 439 616 486 q 380 309 556 309 l 361 309 q 301 334 301 309 q 293 363 293 334 l 293 854 q 347 898 293 898 m 130 871 l 130 868 l 136 863 l 136 865 l 130 871 m 174 860 l 277 860 l 285 852 l 285 827 l 279 822 l 171 822 l 165 827 l 165 852 l 174 860 m 564 857 l 567 857 l 583 854 l 600 854 l 613 857 q 675 825 666 857 l 673 822 l 594 822 q 564 857 564 848 m 122 849 l 119 830 l 130 830 l 133 844 l 125 849 l 122 849 m 84 844 l 84 841 l 92 841 l 92 844 l 84 844 m 361 844 l 361 841 l 363 838 q 385 825 385 830 l 385 822 l 369 811 l 347 811 l 347 808 q 372 781 347 781 l 382 779 q 412 811 403 779 l 401 825 l 412 844 l 410 844 l 399 836 l 366 844 l 361 844 m 171 817 l 279 817 l 285 811 l 285 789 l 279 784 l 171 784 l 165 789 l 165 811 l 171 817 m 678 817 q 705 800 694 817 l 705 792 q 681 784 705 784 l 681 779 l 705 779 q 730 765 730 773 l 730 762 q 670 751 730 753 l 646 751 q 610 776 610 756 l 613 779 l 624 776 l 675 779 l 675 784 l 632 784 l 621 787 l 610 784 q 594 814 594 804 l 597 817 l 678 817 m 439 765 q 434 773 434 765 l 431 773 l 423 768 l 418 768 q 410 779 411 768 q 355 749 397 779 q 317 724 340 749 l 312 724 l 312 722 l 315 708 l 317 708 l 377 697 q 426 730 395 730 q 486 670 486 723 q 431 616 486 630 l 423 616 q 388 629 408 616 l 382 621 l 385 600 l 382 578 q 407 564 391 578 l 423 564 q 450 556 437 564 l 453 559 l 450 562 l 450 564 q 521 635 462 635 q 589 594 557 635 l 608 613 l 608 637 l 589 637 l 586 640 l 583 640 l 586 654 l 586 667 l 553 659 l 540 659 q 488 711 488 669 l 488 719 q 526 773 488 751 l 526 776 l 502 806 l 499 803 l 496 803 q 469 811 476 806 l 467 811 q 448 765 458 811 l 439 765 m 863 806 q 914 757 895 806 l 914 743 q 868 700 892 700 l 849 700 q 808 746 818 700 l 808 749 q 841 800 808 789 l 863 806 m 171 779 l 250 779 q 285 770 285 779 l 285 762 q 250 751 285 753 l 168 754 l 165 757 l 165 773 l 171 779 m 241 738 q 285 730 285 736 l 285 724 q 260 713 281 713 l 171 713 l 165 719 l 165 730 l 171 735 l 241 738 m 632 735 l 746 735 q 754 719 746 728 l 749 713 l 632 713 l 627 719 l 627 730 l 632 735 m 225 692 l 231 692 q 282 681 282 692 q 222 670 282 671 q 168 681 168 671 q 225 692 168 692 m 689 692 l 703 692 l 713 689 l 716 692 q 762 681 762 689 q 735 670 747 670 l 640 673 l 635 678 q 689 692 635 692 m 361 646 l 377 640 l 377 643 l 372 662 q 361 646 361 656 m -187 656 q -144 616 -144 643 l -144 597 q -179 564 -153 575 l -195 564 q -233 608 -233 585 q -187 656 -233 642 m 247 651 l 279 646 l 279 640 l 190 640 l 171 643 l 171 648 l 206 648 l 247 651 m 705 651 l 768 646 l 768 640 l 640 640 l 640 646 l 705 651 m 171 610 l 176 610 l 176 608 l 222 610 l 247 610 l 279 608 l 279 602 l 263 602 l 203 600 q 171 608 171 602 l 171 610 m 681 610 l 727 610 l 760 608 l 760 602 l 648 602 l 648 608 l 681 610 m 84 594 l 84 591 l 90 591 l 90 600 l 84 594 m 594 570 l 594 553 l 583 526 l 586 524 l 591 524 l 608 551 l 608 564 l 597 570 l 594 570 m -30 553 l -16 553 q 30 505 18 553 l 30 491 q -24 439 30 451 q -84 502 -71 439 l -81 505 l -79 505 l -81 507 l -81 513 q -30 553 -61 553 m 469 513 l 461 491 l 486 491 q 543 439 526 491 l 543 426 l 559 426 q 567 415 567 426 l 575 415 l 575 418 q 545 461 575 427 l 545 467 l 548 469 l 551 469 q 578 445 560 469 l 583 450 l 559 477 l 559 491 l 564 499 l 562 502 l 559 502 q 524 491 543 491 q 469 513 490 491 m 391 469 q 380 456 391 463 l 377 448 l 380 437 l 380 434 l 374 429 l 369 429 l 361 434 l 353 423 l 353 420 l 374 388 l 380 388 q 399 396 390 396 l 426 396 l 418 429 l 426 467 l 423 467 l 391 469 m 540 412 q 496 372 540 382 l 496 369 q 515 355 505 355 q 564 401 523 355 l 543 412 l 540 412 m 65 372 l 54 374 l 54 372 q 106 355 54 361 l 106 358 q 87 401 102 401 l 84 401 q 68 372 77 401 l 65 372 m 361 388 l 361 382 l 366 377 l 372 385 l 369 388 l 361 388 m 345 385 l 345 382 l 342 355 l 345 353 l 353 361 l 355 361 q 347 385 353 385 l 345 385 m 456 369 l 456 366 l 464 339 l 472 339 l 477 345 l 477 350 l 472 358 l 475 361 l 475 363 l 467 369 l 456 369 m 342 350 l 342 347 l 350 339 l 350 345 l 345 350 l 342 350 m 773 309 l 779 309 l 787 301 l 787 296 l 779 288 l 776 288 l 768 296 l 768 304 l 773 309 m 608 282 l 613 282 l 613 288 l 608 282 m 326 114 l 328 114 q 350 92 350 114 l 350 90 q 328 62 350 62 l 317 62 q 301 95 301 70 q 326 114 309 114 m 648 62 l 670 62 q 692 30 692 55 q 659 0 692 7 q 629 30 629 5 l 629 35 q 648 62 629 53 m 499 41 l 510 41 q 540 3 540 41 q 505 -24 531 -24 l 499 -24 q 469 8 477 -24 l 469 14 q 499 41 482 41 m 90 -11 l 98 -11 q 106 -27 106 -14 l 106 -30 l 100 -35 l 87 -35 l 81 -30 l 81 -27 q 90 -11 83 -11 m 293 -68 q 326 -106 326 -77 l 326 -109 q 290 -141 326 -134 l 288 -141 q 255 -109 255 -134 l 255 -100 q 293 -68 263 -68 z "},"E":{"ha":751,"x_min":-300,"x_max":793,"o":"m 441 1571 l 444 1571 q 579 1440 507 1571 q 593 1364 593 1404 l 593 1340 q 481 1175 593 1238 q 346 1139 406 1139 l 343 1139 l 343 1134 q 373 1063 365 1095 l 373 1004 l 376 1004 q 598 941 423 1004 l 631 941 l 674 944 q 690 909 686 944 q 739 814 739 841 q 761 730 745 814 l 758 730 l 731 751 l 731 749 l 734 724 l 696 757 l 693 754 l 693 751 q 734 719 699 739 l 736 705 q 669 648 687 648 l 650 648 q 593 689 640 648 l 590 686 l 593 654 l 593 600 l 590 559 l 666 624 q 726 594 726 612 q 783 534 731 594 l 793 526 q 739 431 783 479 l 723 385 q 709 361 718 385 l 709 345 q 785 277 785 294 q 715 212 748 248 l 696 198 q 576 222 595 212 l 560 222 q 525 195 538 195 l 522 195 q 487 201 499 195 l 435 198 l 430 198 l 365 201 l 316 179 l 300 182 l 294 182 l 294 179 q 311 141 311 158 q 189 -54 311 1 q 180 -60 180 -54 q 243 -95 201 -95 q 275 -76 275 -95 q 308 30 286 6 q 349 54 334 54 q 387 19 387 41 l 387 5 q 294 -98 387 -38 q 281 -109 286 -98 l 281 -117 q 332 -187 281 -176 l 335 -190 l 378 -174 q 397 -149 378 -163 l 400 -149 l 400 -152 l 387 -168 l 389 -168 l 408 -152 l 414 -152 l 414 -155 q 378 -182 410 -163 l 378 -190 l 376 -190 l 368 -184 q 330 -195 368 -193 q 278 -141 278 -178 l 270 -122 l 270 -109 l 251 -111 l 227 -111 q 161 -62 197 -111 l 118 -65 l 126 -76 l 123 -79 q 56 -60 100 -60 q -113 43 -18 -46 q -178 209 -178 133 q -123 366 -170 305 q 18 439 -56 439 l 42 439 l 45 442 l 47 442 l 45 445 l 45 483 q 58 502 45 498 q -23 605 34 576 q -88 616 -55 616 l -91 616 q -300 513 -220 616 l -300 518 q -213 624 -281 568 q -66 675 -137 675 l -37 675 q 42 662 -4 675 l 45 662 l 45 665 q -31 768 12 673 q -42 836 -42 806 l -42 846 l -61 849 l -64 849 q -273 751 -197 849 l -278 741 l -283 741 l -283 743 q -161 876 -245 829 q -34 911 -88 911 q 77 1096 -2 1039 q 210 1150 127 1139 q 254 1156 210 1156 q 58 1256 163 1256 l 42 1253 l 42 1259 l 102 1264 l 104 1264 q 324 1158 244 1264 q 568 1289 503 1158 q 582 1362 582 1322 q 487 1544 582 1463 q 441 1563 456 1563 l 433 1563 q 384 1533 408 1563 q 357 1454 357 1496 l 351 1454 q 395 1557 351 1510 q 441 1571 413 1571 m 354 1449 l 359 1449 l 370 1413 q 354 1443 354 1429 l 354 1449 m 370 1413 l 373 1413 l 373 1408 l 370 1408 l 370 1413 m 381 1402 l 400 1402 l 400 1397 l 387 1397 l 381 1402 m -4 909 l 28 903 l 28 936 l 34 941 l 156 941 q 202 958 168 954 l 229 952 l 270 990 q 289 1053 289 1024 l 289 1066 q 267 1134 289 1102 q 115 1093 194 1134 q 42 1017 67 1059 q -4 909 6 960 m 498 1001 q 612 958 568 1001 q 604 952 612 952 q 492 993 533 966 l 492 996 l 498 1001 m 422 963 l 425 960 l 425 955 l 416 944 l 419 941 l 528 941 l 528 944 q 454 968 496 968 l 422 963 m 229 949 l 227 947 l 227 941 l 235 941 l 235 944 l 229 949 m 47 925 l 47 901 l 118 901 q 156 865 156 896 l 156 350 q 88 312 156 312 l 47 312 l 47 288 l 688 288 l 690 290 l 693 290 l 701 521 l 674 521 q 625 391 674 471 q 514 320 557 320 q 427 312 490 312 l 373 312 q 294 355 294 312 l 294 597 l 302 605 l 316 605 q 468 515 446 605 l 476 464 l 490 467 l 495 467 l 498 464 l 500 464 l 503 467 l 503 754 l 481 754 q 465 703 473 754 q 397 637 429 637 q 351 627 397 632 l 349 624 l 302 624 l 294 632 l 294 857 q 332 901 294 894 l 473 901 q 617 819 568 901 q 650 716 638 783 l 677 716 l 666 922 l 663 925 l 47 925 m 134 914 l 319 914 l 319 911 q 283 868 289 895 l 172 868 l 170 871 q 134 911 161 894 l 134 914 m 500 914 l 652 914 l 652 911 l 650 903 l 661 887 l 650 868 l 590 868 q 503 909 564 897 l 500 909 l 500 914 m 85 884 l 85 882 l 107 863 l 113 863 q 126 876 113 876 l 126 882 l 85 884 m 530 871 l 544 846 l 555 849 l 571 846 l 571 852 q 530 871 538 871 m 172 863 l 278 863 l 286 854 l 286 830 l 281 825 l 172 825 l 167 830 l 167 857 l 172 863 m 688 857 l 688 854 l 693 849 l 693 852 l 688 857 m 661 857 l 661 836 l 663 833 l 663 830 l 650 825 q 606 854 625 825 l 609 857 l 661 857 m -9 841 l -9 838 q 75 684 -9 750 l 77 686 l 80 686 l 91 684 q 66 768 85 728 q 1 836 39 819 l -9 841 m 552 838 l 552 836 q 563 814 555 815 l 568 814 q 590 822 580 822 l 590 827 q 552 838 590 833 m 595 819 l 593 806 l 593 803 l 598 795 l 598 773 l 601 760 l 598 760 l 601 732 l 625 757 l 601 819 l 595 819 m 172 819 l 281 819 l 286 814 l 286 792 l 281 787 l 172 787 l 167 792 l 167 814 l 172 819 m 661 819 l 661 787 l 650 787 q 631 817 640 789 l 633 819 l 661 819 m 704 789 q 720 762 711 768 l 723 762 l 723 765 q 712 795 719 795 l 709 795 l 704 789 m 172 781 l 251 781 q 286 773 286 781 l 286 765 q 251 754 286 756 l 170 757 l 167 760 l 167 776 l 172 781 m 658 781 q 663 773 663 781 l 661 754 l 655 754 l 650 760 q 658 781 650 780 m 579 760 l 579 757 q 590 719 584 719 l 598 727 l 582 760 l 579 760 m 243 741 q 286 732 286 739 l 286 727 q 262 716 283 716 l 172 716 l 167 722 l 167 732 l 172 738 l 243 741 m 490 741 l 495 732 l 492 716 l 490 716 l 484 722 l 484 730 l 487 732 l 487 735 l 484 738 l 487 741 l 490 741 m 609 722 l 614 716 l 617 716 l 631 730 l 631 732 l 625 738 l 609 722 m 606 700 l 644 670 l 677 678 l 677 684 l 671 689 l 661 689 l 642 686 l 617 711 l 606 700 m 232 694 q 283 684 283 694 q 227 673 271 673 q 167 684 167 674 q 232 694 167 694 m 484 694 l 495 686 l 495 681 q 484 673 495 677 q 468 681 468 676 l 468 686 q 484 694 468 692 m 248 654 l 281 648 l 281 643 l 186 643 l 172 646 l 172 651 l 208 651 l 248 654 m 492 651 l 492 643 l 444 643 l 438 648 l 441 651 l 492 651 m 172 613 l 178 613 l 178 610 l 218 613 l 251 613 l 278 610 l 278 605 l 264 605 l 205 602 q 172 610 172 604 l 172 613 m 416 613 l 452 613 l 481 610 l 490 613 l 490 610 q 468 602 490 605 l 406 605 l 403 605 l 403 610 l 416 613 m 64 442 l 64 439 l 69 434 l 75 439 l 72 442 l 64 442 m -142 206 q -83 60 -142 142 q 56 -27 -11 -11 l 58 -27 l 58 -24 q 9 65 28 14 l 12 68 q -7 168 -3 79 l -7 193 l -4 233 l -53 279 q -45 309 -51 303 l -47 317 l 28 393 l 28 396 l 26 399 l 26 401 q -113 315 -52 401 q -142 206 -142 234 m 75 174 l 66 174 l 56 92 l 56 79 q 94 -35 56 19 l 123 -38 l 126 -38 l 145 -35 q 123 60 123 26 l 123 79 l 129 84 l 126 87 l 126 95 q 156 160 145 157 l 175 187 l 175 190 l 161 193 l 134 193 l 75 174 m 145 60 l 145 54 q 167 -30 145 -7 l 170 -30 q 264 49 214 -30 q 286 141 286 87 q 245 179 280 179 l 216 184 q 156 125 191 184 q 145 60 145 94 m 335 41 q 292 -38 305 22 l 283 -84 l 283 -87 q 376 16 376 -34 q 335 41 376 41 z "},"F":{"ha":732,"x_min":-309,"x_max":751,"o":"m 217 1291 l 220 1289 l 220 1286 l 212 1278 l 214 1264 l 214 1031 l 347 1031 l 347 1023 l 214 1023 l 214 936 q 233 925 219 925 l 274 925 q 331 941 310 941 l 347 941 l 374 936 l 374 939 l 372 947 l 393 952 l 401 952 q 439 941 439 949 l 439 939 q 415 928 418 939 l 415 925 l 458 925 l 458 928 l 445 941 l 445 944 l 456 944 l 502 947 l 502 952 q 453 966 469 966 l 388 955 q 361 971 371 955 q 429 998 361 992 q 529 985 516 998 l 578 966 q 640 944 589 966 l 651 955 l 678 955 q 713 920 699 941 l 713 914 l 703 903 q 697 911 697 903 l 692 911 l 692 895 q 735 833 692 880 l 741 800 l 738 789 l 751 749 l 751 727 q 735 703 745 711 l 741 697 l 686 643 l 678 643 l 646 646 l 640 613 l 643 594 l 635 586 l 635 583 q 643 537 643 557 l 643 524 q 629 486 643 508 l 629 483 q 640 445 635 477 l 524 331 l 518 331 q 505 336 505 331 l 486 334 l 475 334 l 475 326 q 502 288 502 299 l 502 263 q 418 184 427 184 l 342 206 l 334 206 q 315 182 326 203 l 301 179 q 271 184 282 179 l 214 179 l 214 -11 l 347 -11 l 353 -16 l 350 -19 l 214 -19 l 214 -193 l 209 -198 l 209 -168 l 206 -160 l 209 -146 l 209 -19 l 73 -19 q 60 -138 60 -102 l 60 -160 q 100 -228 60 -228 l 103 -228 q 152 -179 146 -228 l 152 -174 l 141 -163 q 111 -203 111 -168 l 114 -212 l 111 -214 l 109 -214 q 100 -190 100 -204 q 133 -152 100 -160 l 146 -152 q 163 -179 163 -163 q 100 -241 154 -241 q 49 -182 57 -241 l 43 -149 l 46 -103 q 62 -19 51 -103 l -3 -19 q -27 -206 -27 -87 q 30 -391 -23 -353 q 46 -369 46 -385 l 46 -358 l 41 -353 l 30 -355 l 27 -353 l 27 -345 q 38 -336 27 -338 q 60 -361 60 -343 l 60 -369 q 27 -401 52 -401 l 19 -401 q -30 -309 -12 -383 l -41 -266 l -41 -244 l -38 -241 l -38 -239 l -43 -233 l -43 -214 l -41 -119 q -27 -43 -36 -119 l -19 -19 l -46 -19 l -46 -114 l -52 -119 l -54 -117 l -54 -19 l -309 -19 l -309 -11 l -54 -11 l -54 241 l -252 241 l -258 247 l -255 250 l -54 250 l -54 315 q -103 377 -103 348 q -144 410 -103 384 q -212 496 -199 459 l -217 502 q -225 507 -225 502 l -220 513 q -231 559 -231 538 l -231 589 q -168 749 -231 677 l -155 757 l -155 762 l -220 762 l -220 770 l -149 770 l -87 781 l -60 770 l -54 770 l -54 1023 l -198 1023 l -198 1031 l -54 1031 l -54 1180 l -49 1185 l -46 1183 l -46 1031 l 203 1031 l 209 1036 l 209 1058 l 206 1069 l 209 1088 l 209 1261 l 206 1272 l 209 1280 l 206 1280 l 201 1286 l 217 1291 m -46 1017 l -46 770 l 76 770 q 87 779 76 779 l 100 789 q 92 806 100 804 l 90 806 q 81 792 87 792 l 76 798 l 76 822 l 87 841 l 98 841 q 103 833 103 841 l 106 830 l 109 830 l 117 838 l 114 841 l 114 854 q 122 860 114 860 l 122 865 l 81 868 l 35 868 l 30 873 l 30 920 l 35 925 l 155 925 q 190 941 170 938 l 201 939 l 203 939 l 209 944 l 209 1023 l -41 1023 l -46 1017 m 43 903 l 43 890 l 49 884 l 114 884 q 157 833 157 884 l 157 358 q 114 298 157 298 l 98 296 l 49 296 l 43 290 l 43 271 l 415 271 l 415 296 l 361 296 q 296 336 301 296 l 296 586 l 301 591 l 366 591 q 445 559 402 591 q 486 472 474 536 l 488 469 l 488 456 l 513 456 l 513 741 l 488 741 q 431 637 470 669 q 358 616 391 616 l 301 616 l 296 621 l 296 849 q 334 884 296 876 l 475 884 q 629 789 591 884 q 651 700 643 762 l 665 703 l 670 703 l 673 700 l 675 700 l 678 703 l 673 909 l 49 909 l 43 903 m 130 898 l 320 898 l 320 895 q 285 852 292 881 l 168 852 q 157 879 165 852 q 130 892 142 892 l 130 898 m 518 898 l 659 898 l 659 884 l 667 868 q 659 852 659 868 l 629 852 q 548 882 602 852 q 518 892 528 892 l 518 898 m 689 873 l 692 860 l 692 827 l 689 825 l 689 822 l 700 822 l 705 833 l 694 873 l 689 873 m 496 865 l 496 863 l 521 857 l 532 857 l 532 860 l 499 865 l 496 865 m 133 844 l 136 841 l 141 841 l 141 852 l 133 844 m 171 846 l 279 846 l 288 838 l 288 817 l 279 808 l 171 808 l 163 817 l 163 838 l 171 846 m 621 846 l 624 846 l 632 841 l 654 841 q 670 833 670 840 l 654 808 l 635 808 q 624 827 629 808 l 613 838 l 621 846 m 583 822 q 600 798 583 808 l 602 798 q 589 822 596 822 l 583 822 m 694 819 l 689 811 l 694 806 l 694 732 l 719 708 l 724 708 q 713 768 713 737 l 713 784 l 722 779 l 724 781 l 724 787 l 713 811 l 713 819 l 711 819 l 711 814 l 713 789 l 711 789 q 697 819 702 789 l 694 819 m 119 770 l 125 770 q 133 800 133 770 l 133 811 l 130 811 q 119 770 122 811 m 168 803 l 282 803 l 288 798 l 288 776 l 282 770 l 171 770 l 163 779 l 163 798 l 168 803 m 637 803 l 659 803 l 667 795 l 667 789 q 659 770 659 781 l 651 770 l 637 789 l 637 803 m 616 773 l 616 768 l 613 768 q 621 746 616 746 l 624 746 l 618 773 l 616 773 m -206 575 q -187 510 -206 534 l -130 510 l -130 551 q -87 610 -116 595 l -54 621 l -54 719 q -87 708 -60 713 q -106 722 -104 713 q -73 735 -106 732 l -71 738 l -71 749 q -90 762 -79 762 q -195 659 -149 762 q -206 575 -206 607 m -46 762 l -46 621 l -35 621 q -11 600 -11 621 l -11 575 q -46 537 -18 537 l -46 510 l -8 513 l 43 510 l 41 534 q 54 562 41 555 l 65 559 q 79 575 79 564 l 68 589 q 79 637 71 637 l 68 692 q 81 711 75 709 l 95 708 q 125 760 122 732 l 125 762 l 117 762 q 103 738 117 749 q 73 762 86 743 l -46 762 m 171 765 l 255 765 q 288 754 288 765 l 288 751 q 250 738 288 741 l 165 741 l 163 743 l 163 757 l 171 765 m 656 762 q 670 743 670 758 l 665 738 l 656 738 l 651 743 l 651 757 l 656 762 m 247 724 q 288 713 288 722 l 288 711 q 260 700 288 703 l 195 700 l 184 703 l 174 700 l 168 700 l 163 705 l 163 716 q 171 722 163 722 l 247 724 m 624 722 l 624 708 l 629 708 l 632 722 l 624 722 m 494 722 l 502 722 l 502 705 l 496 700 l 494 703 l 494 722 m 136 713 l 136 700 l 141 700 l 141 713 l 136 713 m 589 684 l 589 678 q 618 651 589 657 l 627 654 l 627 656 q 602 667 627 664 l 597 684 l 589 684 m 233 678 l 282 673 l 282 667 q 222 656 282 658 q 168 667 168 659 q 233 678 168 678 m 499 678 l 502 675 l 502 665 l 496 659 l 475 659 l 472 662 l 469 662 q 499 678 469 675 m 545 637 l 548 627 l 553 632 l 548 637 l 545 637 m 247 637 l 282 632 l 282 627 l 187 627 l 174 629 l 174 635 l 198 635 l 247 637 m 453 637 l 472 635 l 499 635 l 499 632 l 494 627 l 445 627 l 439 632 l 453 637 m -46 605 l -46 562 l -41 562 q -27 583 -27 568 l -27 597 q -46 605 -27 603 m -106 515 l -100 510 l -54 510 l -54 537 l -65 551 l -65 559 q -54 567 -65 566 l -54 602 q -106 545 -91 602 l -106 515 m 174 597 l 179 597 l 179 594 l 212 597 l 258 597 l 277 594 l 277 589 l 274 589 l 201 586 q 174 594 174 588 l 174 597 m 496 597 l 502 591 l 499 589 l 426 589 l 420 594 l 423 597 l 496 597 m 71 543 l 68 515 l 68 510 l 79 507 l 81 510 l 81 515 l 76 524 l 76 543 l 71 543 m -184 496 q -109 418 -140 434 l -106 437 l -106 442 q -127 494 -106 452 l -125 496 l -125 499 l -127 502 l -179 502 l -184 496 m -100 499 q -87 477 -96 484 l -62 502 l -95 502 l -98 499 l -100 499 m -46 488 l -46 429 q 22 401 -46 419 l 57 399 q 76 418 71 399 l 81 418 q 87 410 87 418 l 95 410 l 98 429 l 98 431 q 79 502 89 502 l 30 502 l 30 491 q -3 453 26 453 q -16 469 -16 458 l -8 475 l 11 472 l 16 494 l 16 499 l 3 502 l -5 502 q -46 488 -46 499 m -81 461 q -54 431 -81 454 l -54 486 l -57 486 q -81 464 -76 478 l -81 461 m -92 429 l -92 404 l -54 391 l -54 396 l -92 429 m -46 393 l -46 388 l -22 382 l -16 382 l -16 385 l -46 393 m -11 382 l -11 377 l -8 377 l -8 382 l -11 382 m 71 374 l 73 372 l 73 361 l 71 342 l 103 342 l 109 347 q 100 380 100 357 l 100 382 l 71 374 m 0 380 l 0 374 l 11 374 l 11 380 l 0 380 m -87 374 l -87 372 q -54 334 -87 356 l -54 361 q -87 374 -54 366 m -46 361 l -46 328 l -30 326 l -3 355 l -46 361 m 464 342 l 464 334 l 469 334 l 469 336 l 464 342 m -46 241 l -46 -11 l -16 -11 q 57 141 14 82 l 71 160 q 41 174 71 165 l 38 171 l -33 241 l -46 241 m 182 184 q 92 41 136 137 l 76 -8 l 79 -11 l 203 -11 l 209 -5 l 209 176 q 182 184 209 182 m 130 163 l 100 168 q 0 -11 47 131 l 65 -11 q 138 149 65 26 q 163 182 163 173 q 130 163 144 165 z "},"G":{"ha":847,"x_min":-354,"x_max":937,"o":"m -129 1237 l -126 1237 l -126 1232 l -129 1232 l -129 1237 m -121 1221 l -115 1221 l -115 1215 l -121 1215 l -121 1221 m 430 1218 l 441 1218 q 517 1142 517 1208 l 517 1137 q 387 1031 517 1049 l 368 1031 l 335 1034 q 313 998 335 1022 l 408 1012 l 433 1006 l 446 1006 l 454 1012 l 465 1012 l 479 998 l 479 996 l 425 996 l 425 987 q 463 977 425 979 q 490 998 479 998 q 522 974 522 998 l 533 963 l 555 963 l 541 977 l 541 982 l 547 982 q 601 939 576 982 l 598 936 l 582 936 l 582 933 l 614 906 l 617 906 l 647 944 l 685 944 q 693 920 690 944 l 690 920 q 704 890 693 900 l 709 868 l 709 857 l 707 844 l 704 844 l 701 846 l 699 846 l 696 844 l 696 838 l 701 833 l 704 833 l 704 838 l 707 838 q 772 711 729 838 l 769 708 l 766 708 q 704 754 736 736 l 704 751 l 707 743 l 704 743 l 707 735 l 709 684 l 728 684 l 739 675 q 785 684 764 684 l 818 684 q 937 562 937 568 l 926 534 l 929 524 l 834 431 l 834 434 l 826 431 q 791 450 816 431 q 774 439 774 445 l 774 410 q 834 429 818 410 l 837 429 l 837 410 q 815 380 815 387 q 826 336 823 380 l 823 309 l 837 247 l 723 138 l 690 136 l 593 195 l 585 220 q 498 198 559 220 l 473 198 l 468 203 q 519 225 510 216 l 514 231 l 471 212 l 457 214 l 433 214 q 425 225 426 214 l 403 225 l 395 203 l 444 95 l 441 92 l 384 98 l 463 -90 l 460 -92 l 457 -92 q 378 -62 446 -84 l 454 -250 l 449 -250 q 259 -14 382 -161 l 262 -11 l 283 -11 l 365 -8 q 283 141 365 -1 l 286 144 l 321 144 q 354 149 325 149 q 278 193 342 176 l 240 217 l 237 217 q 167 127 207 139 l 164 127 q 107 165 131 127 l 107 127 l 113 90 l 99 73 l 99 -95 q 85 -103 99 -101 l 75 -95 l 75 -84 l 80 -79 l 77 -76 l 77 -73 l 83 -57 l 83 -30 l 80 22 l 83 33 l 80 43 l 83 43 l 80 62 l 77 62 q 15 41 77 48 q -129 90 -62 41 q -156 157 -154 130 q -110 209 -124 169 l -107 225 l -153 222 l -186 225 l -216 222 q -327 312 -287 222 l -335 372 q -300 494 -335 434 l -286 521 l -330 534 q -354 586 -354 555 l -351 589 l -349 589 l -351 591 l -351 600 q -262 659 -321 659 l -210 651 l -210 667 q -129 732 -210 714 q -45 692 -94 732 l -39 692 q -12 727 -39 708 l -12 735 l -15 735 l -31 730 l -53 730 q -123 792 -99 730 l -123 811 q -50 939 -100 903 q 50 979 -3 974 q -31 1034 37 1034 q -115 914 -79 914 q -134 909 -115 911 q -170 955 -165 909 l -170 958 q -61 1042 -170 998 q -34 1066 -34 1042 l -34 1077 q -83 1145 -34 1136 q -140 1118 -112 1145 l -148 1118 l -156 1126 l -113 1147 l -113 1150 l -110 1147 l -107 1147 l -83 1150 q -23 1090 -41 1150 l -23 1069 l -26 1050 l -9 1050 q 47 1017 47 1032 l 61 998 l 58 996 q 94 977 68 977 q 151 1039 110 1010 q 259 1088 209 1088 l 281 1088 q 335 1058 299 1088 l 373 1053 q 490 1109 456 1053 q 498 1134 491 1125 l 498 1142 q 463 1188 481 1188 l 452 1196 l 433 1196 l 422 1185 l 422 1183 l 441 1183 q 460 1164 460 1183 q 444 1145 455 1152 l 427 1145 q 397 1177 405 1145 l 397 1180 q 430 1218 403 1218 m -151 1126 l -151 1123 l -140 1123 l -129 1128 l -129 1134 l -132 1134 l -151 1126 m 115 974 l 115 971 l 151 963 l 153 963 q 221 998 174 983 q 243 1028 221 1013 l 251 1028 l 256 1023 l 256 1015 l 245 998 l 248 998 q 308 1039 308 1010 q 275 1063 300 1052 l 262 1063 q 115 974 191 1063 m -159 947 q -132 920 -159 931 q -45 1031 -84 920 l -47 1031 q -159 947 -159 994 m 178 952 l 178 947 l 186 944 l 213 958 l 213 963 l 208 963 q 178 952 190 952 m -99 798 q -45 749 -99 764 q 39 811 -1 749 q 64 917 39 842 l 61 949 l 58 949 q -96 817 -56 949 l -99 798 m 99 947 q 77 854 77 909 q 83 846 83 854 l 77 836 l 83 836 q 161 922 114 861 q 99 947 117 947 m 64 616 l 64 613 l 58 608 l 61 600 q 153 353 61 431 q 254 285 203 307 q 400 255 353 255 q 552 296 475 255 q 631 372 575 309 l 699 258 l 720 258 l 720 496 q 804 534 720 534 l 807 532 l 810 534 l 810 556 l 476 556 l 476 532 l 490 534 l 509 534 q 587 502 587 534 l 587 404 l 582 399 l 585 396 l 585 388 q 427 282 543 282 l 416 282 q 264 361 316 282 q 221 564 221 422 l 221 613 q 365 892 221 842 l 411 901 l 411 906 l 384 909 q 297 863 342 909 l 273 852 l 221 852 l 221 854 q 449 917 275 917 l 452 917 l 452 914 q 427 906 452 909 l 430 903 l 430 901 l 433 903 l 454 903 q 484 895 460 897 q 617 789 570 867 q 663 681 647 736 l 690 681 l 677 925 l 655 925 l 606 857 q 411 925 526 925 q 102 751 207 925 q 64 616 64 686 m 661 914 l 669 865 q 663 854 663 865 l 661 852 l 631 852 l 625 857 l 661 914 m 547 879 l 549 879 q 574 865 563 879 l 574 863 l 571 863 q 547 876 557 863 l 547 879 m 408 873 l 408 868 l 433 868 l 433 873 l 408 873 m 218 846 l 240 846 q 270 841 244 841 l 273 838 l 273 836 l 245 811 l 194 808 q 170 817 170 810 q 213 841 170 841 l 218 846 m 669 841 l 674 836 l 674 817 l 666 808 l 623 808 l 593 838 l 595 841 l 669 841 m 699 819 l 709 781 l 715 781 l 715 784 l 704 822 l 701 819 l 699 819 m 368 787 l 368 784 l 370 784 l 435 811 l 435 817 l 414 817 q 368 787 380 804 m 582 806 l 582 803 l 587 803 l 587 806 l 582 806 m 167 806 l 218 803 l 237 803 l 243 798 l 243 784 l 237 779 l 142 779 l 137 784 l 137 789 q 167 806 140 798 m 631 803 l 669 803 l 674 798 l 674 784 l 669 779 l 647 779 q 623 798 623 779 l 631 803 m 370 716 l 373 713 l 376 713 q 452 773 423 773 l 492 754 l 492 751 q 435 697 453 751 l 435 681 q 457 654 444 662 l 454 673 l 454 689 q 484 743 460 743 q 517 711 517 741 l 517 692 l 519 692 q 541 713 527 692 l 538 732 l 538 754 l 536 751 l 528 751 q 465 779 504 779 q 397 760 397 774 l 373 730 l 370 716 m 156 768 q 227 754 227 764 l 227 751 q 175 738 227 738 q 113 746 124 738 q 156 768 121 768 m 568 762 l 566 735 l 568 713 q 530 667 568 695 l 530 665 l 549 662 l 552 662 q 574 678 574 662 q 585 708 574 693 l 585 722 l 571 762 l 568 762 m 652 765 l 666 765 l 674 757 l 674 743 l 671 741 l 671 738 q 647 760 647 739 l 652 765 m 335 738 l 338 716 l 340 716 l 343 735 l 343 741 l 335 738 m 623 732 l 623 711 q 631 722 631 711 l 623 732 m 137 724 q 218 713 218 724 l 218 711 q 197 700 218 704 l 113 700 l 110 703 l 107 700 l 96 700 l 91 705 q 137 724 91 722 m 669 722 l 677 722 l 682 716 l 682 705 l 677 700 q 663 711 665 705 l 663 716 l 669 722 m -194 673 q -167 632 -194 632 q -156 654 -163 652 l -148 654 q -121 627 -121 648 q -37 605 -68 627 l -37 637 q -75 700 -37 691 q -132 716 -104 716 l -145 716 q -194 673 -194 708 m 484 716 l 479 684 q 492 656 485 656 l 500 656 l 498 667 l 503 686 q 490 716 490 696 l 484 716 m 614 700 l 612 692 l 614 689 l 614 684 q 604 678 614 678 l 604 675 l 606 662 l 620 681 l 617 694 l 620 697 l 617 700 l 614 700 m 134 678 l 156 678 l 159 675 l 161 678 q 208 667 208 675 q 178 656 198 659 l 96 659 l 85 659 l 80 665 q 134 678 80 678 m 406 665 q 389 627 389 637 q 449 600 417 600 l 460 613 q 411 665 416 640 l 406 665 m -338 594 l -338 583 q -302 543 -326 543 q -283 575 -302 575 l -281 575 q -251 562 -269 575 q -180 608 -210 602 l -180 613 q -251 646 -202 646 l -270 646 q -338 594 -338 633 m 587 643 l 582 635 l 582 632 l 601 629 l 620 632 l 620 635 q 587 643 593 635 m 140 637 l 205 632 l 205 627 l 80 627 l 80 632 l 140 637 m 115 597 l 164 597 l 197 594 l 197 589 l 88 589 l 88 594 l 115 597 m 680 589 l 693 589 l 688 594 l 685 594 l 680 589 m -102 589 l -102 586 l -96 586 l -96 589 l -102 589 m -256 442 l -256 439 q -224 374 -256 388 l -213 374 l -191 396 l -221 412 l -229 423 l -229 445 q -208 477 -229 469 l -197 477 l -178 475 q -85 534 -155 534 l -56 529 l -37 532 l -37 551 q -58 564 -58 559 l -53 564 l -39 556 l -37 556 q -91 586 -40 566 l -91 583 q -64 570 -91 579 l -64 567 l -66 567 q -137 586 -120 586 l -140 586 q -256 442 -256 555 m 359 586 l 359 578 l 365 583 l 365 586 l 359 586 m 389 578 q 376 567 384 567 l 376 564 l 381 556 l 381 537 l 378 534 l 378 532 l 397 488 q 427 464 412 471 l 438 464 l 441 467 l 444 467 q 422 513 429 507 l 408 524 l 414 553 l 411 564 l 419 572 l 389 578 m 281 526 l 278 515 l 281 513 l 283 513 l 283 526 l 281 526 m 305 464 l 305 439 q 378 391 305 391 q 422 404 422 394 q 392 448 422 431 l 370 448 l 343 426 l 335 426 l 327 434 l 327 448 q 368 472 327 457 l 351 521 l 340 521 q 305 464 305 477 m -267 494 q -281 434 -281 458 q -262 385 -271 385 l -259 385 q -273 439 -271 405 q -262 491 -273 474 l -262 494 l -267 494 m 807 491 l 810 488 l 810 483 l 804 456 l 807 456 q 831 448 817 448 l 837 453 l 837 464 l 840 491 l 807 491 m 476 469 l 476 464 l 487 464 l 487 469 l 476 469 m 435 458 q 452 450 438 450 l 463 450 l 463 453 l 444 461 l 435 458 m 484 426 l 484 420 l 487 420 l 487 426 l 484 426 m -311 423 q -327 350 -327 380 q -270 255 -327 323 q -224 241 -247 241 l -221 241 l -202 244 l -202 250 q -216 258 -216 250 l -216 271 l -210 315 l -210 339 l -235 339 q -305 410 -277 339 q -311 423 -305 423 m 446 418 l 449 404 l 452 404 l 463 423 l 460 423 q 446 418 446 422 m 519 404 l 522 401 l 522 399 l 519 382 l 525 382 l 530 404 l 519 404 m -161 339 q -104 296 -157 322 q -61 274 -104 283 l -53 274 q -9 317 -9 279 l -9 326 q -91 396 -9 386 q -161 339 -161 387 m 26 304 l 26 298 l 23 285 q 83 220 23 247 q 121 214 95 214 l 159 222 l 159 231 q 53 331 71 298 l 50 331 q 28 304 45 331 l 26 304 m -39 206 l -37 198 q -9 209 -25 209 l -1 209 q 9 193 9 203 l 12 193 l 12 220 q -4 247 12 241 l -9 247 q -39 206 -30 247 m 530 231 l 530 228 q 552 220 530 222 l 552 222 q 544 241 544 233 l 547 244 l 544 244 l 530 231 m 278 184 l 281 182 l 281 179 l 243 114 l 243 106 q 267 90 267 96 l 267 84 l 259 76 l 256 76 q 227 90 246 76 q 205 62 216 68 l 202 62 l 194 71 q 210 100 194 81 q 202 119 210 109 l 202 122 q 213 130 202 129 l 227 127 q 278 184 256 184 m -88 176 q -110 130 -104 160 q -83 119 -92 119 l -77 163 q -88 176 -83 175 m -69 119 q -56 114 -56 119 q -75 106 -75 111 q -58 81 -75 91 q -45 157 -50 81 l -50 168 l -56 168 q -72 119 -65 168 l -69 119 m -37 122 l -18 114 l -12 114 l -12 160 l -18 165 q -37 122 -24 165 m -1 141 l -1 119 q 18 109 3 109 l 20 109 l 20 136 q 12 165 20 165 q -1 141 8 165 m 37 149 l 37 111 q 50 103 37 105 l 53 106 l 53 157 l 45 165 q 37 149 37 163 m 69 155 l 69 98 l 83 92 q 91 127 83 121 l 91 146 l 83 163 l 77 163 l 69 155 m -110 119 l -110 95 q -102 79 -108 79 l -96 79 q -83 111 -85 79 l -85 111 l -104 119 l -110 119 m -42 111 l -45 98 l -45 79 q -34 71 -45 71 q -15 109 -15 80 l -34 111 l -42 111 m -4 100 q 7 60 -2 60 q 18 90 14 60 l 18 100 l 4 103 l 1 103 l -1 100 l -4 100 m 34 100 q 28 90 34 90 l 31 87 l 31 68 l 28 65 l 28 62 q 34 54 34 62 l 42 54 q 50 92 50 75 l 50 95 l 34 100 m 58 87 l 61 84 l 61 71 l 58 68 l 58 65 l 66 62 q 80 76 74 64 l 80 84 l 66 90 l 64 90 l 61 87 l 58 87 z "},"H":{"ha":863,"x_min":-174,"x_max":955,"o":"m -65 1090 l -52 1090 q -22 1039 -26 1090 q -62 1006 -22 1006 q -87 1047 -81 1006 q -62 1058 -75 1058 l -60 1066 l -73 1077 l -90 1077 q -130 996 -130 1053 l -130 990 q -65 865 -130 913 l -19 844 q -30 901 -30 861 l -30 906 q 0 966 -30 928 l 3 963 l 3 960 l -3 909 l -3 890 q 54 806 -3 860 q 79 716 79 741 q 16 616 79 682 q -3 567 3 596 l -3 543 q 43 494 -3 494 l 46 491 l 52 491 q 73 513 73 504 l 79 589 l 76 667 l 84 673 l 98 670 q 136 757 122 690 l 136 798 l 130 798 q 106 708 117 708 q 81 735 81 718 l 81 743 q 103 765 83 765 l 103 776 q 95 792 103 790 l 90 776 l 81 776 l 79 789 q 95 838 83 837 l 100 838 q 111 819 105 838 l 114 819 l 122 860 l 117 865 q 138 882 123 882 l 138 887 q 95 895 118 895 l 57 895 l 52 901 l 52 947 l 57 952 l 174 952 q 220 966 202 966 l 217 952 l 258 952 l 258 960 l 222 966 q 290 1015 256 1004 q 339 1025 313 1025 l 399 1025 l 399 1023 l 334 955 l 334 952 l 401 952 q 410 936 410 949 l 407 933 l 407 930 l 412 911 q 393 884 410 899 l 393 882 q 450 939 450 927 q 496 987 450 946 l 551 958 l 551 960 l 499 1015 l 499 1017 q 627 979 597 1005 l 646 960 l 654 960 q 662 977 656 977 l 681 977 l 686 971 l 670 955 l 670 952 l 727 952 l 751 974 l 730 971 l 692 974 l 692 977 q 779 1006 726 1006 l 787 1006 q 841 987 841 1006 q 892 920 892 944 l 892 906 q 830 846 838 846 q 784 857 814 846 l 784 854 l 792 713 l 792 711 l 798 703 l 795 700 l 798 686 l 798 532 l 792 524 l 792 513 l 798 505 l 798 502 l 795 499 l 795 496 q 806 464 801 496 l 806 450 l 833 450 l 952 331 l 952 312 l 955 298 l 830 179 q 762 168 797 168 l 708 182 q 667 171 673 177 l 654 171 l 640 182 q 605 176 628 176 l 597 176 l 594 179 l 591 176 q 526 182 567 182 l 510 182 l 505 176 q 518 149 509 176 q 583 92 583 139 q 572 65 578 65 q 515 125 572 87 l 513 122 l 518 73 q 499 11 518 42 q 450 -43 499 -26 l 448 -43 l 442 -35 q 464 16 455 -19 l 496 27 q 507 54 496 37 l 507 106 l 505 106 l 491 92 l 488 92 q 475 136 481 92 q 488 190 479 172 l 439 236 q 382 190 399 190 l 350 195 l 317 190 q 269 203 296 190 l 263 198 l 244 198 l 236 203 l 198 203 l 141 184 l 136 184 q 95 203 123 184 l 73 206 q 22 136 31 169 l 8 92 l 8 49 q 92 -24 41 -24 q 195 24 195 -17 q 149 100 187 100 l 136 100 l 130 95 l 130 92 q 146 54 146 73 q 117 14 146 26 l 109 11 q 57 71 71 11 q 117 146 57 116 l 144 146 q 203 106 203 127 q 228 33 228 72 q 141 -57 228 -41 q 106 -65 123 -65 l 62 -65 l 62 -68 q 182 -98 142 -98 q 323 -38 248 -98 q 339 -8 339 -16 l 339 -3 l 320 16 l 309 16 l 296 8 l 298 -11 l 296 -14 l 290 -14 l 285 -8 l 285 3 q 304 30 285 18 l 323 30 q 347 0 347 16 l 347 -8 q 266 -92 347 -49 q 182 -109 218 -109 q 8 -46 106 -109 q -79 68 -27 -46 l -90 125 q -46 255 -90 173 q -14 282 -24 281 l -14 285 l -19 285 q -81 269 -46 269 q -171 347 -151 273 l -174 366 q -130 456 -174 422 q -84 469 -99 469 l -65 461 l -62 461 l -62 464 q -84 524 -84 512 l -84 529 q -52 613 -84 568 q -22 670 -22 640 q -57 719 -22 703 l -68 719 l -73 711 l -71 694 l -87 684 l -95 684 q -114 719 -114 695 q -73 765 -102 765 l -68 765 q -22 743 -24 763 l -16 743 l -16 751 q -98 800 -19 765 q -160 906 -159 866 l -160 968 q -65 1090 -146 1090 m -141 1017 l -141 1006 l -136 1012 l -136 1017 l -141 1017 m 800 985 l 806 979 l 817 979 l 822 985 l 819 993 l 817 993 q 800 985 800 991 m 776 985 l 776 982 l 779 982 l 792 985 l 792 990 l 781 990 l 776 985 m 808 974 l 803 966 l 806 966 l 811 974 l 808 974 m 795 958 l 800 952 l 819 952 l 827 960 l 827 963 l 817 963 l 795 958 m 760 952 l 784 952 l 789 958 l 789 960 l 768 960 l 760 952 m -11 939 l -11 933 l -8 933 l -8 939 l -11 939 m 71 936 l 71 917 l 76 911 l 117 911 q 163 844 163 911 l 163 380 q 111 323 163 323 l 71 323 l 71 298 l 391 298 l 391 317 l 385 323 l 347 323 q 301 355 301 323 l 298 358 l 298 608 l 304 613 l 589 613 l 594 608 l 594 350 q 540 323 585 323 l 507 323 l 502 317 l 502 304 l 507 298 l 822 298 l 827 304 l 827 317 l 822 323 l 787 323 q 732 361 732 328 l 732 879 q 773 911 732 905 l 814 911 l 827 914 l 827 930 l 822 936 l 507 936 l 502 930 l 502 914 l 515 911 l 545 911 q 591 882 591 911 l 594 879 l 594 656 l 589 651 l 304 651 l 298 656 l 298 879 q 334 911 311 911 l 391 911 l 391 930 l 385 936 l 71 936 m 136 925 l 323 925 l 323 920 q 285 882 309 920 l 282 879 l 174 879 l 171 882 q 136 922 163 905 l 136 925 m 567 925 l 760 925 l 760 920 q 716 879 742 920 l 610 879 q 567 920 581 920 l 567 925 m 754 884 l 754 879 l 789 879 l 830 882 l 830 884 q 806 895 827 895 l 798 895 q 754 884 754 893 m 315 868 l 317 868 l 331 876 l 345 868 l 350 868 l 350 873 l 334 890 l 326 890 q 315 868 318 890 m 567 876 l 564 873 l 564 871 l 567 868 l 572 868 l 572 871 l 567 876 m 203 873 l 236 873 l 244 868 l 282 868 l 288 863 l 288 841 l 282 836 l 182 836 q 176 849 176 836 l 168 857 l 168 860 q 201 871 168 866 l 203 873 m 363 868 l 363 863 l 369 857 l 377 868 l 377 871 l 363 868 m 640 873 l 686 873 q 722 865 692 868 l 727 857 q 713 836 722 857 l 711 836 l 665 838 l 610 836 l 600 863 l 640 873 m 773 871 l 773 868 l 779 863 l 784 863 q 773 871 784 867 m 572 863 l 567 827 l 570 825 l 572 825 l 578 830 l 578 863 l 572 863 m 138 849 l 138 833 l 144 833 l 144 849 l 138 849 m 665 833 l 724 825 l 724 814 l 713 798 l 613 798 l 600 817 l 600 819 q 665 833 600 830 m 193 830 l 282 830 l 288 825 l 288 803 l 282 798 l 182 798 q 176 811 176 798 l 168 819 q 193 830 172 830 m 22 822 q 46 800 33 806 l 46 803 l 24 822 l 22 822 m 212 792 l 231 792 q 288 784 288 792 l 288 776 q 236 765 288 765 q 174 776 174 765 l 174 779 q 212 792 174 790 m 643 792 l 667 792 q 719 781 719 792 l 719 776 q 667 765 719 765 q 605 776 605 765 l 605 779 q 643 792 605 790 m 220 751 l 282 749 l 288 741 l 288 738 q 263 727 284 727 l 222 727 q 174 735 174 727 l 174 738 q 220 751 174 749 m 651 751 l 713 749 l 719 741 l 719 738 q 697 727 719 731 l 648 727 q 605 735 605 727 l 605 738 q 651 751 605 749 m 537 692 l 540 673 l 540 665 l 548 665 q 578 697 548 670 l 578 700 l 575 703 l 575 705 q 537 692 551 702 m 222 705 l 233 705 q 288 694 288 704 q 255 684 288 687 l 193 686 l 179 686 l 174 692 q 222 705 187 705 m 654 705 l 665 705 q 716 694 716 705 l 716 689 l 686 684 l 624 686 l 610 686 l 605 692 q 654 705 618 705 m 317 678 l 317 670 l 331 670 l 323 678 l 317 678 m 252 665 l 282 659 l 282 654 l 206 654 l 179 656 l 179 662 l 212 662 l 252 665 m 684 665 l 713 659 l 713 654 l 637 654 l 610 656 l 610 662 l 643 662 l 684 665 m 179 624 l 187 621 l 228 624 l 263 624 l 282 621 l 282 616 l 263 616 l 209 613 l 179 618 l 179 624 m 610 624 l 616 624 l 616 621 l 662 624 l 686 624 l 713 621 l 713 616 l 694 616 l 640 613 l 610 618 l 610 624 m 320 553 l 320 548 l 342 570 l 339 572 l 336 572 l 320 553 m 483 572 l 480 559 l 524 564 l 515 572 l 483 572 m 499 537 q 575 510 499 531 l 578 510 l 578 515 q 551 537 572 515 l 499 537 m 345 458 q 450 439 407 439 q 518 461 498 439 l 529 458 l 534 467 q 437 515 496 515 q 345 458 345 507 m 458 499 l 461 496 l 461 491 l 458 491 l 453 496 l 456 499 l 458 499 m 76 494 l 76 488 l 79 488 l 79 494 l 76 494 m 399 496 l 401 494 l 399 480 l 410 458 l 410 456 l 407 456 q 363 469 363 461 q 399 496 372 481 m 426 496 l 437 496 l 448 486 q 429 469 441 474 q 412 477 412 473 l 412 483 l 426 496 m 469 494 q 510 472 499 485 l 510 469 q 445 450 485 450 l 442 450 l 442 456 q 469 494 465 456 m 789 442 l 798 431 l 798 423 q 779 366 779 400 l 808 377 l 806 431 l 806 442 l 800 448 l 795 448 l 789 442 m -138 388 q -127 342 -133 382 q -98 323 -113 323 l -60 323 q 22 369 -11 323 l 22 372 q -46 420 -7 376 q -81 388 -63 388 q -103 399 -96 388 l -103 401 q -92 407 -103 407 l -92 420 q -117 431 -96 431 q -136 391 -127 431 l -138 388 m 90 404 q 122 361 90 361 q 106 385 118 385 l 106 388 q 114 393 106 393 l 114 404 l 109 410 l 95 410 l 90 404 m 814 361 l 814 355 l 827 355 l 827 361 l 814 361 m 507 279 l 507 277 q 532 269 507 270 q 589 279 589 270 l 507 279 m 545 130 l 570 109 l 570 111 q 545 130 556 130 z "},"I":{"ha":456,"x_min":-238,"x_max":606,"o":"m 429 1196 l 435 1196 l 435 1194 q 378 1115 435 1142 l 353 1072 l 364 1069 l 364 1063 l 359 1063 l 364 1034 l 372 1034 q 380 1055 372 1054 l 378 1058 l 378 1063 q 475 1126 432 1122 l 475 1123 q 437 1107 475 1118 l 410 1074 l 410 1072 l 484 1096 l 486 1093 l 486 1090 l 394 1058 l 394 1044 q 375 1017 394 1031 q 313 987 375 1001 l 310 985 l 310 982 l 337 985 l 348 985 l 356 990 l 383 990 q 405 1020 389 990 l 408 1023 l 413 1023 l 413 1017 q 402 1009 413 1009 l 402 1006 l 408 1006 l 408 1004 l 399 993 l 399 990 l 410 990 l 410 987 l 405 979 l 440 979 l 440 971 l 418 974 q 383 958 396 970 l 383 952 l 402 955 l 416 955 l 424 947 l 424 922 l 446 928 l 454 917 l 454 909 l 416 871 l 413 871 q 405 884 407 871 l 413 892 l 399 892 l 394 887 l 394 884 l 413 863 l 413 860 l 389 860 l 356 827 q 334 817 345 817 l 332 817 l 329 819 l 326 819 q 313 779 313 791 l 313 770 q 337 760 313 762 l 353 738 l 378 743 l 389 743 q 456 694 456 730 l 456 673 l 467 670 q 516 719 481 719 l 541 722 l 543 722 q 606 640 578 722 l 606 624 l 597 559 l 597 553 l 603 515 q 568 453 603 484 q 513 355 546 355 q 535 331 513 351 l 532 317 l 532 312 l 535 309 l 535 307 l 524 296 l 530 290 q 416 165 427 187 l 402 160 l 402 157 q 340 87 394 87 l 334 81 l 329 81 l 321 87 l 315 87 q 256 49 282 49 l 253 49 q 201 109 213 49 l 196 109 l 191 -160 q 182 -184 189 -184 l 180 -184 l 172 -176 l 172 -5 l 177 0 l 174 3 l 174 54 l 180 62 l 180 87 l 174 95 l 174 117 l 177 119 l 177 122 q 155 160 155 141 l 139 157 l 139 65 q 128 -19 139 -19 l 125 -16 l 123 -8 l 120 -8 l 123 0 l 125 125 l 125 130 l 101 125 q 68 157 68 132 l 68 182 q 47 225 47 182 l -16 285 l -59 271 l -127 271 l -132 277 q -78 326 -93 326 l -64 328 l -45 328 l -26 323 l -59 366 l -62 366 q -102 342 -77 342 l -105 342 q -170 385 -170 357 l -176 391 l -173 393 l -173 396 l -178 401 l -170 410 l -168 410 l -100 415 l -81 410 q -92 434 -89 419 q -119 426 -105 426 q -168 445 -130 426 l -168 450 q -113 461 -168 460 l -100 461 q -111 483 -104 483 q -146 469 -131 469 l -157 469 q -227 510 -208 469 l -238 540 l -230 543 q -116 513 -135 530 l -113 515 l -113 518 q -162 548 -120 530 q -214 610 -214 592 q -205 616 -214 616 q -138 570 -170 616 q -121 537 -127 540 q -151 616 -121 570 q -162 673 -159 633 l -149 754 l -140 754 q -105 684 -140 730 l -102 662 q -116 610 -108 610 l -113 608 l -113 605 l -119 597 l -119 583 q -111 548 -111 574 l -94 591 q -45 648 -88 592 l -43 646 l -43 608 q -92 515 -43 559 q -97 502 -92 502 l -89 472 l -83 472 q -24 532 -83 483 q -18 543 -24 543 q -10 513 -12 543 q -67 429 -10 462 l -70 426 l -70 423 l -51 385 q -40 418 -45 385 q 12 464 1 464 l 17 420 q -10 361 17 393 l -21 339 q 9 304 -12 321 q 33 331 19 331 q 60 342 33 340 l 58 345 l 58 347 l 66 366 q 47 418 47 377 q 55 450 47 435 l 52 461 l 60 475 q 33 496 41 484 l 33 502 q 63 532 33 532 l 63 543 l 50 545 l 36 543 q 17 551 17 545 l 17 556 l 25 564 l 47 564 q 63 586 47 586 l 63 589 q 47 610 50 589 l 58 621 l 77 616 l 77 618 l 74 635 l 74 646 l 82 654 l 93 646 q 101 662 101 648 l 82 711 q 77 722 82 722 l 74 722 q 63 700 71 700 q 47 708 49 700 l 47 727 q 77 732 47 732 l 79 735 l 79 738 l 71 749 l 79 781 l 74 803 q 82 819 76 819 l 96 817 q 136 863 118 817 l 134 873 l 115 836 l 112 833 l 104 833 q 79 846 79 838 l 79 849 l 87 857 l 101 857 l 125 892 l 98 895 l 39 895 l 33 901 l 33 947 l 39 952 l 158 952 l 174 966 l 180 966 q 204 952 190 966 q 299 1017 260 1017 l 348 1031 l 348 1047 l 342 1066 l 326 1066 l 291 1109 l 269 1115 l 256 1107 q 229 1120 256 1120 l 229 1126 q 323 1077 310 1126 l 337 1072 l 340 1072 l 348 1096 q 340 1123 340 1110 l 340 1137 q 359 1185 352 1149 l 364 1185 q 345 1131 359 1143 l 345 1123 q 356 1099 345 1102 q 397 1134 367 1122 q 429 1196 424 1156 m 500 1188 l 505 1188 l 505 1185 q 456 1158 477 1158 q 500 1188 485 1173 m 451 1158 l 451 1153 l 437 1150 q 451 1158 437 1156 m 207 1085 l 237 1080 l 242 1080 l 242 1074 l 237 1074 l 204 1080 l 191 1072 l 188 1074 l 188 1077 q 207 1085 198 1085 m 299 982 q 291 974 299 974 l 291 971 l 299 971 l 310 974 l 307 982 l 299 982 m 277 952 l 332 952 l 318 971 q 277 952 277 961 m 250 952 l 264 952 l 272 960 q 267 968 267 960 q 250 952 250 962 m 50 936 l 50 917 l 55 911 l 123 911 q 161 860 157 911 l 161 374 q 96 323 161 323 l 50 323 l 50 298 l 405 298 l 405 323 l 364 323 q 299 355 299 323 l 299 678 l 296 705 l 299 730 l 299 882 q 342 911 299 911 l 399 911 l 405 917 l 405 936 l 50 936 m 134 925 l 321 925 l 321 920 q 286 879 286 907 l 172 879 q 161 903 167 879 q 134 920 145 918 l 134 925 m 131 890 l 131 882 l 136 882 l 136 884 l 131 890 m 201 873 l 237 873 l 245 868 l 283 868 l 288 863 l 288 841 l 283 836 l 182 836 l 174 844 l 177 846 l 177 849 l 166 860 q 199 871 166 866 l 201 873 m 199 830 l 283 830 l 288 825 l 288 803 l 283 798 l 180 798 l 174 803 l 177 806 l 177 808 l 169 817 l 169 822 q 199 830 169 830 m 204 792 l 237 792 q 288 781 288 792 l 288 779 q 250 765 288 767 q 174 776 174 765 l 174 779 q 204 792 174 788 m 223 751 q 288 741 288 751 l 288 738 q 261 727 288 730 l 218 727 q 174 735 174 727 l 174 741 q 223 751 174 749 m 313 678 l 313 662 l 329 662 q 337 648 337 662 l 340 648 q 359 689 340 665 l 356 697 l 359 700 l 361 700 l 367 694 l 372 700 q 378 684 378 700 l 383 684 l 383 697 l 386 697 q 391 684 391 697 l 394 684 q 399 692 394 692 l 405 692 q 443 678 420 678 l 443 689 q 383 730 443 718 q 318 705 318 715 q 313 678 313 705 m 492 689 l 492 686 l 513 692 l 513 686 q 475 651 487 686 l 494 635 l 497 635 l 503 640 l 489 654 l 489 656 l 494 662 q 503 651 503 662 l 505 651 l 532 673 l 535 670 l 535 667 l 508 646 q 527 632 526 639 l 543 643 l 562 627 l 559 618 l 568 610 l 557 589 q 570 583 570 589 l 568 559 l 576 545 q 557 469 576 510 l 559 469 q 581 521 570 469 q 576 613 576 551 l 578 616 l 578 618 q 535 686 578 673 l 535 692 q 581 627 581 684 l 581 621 l 584 621 l 581 608 l 581 583 l 587 583 l 592 635 q 543 708 592 666 l 538 708 q 492 689 492 703 m 229 705 q 286 694 286 705 q 253 684 286 687 l 204 686 l 180 686 l 174 692 q 229 705 174 705 m 522 694 l 530 694 l 530 689 l 522 689 l 522 694 m 372 670 l 372 665 l 375 665 l 375 670 l 372 670 m 253 665 l 283 659 l 283 654 l 196 654 l 182 656 l 182 662 l 204 662 l 253 665 m 334 621 l 337 605 l 340 605 q 402 635 363 630 q 489 616 437 635 q 435 659 455 651 q 334 621 368 659 m 182 624 l 188 624 l 188 621 l 220 624 l 261 624 l 280 621 l 280 616 l 275 616 l 210 613 q 182 621 182 615 l 182 624 m 391 613 l 394 610 q 359 532 374 610 l 361 532 q 389 570 376 532 q 432 600 389 591 l 443 600 q 492 559 478 600 l 492 556 l 497 556 l 494 570 l 494 575 l 497 578 l 497 581 q 402 621 467 621 l 391 613 m 511 621 l 511 616 l 513 597 q 473 502 513 537 q 418 486 439 486 l 394 486 q 383 472 389 484 l 437 469 l 446 469 q 535 529 514 469 l 538 556 l 538 567 q 516 613 538 580 l 513 621 l 511 621 m 60 610 l 60 608 l 63 600 l 68 600 l 68 602 l 60 610 m 399 562 l 399 551 l 402 537 l 416 537 l 424 545 q 416 564 416 555 l 421 570 q 451 545 451 567 q 456 524 456 545 l 459 524 q 478 543 472 530 l 478 551 q 440 586 478 579 l 432 586 q 399 562 418 586 m 258 559 l 261 559 l 261 553 l 237 505 l 267 467 l 267 458 l 264 458 l 231 491 l 226 491 q 204 461 224 478 l 199 461 q 218 507 199 474 l 218 510 q 191 545 191 534 l 193 548 l 199 548 l 229 518 q 258 559 229 526 m 557 540 l 541 483 q 562 540 553 483 l 557 540 m 443 529 l 432 513 l 435 513 q 446 526 446 518 l 446 529 l 443 529 m -102 524 l -102 515 l -100 515 l -100 524 l -102 524 m 58 524 l 44 507 l 44 502 l 50 496 l 52 496 l 63 507 l 63 518 l 58 524 m 584 515 l 589 510 l 589 515 l 584 515 m 416 510 l 416 507 l 421 507 l 429 510 l 429 513 l 424 513 l 416 510 m 440 458 l 380 461 q 356 469 380 468 l 356 461 q 418 450 356 450 l 424 445 l 465 445 l 513 475 q 535 510 535 503 q 459 461 513 474 l 440 458 m 581 507 l 581 499 l 587 499 l 587 507 l 581 507 m 351 486 l 351 483 l 356 477 l 361 477 l 353 486 l 351 486 m 543 464 l 543 458 l 546 458 l 546 464 l 543 464 m 513 456 l 513 453 l 519 453 l 519 456 l 513 456 m 63 448 q 55 420 58 441 q 87 366 63 366 l 93 366 q 112 377 108 366 q 87 412 106 412 l 77 396 l 71 396 l 68 412 l 74 434 q 63 448 68 446 m 532 442 l 532 437 q 492 374 532 403 l 500 366 l 503 366 q 549 445 534 366 l 546 445 l 532 442 m 361 439 l 361 431 l 397 396 l 410 426 l 405 437 l 394 437 l 361 439 m 511 426 l 503 426 l 492 434 l 489 434 q 470 393 489 420 l 486 380 l 489 380 q 530 437 512 393 l 527 439 l 524 439 l 511 426 m 437 429 l 437 426 l 443 426 l 456 410 l 456 407 l 459 407 l 459 410 q 451 429 456 429 l 437 429 m 473 429 l 473 420 l 478 426 l 475 429 l 473 429 m 361 415 l 361 399 l 378 396 l 378 399 l 361 415 m 334 363 l 337 363 q 359 393 356 363 l 359 396 l 353 396 l 334 363 m 440 328 l 440 326 l 446 326 l 446 328 l 440 328 m 66 209 l 66 201 l 74 193 l 74 198 l 77 201 l 74 203 l 66 209 m 199 182 l 199 174 l 207 165 l 210 168 l 215 163 l 226 163 q 250 174 247 163 q 239 195 250 189 l 218 195 q 199 182 199 186 m 261 193 l 261 176 l 267 176 l 267 193 l 261 193 m 93 190 l 93 187 q 101 176 97 176 l 104 179 l 104 182 l 93 190 m 294 182 l 291 179 l 291 149 l 299 149 q 323 168 315 149 q 294 182 314 182 m 82 179 l 82 163 q 104 138 86 138 q 123 155 116 143 l 123 174 l 117 179 l 104 165 l 96 165 q 85 179 85 171 l 82 179 m 329 179 l 329 176 l 332 174 q 318 103 332 128 l 318 100 l 340 98 q 394 157 385 98 l 386 157 q 361 179 368 157 l 348 171 q 329 179 338 179 m 166 168 l 166 165 l 172 146 l 177 146 l 174 160 l 177 163 l 166 168 m 237 149 l 210 149 l 207 146 l 204 146 l 207 144 l 207 130 l 204 127 l 204 125 l 212 119 l 223 119 q 250 157 250 128 l 237 149 m 261 157 q 212 109 250 109 q 261 62 227 62 q 304 95 288 62 l 302 95 q 267 157 292 95 l 261 157 m 296 136 q 307 106 296 124 l 315 106 q 323 133 317 125 l 323 149 q 296 136 308 136 z "},"J":{"ha":654,"x_min":-218,"x_max":707,"o":"m 66 1088 q 102 1034 102 1069 l 102 1031 q 64 955 102 998 l 64 936 q 96 887 64 912 l 107 887 q 151 911 130 911 q 245 806 205 911 l 251 751 q 213 689 251 709 q 159 665 159 669 l 148 648 l 170 646 l 221 648 q 324 583 288 648 l 327 583 l 327 589 q 308 662 308 646 l 305 665 l 302 665 q 289 635 296 635 l 283 635 l 273 646 l 273 667 q 300 675 273 675 l 308 684 l 300 697 l 305 743 l 300 768 l 300 776 l 308 787 l 321 784 l 324 784 q 359 827 345 791 l 362 849 l 359 857 q 343 811 355 857 l 332 803 q 305 819 305 815 q 327 841 305 836 l 330 844 l 324 857 l 327 857 l 338 860 l 338 873 q 351 882 338 880 l 351 884 l 338 887 l 259 887 l 251 895 l 251 939 l 256 944 l 381 944 q 408 960 391 956 l 435 944 l 479 944 q 555 982 498 964 l 612 982 l 617 977 q 595 958 602 968 l 595 955 q 625 944 595 944 l 628 941 l 628 892 q 598 884 628 884 l 593 884 l 593 879 l 617 852 l 614 849 l 617 846 l 617 841 l 614 841 l 606 844 l 606 846 l 609 849 l 609 852 l 574 884 l 566 884 l 560 879 l 617 819 l 617 817 l 585 817 l 590 781 l 587 779 l 574 779 q 560 800 568 780 l 557 803 l 552 803 l 552 787 q 582 735 582 767 l 582 692 q 552 648 582 648 l 552 640 q 544 616 552 626 l 544 610 l 701 627 l 707 618 q 582 423 582 429 l 696 423 l 701 418 l 701 412 l 571 214 l 677 228 l 680 225 l 680 222 q 514 -65 666 190 q 465 -144 469 -144 l 460 -144 l 454 -138 l 454 -133 q 492 -5 465 -112 q 528 125 528 109 l 463 144 q 446 122 463 138 q 500 87 481 106 l 500 81 q 487 38 493 38 l 490 35 l 490 30 q 463 -87 484 24 q 419 -255 456 -87 l 411 -260 q 406 -252 406 -260 q 430 -152 420 -165 l 427 -149 l 427 -146 l 457 -38 l 460 -38 l 457 -35 l 457 -33 q 484 84 463 -24 q 438 114 476 84 l 408 95 q 446 19 446 62 l 446 16 q 349 -109 446 -80 l 321 -111 q 224 -27 267 -111 q 145 46 183 33 l 145 52 q 191 119 157 100 l 227 141 l 224 141 q 96 54 136 111 l 80 16 q 126 27 94 27 q 186 -16 151 27 l 194 -41 q 148 -119 194 -81 q 123 -130 139 -119 l 75 -130 q 23 -52 23 -106 l 18 -14 l 20 -11 l 23 -11 l 20 -8 l 20 11 l 37 60 l 26 60 q -31 -35 26 14 l -37 -35 l -42 -30 q -20 27 -33 -30 l -20 62 l -23 62 q -64 8 -23 39 l -102 -3 q -107 5 -107 -3 q -83 46 -83 39 l -75 81 q -118 68 -93 68 l -140 68 l -145 73 l -145 79 l -104 103 l -69 146 l -69 149 l -80 146 q -126 168 -126 152 l -64 201 l -50 212 l -50 214 q -137 260 -137 241 q -202 331 -195 304 q -218 431 -218 387 q -175 551 -218 488 q -85 589 -148 589 q 12 678 -12 620 l 12 692 q -23 705 12 697 l -31 730 q 7 762 -31 759 q 53 708 37 762 l 53 678 q -4 608 38 635 l -4 605 l -1 605 q 96 673 33 616 l 110 697 q 85 732 110 704 l 85 746 q 132 795 89 795 q 183 732 170 795 l 183 719 l 178 692 q 237 749 237 718 q 202 811 237 811 l 164 811 q 102 854 119 811 l 102 860 l 104 873 l 102 871 l 83 871 q 23 968 41 871 l 20 971 l 20 974 l 23 977 l 23 979 l 18 985 l 18 1001 l 15 1058 q 66 1088 30 1088 m 20 1053 l 20 1047 q 37 944 25 1042 q 83 882 65 882 q 53 936 53 912 l 53 944 q 85 998 53 962 l 91 1025 l 91 1039 q 61 1080 83 1080 q 20 1053 35 1080 m 536 966 l 538 963 l 538 955 l 533 947 l 533 944 l 576 944 l 590 958 q 552 971 574 970 l 536 966 m 270 928 l 270 909 l 275 903 l 349 903 q 387 852 387 903 l 387 450 q 302 312 387 341 q 259 304 280 304 l 240 304 q 123 355 168 304 l 121 369 l 121 396 q 148 410 121 406 l 197 404 q 251 467 239 404 l 251 472 q 183 545 251 522 l 159 548 q 88 518 132 548 q 58 442 58 490 l 58 431 q 180 293 58 346 q 283 274 222 279 q 438 312 358 274 q 525 450 525 372 l 525 860 q 563 903 532 903 l 612 903 l 612 920 l 614 922 l 614 925 l 601 928 l 270 928 m 552 917 l 552 911 q 517 887 537 911 l 519 884 l 519 876 l 514 871 l 400 871 q 381 909 381 897 l 362 909 l 357 914 l 359 917 l 552 917 m 115 868 l 115 863 q 156 825 125 825 l 213 825 l 235 808 l 237 808 l 237 811 q 151 901 187 901 l 148 901 q 115 868 115 892 m 357 882 l 357 879 l 362 873 l 365 873 l 357 882 m 541 873 l 541 865 l 555 860 l 563 860 l 563 868 l 555 882 l 541 873 m 449 865 l 481 865 q 511 857 488 859 l 514 854 l 514 849 l 506 838 l 509 836 l 509 833 l 503 827 l 403 827 l 395 836 l 395 854 l 400 860 l 441 860 l 449 865 m 311 857 l 319 857 l 319 852 l 311 844 l 305 849 l 305 852 l 311 857 m 541 846 l 541 817 l 571 817 l 571 819 l 541 846 m 400 822 l 495 822 q 517 811 515 819 q 506 789 506 800 l 400 789 l 395 795 l 395 817 l 400 822 m 96 743 l 96 735 q 121 700 121 716 q 75 635 121 667 l 72 635 l 75 632 l 75 629 q 159 684 111 629 l 172 724 l 172 732 q 132 784 172 757 l 126 784 q 96 743 96 773 m 425 784 l 452 784 q 509 776 509 784 l 509 768 q 465 757 509 759 l 463 757 q 395 768 395 757 l 395 770 q 425 784 395 780 m -20 730 q 20 703 -20 714 q 28 678 28 690 q -23 610 25 659 l -20 610 q 37 673 23 637 l 39 686 l 39 697 q 4 751 32 751 q -20 730 -20 743 m 441 743 q 509 732 509 743 l 509 730 q 487 719 509 723 l 444 719 q 395 727 395 719 l 395 732 q 441 743 395 741 m 457 697 q 506 686 506 697 q 476 675 506 678 l 414 678 l 400 678 l 395 684 q 457 697 395 697 m 471 656 l 503 651 l 503 646 l 422 646 l 403 648 l 403 654 l 435 654 l 471 656 m 400 616 l 408 613 l 441 616 l 484 616 l 503 613 l 503 608 l 490 608 l 427 605 l 400 610 l 400 616 m -15 602 l -15 597 l -12 597 l -12 602 l -15 602 m -77 578 l -77 575 l -75 572 l -75 570 q -26 586 -64 578 l -23 589 l -23 591 l -77 578 m -72 567 l -72 564 q -58 529 -64 564 q -102 488 -72 488 l -121 488 q -153 515 -134 488 l -156 518 l -159 518 q -189 429 -172 518 l -189 423 q -167 317 -189 372 l -164 317 l -161 353 q -172 412 -167 358 q -156 469 -168 469 l -134 467 q -50 518 -68 467 q -23 570 -45 545 l -23 572 q -72 567 -29 567 m -186 502 l -180 502 q -164 529 -180 518 l -145 529 q -126 505 -140 529 l -123 502 l -107 502 q -75 532 -75 506 q -104 570 -81 570 q -186 502 -159 570 m 167 537 q 213 513 213 532 l 210 510 l 110 510 l 110 515 q 167 537 120 537 m 197 505 q 235 491 235 501 l 235 488 q 199 477 235 479 l 83 477 l 77 483 q 104 502 90 502 l 197 505 m -189 499 l -194 480 l -194 477 l -191 477 l -186 496 l -186 499 l -189 499 m -50 439 l -50 437 q -23 429 -23 435 l -23 423 l -26 396 l -23 393 l -20 393 q -1 420 -5 420 l 9 423 l 15 418 l 18 418 l 23 423 l 9 453 l 28 467 l 28 475 l 23 475 l 1 469 l -1 469 q -7 486 -3 486 q -18 461 -18 484 l -50 439 m -197 475 l -199 456 l -199 442 l -197 442 l -194 472 l -194 475 l -197 475 m -153 448 l -156 437 l -156 393 l -153 374 l -148 374 q -140 382 -148 382 l -137 385 l -137 391 l -140 410 q -91 423 -127 423 q -64 437 -91 427 l -61 439 l -61 475 l -64 475 q -145 450 -84 450 l -153 448 m -118 407 l -121 407 l -121 391 q -83 339 -83 368 l -83 326 q -99 293 -83 313 l -99 279 q -56 239 -95 257 l -53 239 l -53 241 q -80 290 -75 241 l -80 304 q -50 342 -80 319 l -50 345 q -66 391 -58 353 l -69 393 l -69 401 l -61 423 l -64 423 q -118 407 -83 407 m -132 372 q -148 336 -148 351 q -99 247 -148 273 l -99 250 q -115 285 -115 267 l -99 328 l -99 336 q -118 372 -99 357 l -121 369 l -126 369 l -129 372 l -132 372 m 528 328 l 528 312 q 471 271 528 277 q 444 228 444 271 q 373 149 444 197 q 311 130 326 130 q 292 76 292 87 l 292 54 q 321 68 307 68 q 378 14 378 60 l 378 5 q 327 -46 378 -24 l 313 -46 q 243 24 243 -22 q 275 146 243 79 l 273 146 q 170 76 216 130 l 161 54 l 164 54 q 256 -52 231 4 q 330 -95 280 -95 q 408 -54 408 -78 q 433 3 416 -51 l 433 30 q 378 92 406 92 q 365 98 365 92 l 365 100 q 414 117 365 107 q 454 174 454 144 l 452 187 l 460 193 l 473 179 l 571 334 l 568 334 l 528 328 m -45 331 l -66 301 l -66 282 q 23 236 -51 236 q 96 250 72 250 l 96 252 q 75 263 96 256 l 64 274 l 58 274 q 26 247 26 271 l 20 247 q -28 317 -28 285 q -39 331 -39 317 l -45 331 m 327 149 l 330 149 q 422 214 389 166 l 435 247 l 433 247 q 335 160 370 200 l 327 149 m 115 233 l 121 228 l 123 228 l 118 233 l 115 233 m 313 163 l 316 163 q 389 233 355 205 l 387 233 q 313 163 336 212 m 186 220 l 186 217 l 189 217 l 194 222 l 194 225 l 191 225 l 186 220 m 210 222 l 210 217 l 213 217 l 213 222 l 210 222 m -31 136 q -4 92 -27 92 q 42 109 24 94 q 34 127 39 127 l 18 127 l 18 130 l 26 138 l 37 138 q 47 109 47 136 q 20 79 47 97 l 26 73 q 58 133 58 92 q 31 152 43 152 l 23 152 l 9 138 l 9 133 l 18 109 l 9 103 q -12 138 -12 125 l -12 141 q 50 201 14 201 q 145 179 81 201 q 164 193 164 189 l 164 195 l 96 220 l 66 220 q -26 165 -4 220 l -31 136 m 31 -24 q 80 -114 45 -114 l 115 -114 q 183 -57 163 -114 l 183 -33 l 180 -33 q 126 -106 180 -85 l 104 -109 q 39 -46 64 -109 l 39 -41 q 102 106 39 33 q 237 187 163 159 q 289 212 288 207 l 245 212 l 243 214 q 197 184 213 208 q 88 114 165 184 q 31 -24 31 51 m 256 179 l 256 176 l 289 168 l 330 214 l 324 214 q 256 179 280 186 m 256 155 l 256 152 l 278 152 l 278 155 l 256 155 m 292 146 q 262 33 262 92 l 262 16 q 316 -33 282 -33 l 324 -33 q 368 11 368 -25 l 365 27 l 362 27 q 321 -16 349 -16 q 270 54 286 3 l 270 60 q 294 144 277 109 l 294 146 l 292 146 m -18 81 l -18 76 l -15 76 l -15 81 l -18 81 m -9 79 l -9 73 l 7 73 l 9 71 l 12 71 l 12 73 l 7 79 l -9 79 m 294 38 q 324 0 302 17 q 349 33 349 14 q 338 54 338 39 l 321 57 q 294 38 311 54 m 58 -54 q 107 -92 77 -92 q 164 -38 164 -86 q 121 3 164 -18 l 121 8 l 107 8 q 58 -54 58 -5 m 50 5 l 50 0 l 56 0 l 56 5 l 50 5 z "},"K":{"ha":892,"x_min":-284,"x_max":964,"o":"m 473 1321 q 557 1253 511 1321 q 568 1210 568 1226 q 451 1017 568 1123 q 367 947 427 1006 l 367 944 l 380 944 l 432 947 q 448 911 446 947 l 454 911 q 462 936 460 911 l 503 974 l 508 974 q 562 947 521 964 l 562 949 l 508 1006 l 513 1012 l 516 1012 q 570 1001 519 1006 q 649 958 616 985 l 652 960 l 654 960 l 654 944 l 684 944 l 706 966 l 679 966 l 673 971 q 763 993 709 993 l 768 993 l 774 987 l 774 985 l 714 968 l 714 966 l 749 966 q 782 979 776 966 l 787 985 q 861 895 844 944 q 852 882 856 895 q 814 846 847 882 l 793 838 l 733 841 q 687 808 727 829 q 660 781 687 798 l 663 779 l 663 770 q 592 697 663 739 l 592 694 l 641 608 q 722 513 666 590 q 741 480 722 500 q 779 448 753 448 l 787 448 l 806 467 l 831 442 l 844 445 l 964 323 l 964 312 q 950 274 955 302 l 842 171 q 804 163 814 171 l 790 163 l 777 174 l 755 168 l 676 174 l 676 160 q 638 73 676 119 l 627 68 l 630 54 l 630 46 q 578 5 616 5 l 578 -8 l 573 -24 l 576 -41 q 557 -195 557 -134 q 551 -206 551 -195 l 549 -209 l 535 -209 q 513 -184 513 -209 l 519 -138 l 519 -130 l 524 -125 l 522 -122 l 522 -119 l 524 -100 l 519 -100 q 505 -285 513 -125 l 508 -307 l 497 -315 l 478 -315 q 467 -255 467 -315 l 467 -163 l 473 -109 q 432 -92 458 -92 q 413 -60 413 -73 l 413 -46 l 389 -46 q 326 -95 389 -81 l 323 -95 q 242 -38 242 -95 l 239 -35 l 237 -35 q 196 -52 237 -43 q 134 0 164 -52 l 128 22 q 144 84 128 68 l 144 87 l 87 84 l 74 90 q 41 68 56 68 l -16 190 l -75 179 q -102 258 -102 179 l -102 363 l -97 404 l -127 410 l -224 401 l -260 401 q -284 426 -284 405 l -284 437 l -276 445 l -243 445 q -138 461 -219 445 l -143 483 q -105 526 -138 526 l -92 524 l -94 526 l -94 540 q -37 591 -94 587 l -24 591 l -21 589 l -18 589 q -32 635 -24 624 l -32 648 l -105 624 l -113 624 q -135 643 -125 629 l -135 675 q -105 743 -135 704 q -121 757 -113 743 l -121 760 l -119 762 l -102 770 l -97 776 l -100 795 q -51 895 -100 836 q -26 925 -26 906 q 14 1015 -26 979 l 12 1034 l 12 1039 q 68 1131 12 1096 l 39 1180 q 25 1191 31 1180 l 25 1202 l 39 1215 l 44 1215 l 60 1202 l 60 1196 q 50 1188 60 1188 q 79 1139 62 1175 l 87 1139 q 166 1161 132 1161 q 177 1177 177 1161 q 199 1218 191 1210 l 199 1223 l 193 1232 l 193 1245 q 215 1259 200 1259 l 218 1259 l 229 1248 l 229 1242 q 207 1210 229 1232 l 188 1156 l 210 1156 q 280 1107 256 1141 q 304 1047 300 1075 l 334 1023 q 437 1093 400 1040 l 443 1112 l 424 1126 l 416 1126 q 391 1101 391 1118 l 405 1088 l 397 1080 l 389 1080 l 375 1101 l 375 1107 q 437 1150 375 1136 q 475 1107 468 1150 l 475 1101 q 424 1020 475 1073 l 427 1020 q 530 1131 488 1064 q 554 1215 548 1176 l 541 1251 q 465 1308 499 1308 q 421 1267 421 1294 l 421 1253 l 427 1248 l 435 1248 l 435 1253 q 424 1259 424 1253 l 424 1261 l 429 1267 l 440 1267 l 451 1256 l 451 1245 q 427 1232 451 1237 q 402 1259 410 1232 q 456 1318 418 1318 l 473 1321 m 166 1137 q 180 1099 180 1120 l 177 1088 l 237 1080 q 166 1137 205 1137 m 429 1137 l 429 1134 q 454 1109 446 1133 q 356 1017 454 1058 l 356 1015 l 370 1017 l 394 1017 q 459 1104 459 1069 q 437 1137 459 1137 l 429 1137 m 144 1126 l 139 1118 l 139 1109 l 144 1104 l 150 1104 l 155 1109 l 155 1115 l 144 1126 m 71 1058 q 134 1082 98 1076 l 120 1101 l 120 1120 q 77 1077 99 1120 l 71 1058 m -18 914 q -2 952 -9 914 q 188 1058 73 1058 q 318 1015 247 1058 l 321 1015 l 321 1017 q 193 1072 248 1072 l 172 1074 q 9 987 92 1074 q -18 914 -15 950 m 58 1055 l 58 1053 l 63 1053 l 63 1055 l 58 1055 m 191 1044 q 242 987 197 1025 l 248 987 q 264 1023 252 1004 l 264 1025 q 191 1044 205 1044 m 109 1023 l 153 979 l 174 1042 l 172 1042 q 109 1025 156 1042 l 109 1023 m 174 1001 l 177 998 l 177 993 q 169 966 169 981 l 172 963 l 174 963 l 226 977 l 226 979 q 188 1023 188 1015 q 177 1001 184 1023 l 174 1001 m 52 977 l 77 960 l 79 960 q 96 1020 79 973 q 52 977 73 1005 m 283 1012 l 283 1009 l 288 998 l 296 1001 l 296 1004 l 283 1012 m 93 949 l 104 944 l 131 944 l 155 955 l 155 960 q 109 1004 142 960 q 93 949 102 1004 m 269 1001 l 269 996 l 272 996 l 272 1001 l 269 1001 m 39 963 l 36 925 l 39 925 l 66 922 l 66 939 l 71 947 l 39 966 l 39 963 m 747 944 l 793 944 q 801 958 798 944 l 798 958 q 747 944 747 954 m 79 928 l 79 909 l 85 903 l 142 903 q 177 879 163 903 l 177 345 q 115 315 170 315 l 85 315 l 79 309 l 79 290 l 421 290 l 421 315 l 367 315 q 318 347 318 318 l 315 350 l 315 502 l 418 610 q 587 347 587 358 l 587 342 q 532 315 574 315 l 500 315 l 497 312 l 494 312 l 497 309 l 497 296 l 494 293 l 494 290 l 831 290 l 836 296 l 836 315 l 828 315 q 706 396 741 315 l 511 697 l 511 703 q 771 903 682 903 l 793 903 l 798 909 l 798 928 l 513 928 l 513 909 l 519 903 l 535 903 q 595 868 595 899 l 595 857 q 505 749 595 828 q 443 681 505 742 l 321 553 l 315 559 l 315 863 q 364 903 315 903 l 418 903 l 424 909 l 424 928 l 79 928 m 340 917 l 340 914 l 299 871 l 196 871 q 172 909 172 897 l 155 909 l 150 914 l 153 917 l 340 917 m 562 917 l 744 917 l 744 911 l 665 873 l 619 868 q 592 898 604 868 q 562 914 562 909 l 562 917 m 459 911 l 462 898 l 467 898 l 467 906 l 462 911 l 459 911 m 736 879 l 736 873 l 782 871 l 801 871 l 801 873 l 787 887 l 736 879 m 351 884 q 378 868 357 875 l 380 868 l 380 871 l 361 884 l 351 884 m 568 868 l 568 863 l 573 857 l 576 857 l 576 863 l 570 868 l 568 868 m 12 838 l 12 836 q 22 808 15 808 l 33 808 q 25 833 33 823 l 25 841 l 31 849 l 31 865 l 25 865 q 12 838 12 859 m 223 865 l 269 865 l 307 854 l 310 852 l 310 849 q 296 827 305 849 l 294 827 l 248 830 l 193 827 l 182 849 l 182 852 q 220 863 182 858 l 223 865 m 608 860 l 644 860 l 644 857 q 608 830 636 845 l 603 836 l 603 854 l 608 860 m 155 846 l 155 836 l 161 830 l 161 852 l 155 846 m 543 822 l 557 822 l 559 838 l 543 822 m 527 825 l 527 822 l 532 817 l 535 817 l 535 822 l 532 825 l 527 825 m 248 825 l 307 817 l 307 806 l 296 789 l 196 789 l 182 808 l 182 811 q 248 825 182 822 m 600 822 l 603 819 l 603 817 q 576 792 583 794 l 573 792 l 573 795 q 600 822 578 822 m -78 798 l -78 792 q -51 770 -66 770 q -16 800 -32 770 l -16 811 l -29 814 l -64 814 l -78 798 m 144 795 l 147 792 l 147 787 q 136 741 142 781 l 142 735 q 128 711 136 735 l 125 708 l 123 708 l 104 722 q 39 662 53 694 l 39 613 l 44 613 l 52 621 l 47 648 q 117 703 47 688 q 139 713 139 703 q 155 784 150 729 l 153 800 l 144 795 m 226 784 l 250 784 q 302 773 302 784 l 302 768 q 250 757 302 757 q 188 768 188 757 q 226 784 188 784 m 554 779 l 562 779 q 546 760 557 766 l 535 760 l 535 765 l 554 779 m -75 765 l -75 751 q -62 727 -70 727 q -40 735 -54 735 l -40 743 q -48 751 -48 743 l -51 754 l -59 754 l -62 751 l -64 751 l -70 765 l -75 765 m 234 743 l 296 741 l 302 732 l 302 730 q 277 719 298 719 l 231 719 q 188 727 188 719 l 188 730 q 234 743 188 741 m -16 667 l -16 651 l -2 578 l 3 578 l 25 597 l 20 643 q 98 732 20 701 l 98 738 q -16 667 29 709 m 516 738 l 522 738 l 522 735 q 505 722 517 726 l 505 727 l 516 738 m 562 692 l 562 678 q 587 703 587 682 q 581 711 581 703 l 578 711 l 562 692 m -45 705 l -43 697 l -35 697 l -35 708 l -40 708 l -43 705 l -45 705 m -127 678 l -124 675 l -121 675 q -108 705 -112 675 l -111 705 q -127 678 -127 699 m -97 705 q -105 681 -105 699 l -108 681 l -105 673 l -97 673 l -92 703 l -94 705 l -97 705 m -67 697 q -56 684 -62 685 l -48 684 l -48 689 q -56 705 -48 703 l -62 705 q -67 697 -67 705 m -89 694 l -89 684 l -81 675 l -78 675 l -73 681 q -81 703 -73 701 l -89 694 m 237 697 l 248 697 q 299 686 299 697 l 299 681 l 267 675 l 212 678 l 191 678 l 191 684 q 237 697 191 695 m 489 697 q 503 686 501 692 l 494 678 l 465 678 l 459 684 q 489 697 472 697 m 66 659 l 66 635 l 68 635 q 101 673 81 642 l 112 675 l 120 673 l 131 689 l 131 692 l 128 692 q 71 667 80 676 l 66 659 m 267 656 l 296 651 l 296 646 l 220 646 l 193 648 l 193 654 l 226 654 l 267 656 m 459 656 l 489 654 l 519 654 l 519 648 l 505 646 l 432 646 l 432 648 q 459 656 432 654 m -121 648 l -121 643 l -113 643 l -119 648 l -121 648 m -105 448 q -62 388 -105 423 l 14 336 q 41 366 14 342 l 41 369 q -48 426 31 369 l -51 429 l -51 431 l -59 429 q -73 450 -68 429 q -13 510 -64 450 l 85 589 l 98 594 l 93 635 q -105 450 -37 527 l -105 448 m 196 616 l 199 613 l 245 616 l 269 616 l 296 613 l 296 608 l 277 608 l 223 605 q 196 613 196 608 l 196 616 m 443 616 l 448 616 l 448 613 l 481 616 l 527 616 l 541 613 l 541 608 l 535 608 l 467 605 l 443 610 l 443 616 m -48 445 q 52 377 -28 427 q 74 404 74 395 q 17 458 37 435 l 17 464 q 55 524 17 475 q 96 572 96 559 l 96 578 q -10 494 39 524 l -48 445 m 33 467 l 33 461 q 63 434 50 440 l 66 434 l 63 456 q 74 491 66 491 l 90 488 l 98 496 l 98 507 q 90 526 90 517 l 90 537 l 87 537 q 33 467 47 494 m 93 467 q 82 412 93 447 l 98 401 l 101 401 l 104 404 l 106 404 q 98 467 98 429 l 93 467 m 820 442 q 809 420 820 426 l 806 410 q 828 439 825 410 l 825 442 l 820 442 m 109 404 l 109 401 q 120 358 113 358 l 134 358 l 134 361 l 125 382 l 128 391 q 109 404 124 404 m 744 401 l 741 399 l 741 396 l 749 388 l 752 388 l 752 393 l 744 401 m -83 388 l -89 374 l -89 236 q -83 203 -83 233 l -75 195 q 36 231 -43 195 l 22 244 l -45 236 q -73 279 -73 236 l -73 298 l -70 380 l -81 388 l -83 388 m -54 363 l -54 258 l -45 250 l -37 250 q 6 258 -28 258 l 6 260 q -32 279 -1 271 q -43 342 -43 300 l -40 355 l -54 363 m -26 347 l -29 345 q -16 290 -22 290 l -10 290 q 3 326 -6 326 l -26 347 m 549 336 l 551 334 l 554 334 l 568 339 l 568 345 l 565 345 q 549 336 549 343 m 28 209 l 58 152 q 63 144 63 152 l 66 141 l 68 141 l 120 179 l 109 184 q 79 171 89 171 l 74 171 q 52 214 63 171 l 47 220 q 28 209 28 214 m 446 217 q 408 195 446 210 q 353 106 396 189 q 207 87 330 87 l 201 79 l 201 52 q 245 8 219 8 l 253 8 q 299 38 262 8 q 329 5 318 10 l 337 5 q 386 65 380 5 q 370 95 383 79 q 378 100 370 100 q 391 95 391 100 q 429 130 429 106 l 424 149 l 427 152 l 429 152 q 451 144 451 148 q 503 179 480 144 l 503 184 l 500 184 l 484 179 l 446 217 m -7 198 q 47 87 42 112 q 163 184 56 88 l 161 184 q 63 119 138 174 q 17 206 51 119 l -7 198 m 74 195 l 74 193 l 77 184 l 79 184 l 90 190 l 90 195 l 74 195 m 163 165 l 163 160 l 196 157 l 204 157 q 280 187 254 157 l 280 190 l 267 195 l 261 190 l 239 190 l 231 195 l 199 195 q 163 165 169 165 m 578 187 l 578 179 q 519 119 566 119 l 505 119 l 505 109 q 465 73 505 84 q 481 16 481 54 q 427 -46 481 -11 l 427 -54 q 454 -81 432 -81 l 456 -81 l 467 -73 l 473 -73 l 478 -79 l 475 -92 q 486 -114 482 -92 l 481 -149 l 484 -290 l 484 -298 l 489 -298 l 489 -279 q 497 -217 489 -233 q 513 -62 497 -123 l 513 -57 q 505 -52 505 -57 l 505 -46 q 535 -14 535 -28 l 535 0 q 508 35 535 14 q 519 43 508 42 l 527 41 q 573 76 573 50 q 549 92 573 87 l 546 95 l 546 98 l 551 103 l 576 103 q 622 155 622 122 l 622 157 q 606 195 622 189 q 578 187 599 190 m 115 114 l 109 119 l 93 103 l 93 100 l 104 100 l 280 103 l 286 109 l 288 109 q 348 130 348 109 q 375 182 375 169 l 342 187 q 286 133 315 187 q 115 114 277 114 m 516 187 q 459 133 516 157 l 448 133 l 440 138 q 394 84 431 84 l 397 57 l 397 46 q 345 -8 397 7 l 329 -8 q 296 16 296 2 l 291 16 q 253 -5 278 -5 l 242 -5 q 188 54 201 -5 l 188 57 l 196 87 l 158 87 q 139 52 139 73 l 139 33 q 147 0 139 9 l 144 -3 q 204 -35 172 -35 l 248 -22 q 294 -79 265 -79 l 323 -81 q 380 -30 360 -81 l 383 -27 l 402 -30 l 408 -30 q 467 19 448 -30 l 467 33 q 432 84 460 56 l 440 90 l 465 90 q 492 119 486 90 l 489 130 l 494 136 l 508 133 l 522 133 q 565 184 565 152 l 565 187 l 516 187 m 196 144 l 147 149 l 125 130 l 125 127 l 158 130 l 182 130 l 256 133 q 296 176 275 142 l 294 176 q 210 144 256 144 l 196 144 m 633 174 l 635 160 l 635 144 q 578 90 616 90 l 587 76 l 587 73 q 541 30 587 38 l 541 27 q 551 -11 546 22 q 522 -49 543 -49 l 522 -52 q 535 -98 529 -59 l 535 -117 l 530 -182 l 532 -195 l 541 -195 l 541 -174 q 554 -87 541 -112 l 551 -84 q 562 -43 557 -84 l 557 -19 q 568 16 564 -19 q 600 27 575 22 q 619 60 619 47 l 606 71 l 606 73 q 622 81 606 81 q 663 171 663 117 l 663 174 l 633 174 z "},"L":{"ha":757,"x_min":-314,"x_max":842,"o":"m 223 1310 l 226 1308 l 229 1308 l 231 1310 l 234 1310 q 318 1234 280 1310 l 326 1188 q 220 1001 326 1118 q 408 1142 323 1053 q 443 1207 443 1181 l 443 1223 q 432 1248 443 1244 l 429 1248 l 429 1245 l 435 1237 l 435 1223 q 408 1204 422 1204 l 405 1204 q 383 1232 383 1204 q 424 1278 383 1258 l 437 1278 q 500 1221 500 1259 l 503 1185 q 353 998 503 1095 q 299 974 315 974 l 299 971 l 302 971 q 424 1028 373 971 q 437 1039 424 1039 l 451 1036 q 492 1096 481 1095 l 500 1096 l 505 1090 l 505 1063 l 589 1172 l 665 1242 l 673 1242 l 679 1237 q 587 1031 619 1149 l 587 1025 q 733 1150 703 1150 l 739 1156 l 749 1156 l 749 1153 q 687 1066 749 1142 q 595 887 629 968 q 793 1023 719 1004 l 795 1020 l 795 1009 q 638 841 668 903 q 606 768 627 828 q 578 738 587 739 l 573 738 q 541 760 562 738 l 532 762 q 440 635 440 688 q 451 621 446 623 l 465 621 l 465 624 l 462 637 l 470 643 l 473 643 l 484 632 q 459 600 484 600 l 454 600 q 424 618 439 600 q 413 545 413 574 l 413 526 q 465 469 423 469 q 503 513 498 469 l 489 524 l 484 515 q 497 507 497 512 l 497 502 l 481 488 l 478 488 l 465 502 l 465 505 q 489 545 465 545 q 527 502 521 545 q 484 448 527 478 l 486 448 q 595 518 552 448 q 606 551 601 551 q 589 597 596 597 l 578 586 l 573 586 q 543 597 543 591 l 543 613 q 565 637 543 630 l 573 637 q 630 545 630 612 q 603 477 630 508 l 608 477 q 679 567 656 521 q 692 605 684 567 l 695 608 l 695 621 l 684 659 l 673 681 l 671 681 q 644 670 659 670 q 616 697 616 676 l 616 703 q 644 732 622 732 q 717 651 691 732 q 725 624 720 631 l 725 602 q 717 567 717 591 l 760 567 l 812 570 l 823 562 l 823 559 q 814 540 823 550 l 842 513 l 831 496 l 836 461 q 828 431 834 431 l 828 442 q 809 361 821 442 l 806 358 l 806 355 l 793 220 l 793 193 l 790 176 l 795 130 l 798 130 l 798 136 l 795 155 q 812 174 795 165 q 825 157 825 166 q 798 106 811 106 l 787 106 q 766 184 766 106 l 771 247 l 758 236 l 755 236 l 758 250 l 758 258 q 806 540 758 353 l 804 540 q 779 510 795 540 l 782 507 q 771 483 775 507 l 782 491 l 785 491 l 785 488 q 728 239 747 410 l 728 209 q 711 65 711 209 q 730 54 726 65 q 711 11 730 33 l 703 11 q 687 43 687 22 l 687 125 l 690 179 l 668 179 q 638 35 655 179 q 611 16 626 34 l 608 19 l 608 30 q 633 109 625 65 l 635 109 l 633 111 l 633 114 q 652 176 652 163 l 652 179 l 627 171 l 611 176 l 600 176 l 584 174 l 527 195 q 459 228 459 195 l 451 233 l 448 220 q 497 184 448 193 l 516 187 q 541 174 541 181 q 508 160 529 160 l 462 179 q 435 157 456 179 q 418 125 418 153 q 446 38 420 94 l 446 33 l 440 27 l 437 27 q 389 90 404 27 l 386 90 q 375 14 375 45 l 375 -24 q 386 -95 375 -52 l 380 -100 q 356 -3 361 -100 q 383 119 356 58 l 380 119 l 359 114 q 323 144 323 118 l 323 152 q 397 165 323 157 q 440 184 398 172 l 440 190 q 421 198 431 190 l 418 198 l 269 163 l 269 149 q 288 130 279 130 q 332 98 290 125 l 332 92 q 261 43 302 65 q 231 -3 236 -3 l 229 -3 l 223 3 l 223 5 q 237 33 223 15 l 237 35 q 185 -41 214 18 l 182 -41 q 123 117 123 24 l 120 117 q 47 3 98 33 q 3 -22 16 -22 q -2 -14 -2 -22 l 3 33 l 3 133 l 6 160 q -184 92 -79 92 l -189 92 q -211 106 -204 92 q -154 231 -189 125 q -108 279 -122 279 l -108 282 q -222 345 -153 291 q -311 469 -311 427 l -314 472 q -306 477 -314 477 q -127 445 -237 445 l -111 442 q -186 640 -186 572 l -186 686 l -200 686 l -200 692 l -165 705 l -162 705 q -108 684 -162 699 q -29 629 -71 667 l -29 678 q -18 770 -29 717 l -29 768 q -154 822 -129 768 l -154 836 q -116 868 -138 868 q -89 846 -89 864 l -89 841 q -111 819 -89 831 l -111 814 q -59 798 -85 798 l 3 798 l 52 803 l 52 806 q -59 838 4 806 q -92 911 -92 863 q -56 944 -92 938 q -37 917 -37 938 l -32 917 l -32 920 l -37 941 l -37 952 q -13 1004 -21 1004 l 22 1017 l 31 1017 q 44 996 44 1010 q 25 960 44 972 l 12 960 l 1 971 q 20 979 1 979 l 28 990 l 28 996 l 14 998 q -10 968 -10 985 l -10 947 q 39 884 6 884 l 39 898 l 36 911 q 44 944 39 944 l 47 941 l 50 933 l 52 933 l 60 936 l 58 939 l 58 944 q 115 993 87 993 q 163 1088 163 1038 q 120 1142 152 1142 l 101 1139 l 109 1128 l 109 1118 q 90 1107 105 1107 l 79 1107 q 60 1126 60 1107 q 112 1166 60 1156 q 188 1123 188 1147 l 201 1096 l 201 1074 l 196 1066 l 199 1063 l 201 1063 q 250 1134 239 1108 q 264 1183 264 1157 l 264 1188 q 226 1280 264 1253 l 212 1280 l 207 1275 q 218 1253 218 1263 l 218 1248 q 193 1226 218 1226 l 180 1226 q 147 1253 147 1229 l 147 1256 q 223 1310 166 1310 m 277 1253 q 291 1188 291 1205 q 234 1061 291 1137 q 136 968 149 987 l 142 968 q 267 1099 203 1006 q 302 1191 302 1158 q 277 1253 291 1245 m 467 1232 l 470 1213 q 315 1028 470 1143 q 239 985 247 985 l 239 979 q 386 1055 345 1008 l 432 1090 q 475 1185 475 1142 l 475 1188 q 467 1232 475 1232 m 508 1042 l 500 1042 q 492 1069 492 1042 l 489 1069 l 427 971 q 437 966 437 971 l 429 958 l 429 949 l 435 936 l 440 936 q 486 1004 477 998 l 494 1004 q 503 990 503 1004 l 505 990 q 535 1012 505 1006 q 554 1039 535 1024 l 557 1039 q 565 1009 565 1039 l 568 1009 q 630 1188 568 1050 q 524 1058 536 1093 l 508 1042 m 79 1128 l 77 1126 l 77 1123 l 90 1120 l 93 1123 l 93 1126 l 79 1128 m 554 977 l 549 998 l 549 1012 l 546 1012 q 427 838 454 888 l 432 833 l 432 830 q 416 811 421 830 l 416 806 q 532 909 498 905 q 578 944 565 944 l 584 936 q 562 857 562 897 l 562 852 q 573 879 573 852 l 606 952 q 703 1112 671 1074 l 703 1115 q 562 977 692 1115 l 554 977 m 559 825 l 554 825 l 543 836 l 543 854 l 557 909 l 554 909 q 383 697 383 736 l 380 665 l 380 662 l 383 662 q 475 779 389 687 q 513 814 488 779 l 522 814 l 573 765 l 576 765 q 692 936 608 842 l 739 979 l 736 979 q 559 825 682 957 m 63 939 l 63 936 l 68 936 l 68 939 l 63 939 m 410 939 l 410 936 l 418 936 l 418 939 l 410 939 m -70 911 l -54 909 l -51 911 l -51 914 l -54 917 l -64 917 l -70 911 m 68 911 l 68 906 l 71 892 l 136 892 q 180 865 161 892 l 177 846 l 177 345 q 117 304 177 304 l 74 304 l 68 298 l 68 285 l 74 279 l 690 279 q 703 412 703 279 l 711 513 l 682 513 q 606 355 667 435 q 494 304 542 304 l 391 304 q 321 331 321 304 l 318 345 l 318 640 l 313 648 l 313 654 l 318 662 l 318 860 q 353 892 318 886 l 427 892 l 427 917 l 74 917 l 68 911 m -35 914 q -59 890 -38 890 l -73 895 l -73 890 q 47 830 -73 850 l 55 830 l 55 833 q -24 898 18 833 l -29 914 l -35 914 m 153 909 l 340 909 l 340 906 q 313 876 313 884 q 307 863 307 876 l 304 860 l 191 860 q 180 884 187 860 q 153 903 159 903 l 153 909 m 12 879 l 12 876 q 66 846 39 846 l 90 849 l 90 852 q 36 871 36 852 l 12 879 m -138 827 l -135 819 l -132 819 q -111 833 -132 833 l -105 841 l -105 852 l -124 852 q -138 827 -138 845 m 191 854 l 299 854 l 307 846 l 307 825 l 302 819 l 191 819 l 185 825 l 185 849 l 191 854 m 332 846 l 332 833 l 334 833 l 334 846 l 332 846 m 191 814 l 302 814 l 307 808 l 307 784 l 302 779 l 191 779 l 185 784 l 185 808 l 191 814 m 20 773 l 74 684 q 96 735 82 684 l 82 730 l 77 738 l 77 741 q 98 798 95 777 l 96 798 q 20 773 52 779 m 191 773 l 272 773 q 307 765 307 773 l 307 762 q 272 746 296 746 l 188 749 l 185 751 l 185 768 l 191 773 m 3 765 q -13 689 -13 708 l -13 681 q 20 551 -13 663 l 17 548 l 14 548 l 36 469 q 31 404 31 445 l 31 391 l 33 391 l 39 437 l 28 681 l 31 684 l 33 684 q 60 616 43 684 l 63 583 l 66 583 q 71 594 66 594 l 93 594 q 22 732 83 662 l 3 765 m 264 735 q 307 724 307 733 l 307 719 q 286 708 307 712 l 218 708 l 207 711 l 196 708 l 191 708 l 185 713 l 185 727 q 193 732 185 732 l 264 735 m 158 713 l 158 705 l 161 705 l 161 713 l 158 713 m 646 694 l 646 689 l 649 689 l 649 694 l 646 694 m -162 684 l -162 648 l -159 648 q -24 594 -72 648 q -140 678 -64 652 q -162 684 -140 684 m 242 686 l 248 686 l 302 681 l 302 673 l 245 667 l 191 673 l 191 681 l 242 686 m 93 667 l 93 659 l 96 659 l 96 667 l 93 667 m 267 648 l 299 643 l 299 637 l 210 637 l 191 640 l 191 646 l 231 646 l 267 648 m -157 640 l -159 632 q -113 529 -159 616 q -64 423 -92 454 l -64 420 l -70 415 q -21 377 -53 387 l -21 380 q -108 610 -90 491 l -105 613 l -97 613 q 3 464 -31 539 q 9 407 9 446 l 12 407 l 14 415 q -10 553 14 521 q -45 597 -38 597 q -121 635 -45 615 q -157 640 -121 639 m 370 507 l 370 467 q 375 437 375 463 q 421 363 389 384 q 470 347 445 347 l 473 347 q 511 377 511 351 l 511 393 q 475 418 503 418 l 473 420 q 456 404 463 418 l 456 399 l 467 388 q 475 412 467 412 l 478 412 q 508 382 508 408 q 473 355 500 355 l 462 355 q 394 410 427 355 q 383 467 383 439 l 383 486 q 405 618 383 567 l 402 618 q 375 513 375 591 l 370 507 m 191 605 l 199 602 l 239 605 l 280 605 l 299 602 l 299 597 l 283 597 l 220 594 l 191 600 l 191 605 m 44 597 l 44 589 l 47 589 l 47 597 l 44 597 m -89 583 l -89 575 q -21 401 -67 484 l -5 380 l -2 380 l -2 434 l -7 442 l -7 448 l -5 450 l -5 453 q -86 581 -37 509 l -86 583 l -89 583 m 47 583 l 47 581 l 50 486 l 55 480 l 55 453 l 52 426 l 55 423 l 58 423 l 63 477 l 63 494 q 47 583 55 583 m 93 581 q 71 548 93 548 l 71 545 l 77 505 l 77 469 q 66 410 77 442 l 77 410 q 98 513 88 434 l 96 581 l 93 581 m -138 548 l -138 545 q -119 510 -124 510 l -119 513 l -135 548 l -138 548 m 692 494 l 698 488 l 698 475 l 692 469 l 684 469 l 679 475 l 679 477 l 692 494 m -284 445 l -284 439 q -124 304 -232 348 q -89 296 -104 296 q -21 328 -21 311 l -5 345 l -7 347 l -10 347 q -73 315 -10 326 l -75 312 l -92 312 l -132 323 q -200 385 -180 345 l -211 410 l -197 426 q -56 372 -163 423 l -54 372 l -54 377 l -111 410 q -284 445 -159 434 m 695 448 l 698 445 l 698 442 l 682 437 l 679 437 l 673 442 l 695 448 m -108 426 l -108 423 l -100 420 l -100 426 l -108 426 m 532 423 l 532 420 l 538 420 l 538 423 l 532 423 m -192 410 l -192 407 q -75 328 -163 328 l -73 331 l -73 334 q -113 355 -113 345 q -102 363 -113 362 q -62 353 -84 363 l -64 350 l -64 345 l -43 342 l -37 347 l -29 345 l -26 347 l -26 350 q -119 385 -65 357 l -192 410 m 820 404 l 825 404 l 828 391 l 828 382 l 823 374 l 823 363 l 814 304 l 814 288 l 809 288 l 809 301 q 820 404 817 338 m 79 353 l 79 350 l 82 350 l 90 353 l 87 361 l 79 353 m 128 355 l 128 350 l 131 350 l 131 355 l 128 355 m -192 106 l -184 106 q -45 141 -130 106 q 28 222 12 176 l 28 228 l 22 228 q -37 155 22 204 q -105 130 -77 130 l -111 130 q -130 144 -130 130 l -111 233 q -73 279 -97 255 l -83 279 q -178 122 -128 279 l -192 106 m -24 279 q -51 225 -51 248 l -51 222 l -45 222 q -10 260 -29 231 l -7 260 l -24 279 m -111 146 l -108 146 q 14 241 -35 146 l 1 252 l -2 252 q -59 206 -19 206 l -62 206 q -81 225 -81 206 l -81 233 l -75 252 q -108 155 -108 230 l -111 146 m 264 252 q 323 203 264 212 l 334 198 l 351 198 l 361 203 l 361 209 q 304 228 361 216 l 267 252 l 264 252 m 359 239 q 397 209 359 218 l 405 209 l 410 214 l 367 244 l 364 244 l 359 239 m 223 241 q 267 182 238 182 q 280 176 267 176 l 294 176 q 302 187 298 176 q 258 212 302 194 l 234 241 l 223 241 m -67 225 l -67 222 l -62 222 l -62 225 l -67 225 m 36 209 q 22 174 28 174 l 25 171 l 25 168 q 17 117 17 160 l 17 27 l 14 0 l 17 0 q 87 68 60 24 l 112 144 l 112 190 l 98 190 l 98 187 q 58 81 98 117 l 52 81 q 39 157 39 81 l 39 209 l 36 209 m 66 193 l 66 163 l 60 157 l 55 163 l 52 163 l 58 100 q 82 174 66 100 l 85 176 l 85 184 q 68 193 77 184 l 66 193 m 134 193 q 188 65 164 65 l 191 65 l 201 84 l 201 111 l 172 133 l 136 193 l 134 193 m 158 184 q 191 136 167 163 l 193 136 l 193 138 q 177 193 187 176 l 158 184 m 220 155 q 212 125 220 125 l 215 111 l 215 92 q 188 49 215 49 q 142 114 159 49 l 136 114 l 136 98 l 142 90 l 142 84 l 139 81 l 139 79 q 158 16 143 79 l 182 -19 q 242 71 182 -2 l 242 84 q 223 155 242 116 l 220 155 m 134 125 l 134 119 l 139 119 l 134 125 m 332 41 l 337 41 l 334 27 l 337 14 l 334 0 q 399 -176 334 -100 q 435 -198 420 -198 l 443 -198 q 475 -174 475 -190 q 454 -184 464 -184 q 427 -155 439 -184 l 427 -141 q 470 -98 427 -116 q 511 -152 511 -119 q 437 -217 511 -203 l 427 -217 q 337 -133 370 -217 q 321 -24 326 -103 l 332 41 m 470 -119 l 470 -125 l 478 -127 l 478 -125 l 473 -119 l 470 -119 z "},"M":{"ha":1008,"x_min":-229,"x_max":1130,"o":"m 764 1267 l 766 1264 l 766 1261 q 623 1207 766 1249 l 612 1204 l 636 1120 l 639 1120 l 669 1128 l 680 1128 l 680 1126 q 639 1109 680 1117 q 655 1055 648 1065 l 652 1053 q 663 1028 659 1053 l 726 1028 l 726 1023 q 671 1012 688 1012 l 688 977 l 707 979 l 810 979 q 878 998 850 998 l 905 998 q 967 985 967 994 l 948 963 q 981 930 948 956 l 981 925 l 983 925 q 972 882 980 882 l 937 882 l 932 876 l 967 841 l 964 838 l 962 838 q 907 849 958 844 l 907 844 q 929 838 907 838 q 954 827 954 832 l 954 825 l 945 817 l 899 817 l 878 770 l 869 700 l 869 621 q 894 605 884 621 l 894 600 l 891 581 q 967 662 933 637 l 972 662 l 978 656 l 978 648 q 964 562 964 631 l 964 553 l 1032 635 q 1127 697 1115 697 l 1130 694 l 1130 686 q 986 464 1035 588 q 962 426 972 430 q 943 456 957 426 l 945 458 l 945 461 q 926 518 941 461 q 891 483 917 518 l 891 475 q 907 450 891 455 l 907 442 l 897 412 q 916 372 897 400 l 918 374 l 964 374 l 964 372 l 954 358 q 994 331 977 358 l 1010 315 l 1010 274 l 970 233 l 956 233 l 956 228 l 967 214 l 964 212 l 935 212 l 932 214 l 929 214 l 929 212 q 956 117 956 173 q 926 60 956 85 l 926 41 l 929 19 q 913 -95 922 -95 l 913 -125 q 891 -190 913 -178 l 888 -201 l 888 -296 l 883 -301 l 880 -374 l 880 -404 q 867 -445 878 -445 q 856 -412 860 -445 q 850 -393 851 -412 l 850 -263 l 848 -182 q 812 -155 823 -182 l 818 -133 q 804 -114 804 -133 q 840 -57 804 -77 l 848 -57 l 850 -60 l 853 -60 l 850 -46 l 850 -3 q 829 98 850 98 l 821 98 q 758 73 771 73 l 753 73 l 731 76 q 682 46 731 50 l 674 46 q 633 76 633 54 l 631 76 q 560 22 631 39 l 552 22 q 511 41 535 22 l 457 30 q 368 84 405 30 l 365 84 l 357 79 l 351 79 q 283 138 283 100 l 281 152 l 286 190 l 224 198 l 224 193 l 221 193 l 224 190 l 224 165 q 248 136 224 152 l 248 125 q 216 95 233 95 l 213 95 q 156 127 156 95 q 113 168 113 140 q 47 144 71 144 q -12 198 -12 144 l -37 209 l -61 206 l -72 206 l -80 201 l -121 201 l -132 198 q -183 220 -163 198 l -183 222 l -178 228 l -145 222 q -28 274 -82 232 l -23 274 l -4 260 l -4 263 l -18 279 l -18 288 l -15 290 l -15 293 q -23 315 -20 293 l 28 369 l 9 437 l 4 437 q -45 426 -14 426 l -47 429 l -47 431 q 4 445 -47 437 l 4 448 q -12 496 -3 487 q -94 483 -12 490 l -99 491 l -99 494 l -85 491 q -12 507 -81 500 l -12 518 l -26 562 l -113 556 q -129 564 -129 559 q -28 575 -129 572 q -45 670 -37 670 l -104 670 l -113 665 l -170 665 l -175 670 q -42 681 -132 681 l -42 694 l -47 703 l -47 716 l -45 719 l -45 722 q -56 781 -51 722 l -164 776 l -164 781 l -151 781 q -58 795 -148 786 l -58 798 l -72 947 l -75 947 q -229 909 -99 947 q -115 947 -229 916 l -77 955 l -83 1023 q -205 998 -119 1008 l -205 1001 q -137 1017 -205 1004 l -83 1031 l -85 1044 l -85 1047 l -80 1047 l -80 1034 l -75 1034 q -23 1050 -23 1040 l -20 1050 l 23 1058 l 20 1061 l 20 1085 l 26 1085 l 26 1063 l 28 1061 l 28 1058 q 118 1082 99 1072 l 118 1088 l 123 1082 l 183 1096 l 178 1150 l 183 1150 q 197 1099 183 1119 q 289 1123 214 1107 l 286 1142 l 286 1145 l 292 1145 l 294 1126 l 365 1145 l 365 1161 q 357 1226 357 1169 l 362 1226 l 362 1223 l 359 1221 l 359 1218 q 376 1150 366 1218 l 378 1150 q 433 1166 433 1162 l 425 1232 l 430 1232 q 441 1169 430 1211 l 446 1169 q 525 1194 505 1184 q 593 1213 543 1194 l 593 1215 l 585 1251 l 587 1251 q 606 1215 596 1251 l 609 1215 q 764 1267 713 1256 m 275 1204 l 281 1204 l 286 1172 l 281 1172 l 275 1204 m 446 1150 l 452 1142 l 449 1139 l 449 1137 q 468 1080 456 1137 l 471 1080 l 547 1096 l 525 1172 l 522 1172 q 446 1150 447 1155 m 178 1166 l 183 1166 l 183 1158 l 178 1158 l 178 1166 m 283 1161 l 289 1161 l 289 1150 l 283 1150 l 283 1161 m 378 1128 l 389 1061 q 454 1080 454 1071 l 435 1150 q 378 1128 378 1136 m 199 1088 q 221 1028 199 1076 q 305 1050 305 1042 q 289 1109 300 1050 l 199 1088 m 18 1107 l 23 1107 l 23 1090 l 18 1090 l 18 1107 m 560 1088 l 560 1085 q 593 1015 585 1015 l 609 1015 q 650 1025 616 1020 l 631 1101 l 560 1088 m -26 1072 l -20 1072 l -20 1058 l -26 1058 l -26 1072 m 31 1047 q 45 985 31 994 q 140 1009 52 990 l 140 1012 q 121 1066 131 1049 q 31 1047 85 1063 m 389 1044 q 403 985 396 1044 l 411 985 q 471 996 411 990 l 460 1061 q 389 1044 392 1053 m 319 1031 l 330 974 l 389 985 l 378 1044 q 319 1031 319 1035 m -77 1020 l -77 1012 q -69 960 -72 1012 l -66 960 q -18 977 -18 967 l -15 985 l -20 990 l -20 1015 q -26 1034 -20 1034 q -77 1020 -77 1027 m 151 996 l 170 949 q 229 963 222 956 q 216 1012 229 981 q 151 996 151 1000 m 598 998 l 598 996 l 612 952 l 612 949 l 606 949 l 590 996 l 492 982 l 492 979 l 500 920 l 503 920 q 623 941 525 920 q 671 977 623 950 l 671 979 l 658 1006 l 598 998 m 408 971 l 419 903 l 487 914 q 473 979 487 931 l 408 971 m -7 966 l 7 803 l 42 803 l 56 806 l 45 882 q 34 887 34 882 l 34 920 l 37 947 l 34 971 l -7 966 m 294 955 l 243 952 l 243 949 l 278 939 l 321 939 q 313 960 321 959 l 305 960 l 294 955 m 115 941 l 115 939 l 164 939 l 164 944 l 115 941 m 56 920 l 56 914 l 58 895 l 118 895 q 159 854 159 892 l 161 852 l 161 808 l 170 808 q 175 817 170 817 l 189 800 q 178 784 178 798 l 175 784 q 170 795 170 784 l 161 795 l 161 410 l 145 361 q 53 309 103 309 l 53 282 l 300 282 l 302 285 l 305 285 l 302 298 l 308 307 q 194 404 194 328 l 194 890 l 199 895 l 205 895 q 324 583 227 857 l 438 282 l 465 282 q 528 437 470 284 l 699 887 l 701 890 l 709 890 q 718 863 718 890 l 715 846 l 718 822 l 715 811 l 718 779 l 718 369 q 663 307 718 307 l 606 307 l 606 282 l 956 282 l 962 288 l 962 301 l 956 307 l 918 307 q 850 358 850 307 l 850 854 q 886 895 857 895 l 959 895 l 962 914 l 956 920 l 671 920 l 571 643 l 568 640 l 566 640 l 568 637 l 568 635 l 506 469 l 498 469 l 349 873 q 327 903 349 886 l 324 920 l 256 920 l 248 914 l 245 914 l 237 920 l 56 920 m 137 911 l 316 911 l 327 895 q 340 873 340 888 l 340 868 l 335 863 l 237 863 q 224 892 233 863 l 208 903 l 191 903 l 180 895 l 183 887 q 175 865 180 865 q 153 903 153 888 l 132 903 l 132 906 l 137 911 m 875 911 l 875 906 q 842 868 842 896 l 837 863 l 734 863 q 720 895 720 880 l 693 895 q 669 863 693 882 l 663 868 l 663 879 q 682 911 679 895 l 875 911 m 425 884 l 425 882 l 427 841 l 479 841 l 487 846 l 503 846 q 487 898 493 898 l 425 884 m 61 882 q 77 806 68 806 l 85 806 q 96 825 90 825 q 107 808 102 825 l 118 808 l 121 849 l 118 852 l 115 852 q 132 871 115 871 l 132 876 l 94 882 l 61 882 m 869 857 l 869 852 l 883 852 l 902 849 l 905 852 l 905 854 q 888 863 888 857 l 897 879 l 894 879 q 869 857 869 879 m 764 857 l 840 854 l 842 852 l 842 827 l 837 822 l 734 822 q 728 836 728 822 l 720 844 l 720 846 q 764 857 720 854 m 170 854 l 178 854 l 183 844 q 172 825 180 825 l 170 827 l 170 854 m 340 854 l 354 833 l 354 827 l 349 822 l 256 822 q 232 852 232 838 l 235 854 l 340 854 m 669 854 l 671 852 l 674 852 q 650 825 667 825 l 650 827 q 658 852 658 838 l 661 854 l 669 854 m 555 833 q 528 822 528 829 l 530 800 l 533 800 l 544 803 l 555 795 l 555 784 l 544 751 l 547 751 q 560 741 555 751 l 560 735 l 555 708 l 557 708 q 563 692 563 708 l 568 692 q 582 749 582 722 l 574 825 l 576 836 l 574 833 l 555 833 m 137 833 l 137 817 l 142 817 l 142 833 l 137 833 m 256 817 l 354 817 q 359 800 359 817 l 368 792 l 368 781 l 270 781 l 251 803 l 251 811 l 256 817 m 647 817 l 652 817 l 658 811 l 658 803 l 644 792 l 639 798 l 639 808 l 647 817 m 739 817 l 834 817 l 842 808 l 842 789 l 834 781 l 734 781 q 728 795 728 781 l 720 803 q 739 817 720 807 m 75 792 l 77 773 l 80 773 l 80 792 l 75 792 m -47 781 l -47 776 q -31 681 -42 768 l -28 684 l 4 684 l -1 789 l -4 789 q -47 781 -47 789 m 175 776 l 178 773 l 178 751 l 170 751 l 170 770 l 175 776 m 267 776 l 278 773 l 321 776 l 354 776 q 376 765 374 772 l 376 757 l 351 749 l 275 751 l 267 770 l 267 776 m 639 776 l 642 773 l 642 765 l 628 751 l 623 757 l 623 760 l 639 776 m 764 776 l 791 776 q 842 765 842 776 q 802 749 833 749 l 796 749 q 728 762 728 749 l 728 765 q 764 776 728 774 m 129 770 l 118 686 l 121 684 l 126 684 q 137 727 132 684 l 134 730 l 137 743 l 134 757 l 137 757 l 134 770 l 129 770 m 83 738 l 80 741 l 80 735 l 83 713 q 102 730 102 725 l 102 749 l 96 760 q 85 738 90 760 l 83 738 m 444 741 l 444 738 l 452 738 l 452 741 l 444 741 m 340 738 l 351 738 q 395 722 385 738 q 370 711 395 715 l 324 711 q 281 724 281 713 q 340 738 281 738 m 777 738 q 842 727 842 738 l 842 722 q 807 711 842 713 l 772 711 q 728 719 728 711 l 728 727 q 777 738 728 736 m 170 735 l 178 735 l 178 716 l 172 711 l 170 713 l 170 735 m 620 735 q 625 727 625 735 q 612 711 622 716 l 609 713 l 609 716 q 620 735 609 731 m 354 689 l 354 686 l 357 689 l 373 689 q 408 678 408 687 q 349 670 388 670 l 346 670 q 300 684 300 672 l 300 686 l 335 686 l 354 689 m 780 689 l 783 689 l 837 684 l 837 675 l 807 670 l 753 673 l 734 673 l 728 678 q 780 689 728 689 m 595 686 l 604 686 l 609 681 l 598 673 l 595 673 l 590 678 l 590 681 l 595 686 m 23 673 l 20 673 l 28 583 l 75 583 l 83 605 q 69 629 79 605 l 69 632 l 72 635 l 72 637 q 64 675 64 637 l 61 675 l 23 673 m 115 675 q 104 648 115 651 l 102 648 l 85 662 l 88 643 l 88 600 l 94 600 q 123 675 123 623 l 115 675 m 460 659 l 460 621 l 463 621 l 471 656 l 468 659 l 460 659 m 368 651 l 411 646 l 411 640 l 319 640 l 319 646 l 368 651 m 804 651 q 840 640 840 647 l 837 637 l 834 640 l 747 640 l 734 643 l 734 648 l 764 648 l 804 651 m 365 608 l 400 608 l 427 605 l 427 600 l 338 600 l 338 605 l 365 608 m 734 608 l 742 605 l 774 608 l 815 608 l 834 605 l 834 600 l 823 600 l 761 597 l 734 602 l 734 608 m 468 602 l 487 548 l 490 548 l 495 575 q 484 591 484 575 l 484 602 l 468 602 m 1 562 l -12 562 l -1 510 l 26 510 q 15 564 20 555 l 1 562 m 34 564 q 47 513 38 513 l 69 513 l 77 521 l 75 564 l 34 564 m 47 496 l 56 458 q 77 467 77 461 l 77 502 l 53 502 l 47 496 m 4 488 q 20 450 12 450 l 39 456 q 26 499 31 499 q 4 488 4 499 m 58 453 l 66 415 l 72 415 l 77 456 l 72 456 l 58 453 m 20 437 q 42 382 33 382 l 61 391 q 45 401 61 396 l 39 410 l 39 415 q 50 423 39 422 q 37 445 47 445 q 20 437 20 442 m 639 412 l 631 372 l 633 372 l 636 369 l 639 369 l 644 410 l 642 412 l 639 412 m 69 410 l 75 404 l 75 410 l 69 410 m 541 315 l 541 277 l 576 241 l 579 252 l 576 255 l 587 296 l 587 320 l 593 326 l 612 326 l 614 336 l 601 350 l 606 355 l 604 363 l 628 363 l 628 369 l 614 372 l 598 372 l 541 315 m 869 366 l 869 358 l 891 358 l 899 366 l 899 372 l 875 372 l 869 366 m 907 372 l 907 369 l 913 369 l 913 372 l 907 372 m 644 369 l 644 363 l 661 363 l 663 361 l 666 361 l 669 363 l 669 366 l 666 369 l 644 369 m 916 366 l 913 363 l 913 361 q 940 347 930 347 q 948 353 940 353 q 916 366 948 359 m 891 350 l 891 347 l 905 353 l 902 355 l 902 358 q 891 350 891 354 m 935 342 l 935 336 l 940 336 l 940 342 l 935 342 m 872 339 q 910 326 872 328 l 916 326 l 926 336 l 907 339 l 872 339 m 878 266 q 916 258 878 258 l 918 260 l 918 263 l 916 266 l 878 266 m 959 266 q 954 258 959 258 l 932 258 l 929 260 l 926 260 l 926 258 l 943 241 l 964 252 l 962 255 l 962 258 l 964 266 l 959 266 m -94 222 l -94 220 l -88 220 l -28 222 q 4 179 0 222 q 47 160 22 160 q 115 184 66 160 l 118 184 l 137 155 q 172 119 172 137 l 194 111 l 216 111 l 229 125 l 229 130 q 205 171 212 130 l 208 198 l 189 195 l 153 195 q 129 206 132 195 q 148 214 129 212 l 148 220 l 107 222 l 96 222 l 39 217 q -4 244 33 233 q -26 258 -16 258 q -94 222 -77 227 m 810 258 l 810 252 l 834 236 l 845 231 l 845 225 l 633 217 l 633 214 q 671 193 671 210 l 669 133 q 693 111 670 123 l 712 111 l 753 127 l 761 125 l 772 138 l 772 141 l 764 157 q 793 171 781 171 q 812 130 802 171 l 821 127 q 869 165 838 127 l 875 165 q 897 127 897 165 l 888 -52 l 886 -54 l 891 -60 l 891 -62 l 886 -68 l 888 -71 l 888 -90 l 883 -98 l 880 -165 l 888 -171 l 894 -171 q 910 16 902 -152 l 910 27 l 907 54 q 926 95 907 64 l 932 111 q 910 190 932 190 q 856 222 910 212 l 856 228 q 867 233 867 228 l 867 236 q 810 258 844 236 m 929 233 l 929 231 l 932 233 l 940 233 l 943 231 l 945 231 l 945 233 l 940 239 l 935 239 l 929 233 m 574 236 q 460 163 481 163 l 441 163 q 528 106 462 106 l 547 106 q 606 136 602 108 l 606 141 q 587 176 606 155 l 587 179 l 595 187 l 612 182 l 625 195 l 623 198 l 623 206 l 631 217 l 601 217 q 574 236 582 236 m 346 220 q 302 179 330 200 l 302 155 q 354 95 315 117 l 362 87 l 365 90 l 368 90 q 357 160 357 123 l 370 209 l 346 220 m 633 206 q 614 171 633 177 l 623 136 q 541 76 623 94 l 530 76 q 433 136 453 76 l 425 168 l 387 195 q 373 144 376 191 q 427 49 373 73 l 452 43 q 511 54 474 43 q 552 35 540 35 q 625 92 604 35 l 631 92 q 682 60 652 60 q 726 90 726 63 l 734 90 q 753 84 740 84 l 753 81 l 826 109 q 864 -19 864 109 l 869 -71 l 867 -73 l 864 -73 l 840 -71 q 818 -106 818 -93 l 818 -122 l 837 -130 l 826 -149 l 826 -163 q 864 -187 864 -172 l 861 -214 q 869 -339 869 -284 l 867 -388 l 869 -420 l 872 -420 q 878 -266 872 -286 l 872 -225 l 875 -182 q 864 -160 867 -182 l 872 -49 l 872 14 l 880 109 l 880 146 l 875 152 q 829 111 836 111 l 815 111 q 788 160 800 111 l 780 157 l 785 136 q 753 106 776 106 l 753 109 q 701 92 727 92 q 652 133 652 98 l 650 136 l 650 152 q 655 174 655 157 l 658 176 l 661 198 l 658 198 l 642 206 l 633 206 z "}}}
